<svg width="558" height="558" viewBox="0 0 558 558" fill="none" xmlns="http://www.w3.org/2000/svg">
<g clip-path="url(#clip0_1661_34)">
<rect x="50" width="458" height="558" fill="#D6E7EF"/>
<path d="M181 308C181 305.348 179.894 302.804 177.925 300.929C175.955 299.054 173.285 298 170.5 298C167.715 298 165.044 299.054 163.075 300.929C161.106 302.804 160 305.348 160 308C160 310.652 161.106 313.196 163.075 315.071C165.044 316.946 167.715 318 170.5 318C173.285 318 175.955 316.946 177.925 315.071C179.894 313.196 181 310.652 181 308Z" fill="#2F60AC"/>
<path d="M161.227 518.941L460 523.066L460 34.816L89.4531 34.816L91.2266 445.441L161.227 518.941ZM120.727 445.441L197.227 445.441L172.5 499.089L120.727 445.441ZM113.43 58.7926L436.023 58.7926L436.023 499.089L189.727 499.089L221.727 429.441L113.593 426.441L113.484 337.466L113.484 58.7926L113.43 58.7926Z" fill="#2F60AC"/>
<path d="M405.149 379.191L227.559 379.191L227.559 361.473L405.149 361.473L405.149 379.191Z" fill="#2F60AC"/>
<path d="M209.522 379.191L160.371 379.191L160.371 361.473L209.522 361.473L209.522 379.191Z" fill="#2F60AC"/>
<path d="M338.124 318.269L187.181 318.269L187.181 300.55L338.124 300.55L338.124 318.269Z" fill="#2F60AC"/>
<path d="M405.095 318.269L355.398 318.269L355.398 300.55L405.095 300.55L405.095 318.269Z" fill="#2F60AC"/>
<path d="M405.477 257.292L227.56 257.292L227.56 239.574L405.477 239.574L405.477 257.292Z" fill="#2F60AC"/>
<path d="M200.64 257.292L160.37 257.292L160.37 239.574L200.64 239.574L200.64 257.292Z" fill="#2F60AC"/>
<path d="M191.64 107.4V177H176.76V107.4H191.64ZM226.135 107.592L252.151 162.216V107.592H265.975V177H245.527L218.647 119.4V177H204.631V107.592H226.135ZM323.798 107.688V118.824H293.942V135.912H321.781V147.432H293.942V177H279.062V107.688H323.798ZM396.437 141.672C396.437 153.064 393.493 162.088 387.605 168.744C381.717 175.4 373.589 178.728 363.221 178.728C352.725 178.728 344.533 175.624 338.645 169.416C332.821 163.144 329.909 154.408 329.909 143.208C329.909 131.688 332.821 122.632 338.645 116.04C344.469 109.448 352.661 106.152 363.221 106.152C374.101 106.152 382.357 109.448 387.989 116.04C393.621 122.632 396.437 131.176 396.437 141.672ZM362.933 167.784C369.269 167.784 373.845 165.416 376.661 160.68C379.477 155.944 380.885 149.48 380.885 141.288C380.885 133.864 379.349 127.944 376.277 123.528C373.269 119.048 368.981 116.808 363.413 116.808C357.525 116.808 353.045 119.016 349.973 123.432C346.965 127.784 345.461 133.992 345.461 142.056C345.461 150.696 346.965 157.16 349.973 161.448C352.981 165.672 357.301 167.784 362.933 167.784Z" fill="#2F60AC"/>
</g>
<defs>
<clipPath id="clip0_1661_34">
<rect width="558" height="558" fill="white" transform="translate(558 558) rotate(180)"/>
</clipPath>
</defs>
</svg>
