<?xml version="1.0" encoding="UTF-8" standalone="no"?>
<svg
   width="428.4375"
   height="383.80859"
   viewBox="0 0 428.4375 383.80859"
   fill="none"
   version="1.1"
   id="svg4"
   sodipodi:docname="License-Checker_bg.svg"
   inkscape:version="1.4.2 (ebf0e940, 2025-05-08)"
   xmlns:inkscape="http://www.inkscape.org/namespaces/inkscape"
   xmlns:sodipodi="http://sodipodi.sourceforge.net/DTD/sodipodi-0.dtd"
   xmlns="http://www.w3.org/2000/svg"
   xmlns:svg="http://www.w3.org/2000/svg">
  <sodipodi:namedview
     id="namedview4"
     pagecolor="#505050"
     bordercolor="#eeeeee"
     borderopacity="1"
     inkscape:showpageshadow="0"
     inkscape:pageopacity="0"
     inkscape:pagecheckerboard="0"
     inkscape:deskcolor="#505050"
     inkscape:zoom="1.92"
     inkscape:cx="137.5"
     inkscape:cy="141.66667"
     inkscape:window-width="3824"
     inkscape:window-height="1447"
     inkscape:window-x="8"
     inkscape:window-y="33"
     inkscape:window-maximized="0"
     inkscape:current-layer="svg4" />
  <rect
     width="480"
     height="430"
     fill="#E86195"
     fill-opacity="0.32"
     id="rect1"
     style="fill:none;fill-opacity:0"
     x="-51.5625"
     y="-46.191406" />
  <defs
     id="defs4">
    <clipPath
       id="clip0_1547_78">
      <rect
         width="323"
         height="323"
         fill="#ffffff"
         transform="translate(87,63)"
         id="rect4"
         x="0"
         y="0" />
    </clipPath>
  </defs>
  <rect
     style="fill:#00519e;fill-opacity:1;stroke-width:0.894363;stroke-dasharray:none;paint-order:stroke fill markers"
     id="rect2"
     width="428.4375"
     height="383.80859"
     x="0"
     y="0"
     ry="19.060261" />
  <g
     clip-path="url(#clip0_1547_78)"
     id="g4"
     style="fill:#ffffff;fill-opacity:1;stroke:#ffffff;stroke-opacity:1"
     transform="translate(-22.43725,-20.751703)">
    <path
       d="m 285.346,228.023 h -98.38 c -2.629,0 -4.76,2.131 -4.76,4.761 0,2.629 2.131,4.76 4.76,4.76 h 98.379 c 2.63,0 4.761,-2.131 4.761,-4.76 0,-2.63 -2.131,-4.761 -4.76,-4.761 z"
       fill="#2F60AC"
       id="path1"
       style="fill:#ffffff;fill-opacity:1;stroke:#ffffff;stroke-opacity:1" />
    <path
       d="m 285.346,202.635 h -98.38 c -2.629,0 -4.76,2.131 -4.76,4.76 0,2.63 2.131,4.761 4.76,4.761 h 98.379 c 2.63,0 4.761,-2.131 4.761,-4.761 0,-2.629 -2.131,-4.76 -4.76,-4.76 z"
       fill="#2F60AC"
       id="path2"
       style="fill:#ffffff;fill-opacity:1;stroke:#ffffff;stroke-opacity:1" />
    <path
       d="m 378.448,272.392 v 0 l -26.99,11.776 -26.99,-11.776 c -1.341,-0.586 -2.865,-0.586 -4.207,0 v 0 l -26.986,11.776 -26.986,-11.776 v 0 c -1.343,-0.586 -2.866,-0.586 -4.208,0 v 0 l -26.984,11.776 -26.985,-11.776 v 0 c -1.626,-0.71 -3.501,-0.552 -4.985,0.421 -1.485,0.971 -2.379,2.626 -2.379,4.4 v 41.256 c 0,7.598 -6.183,13.781 -13.781,13.781 -7.598,0 -13.781,-6.183 -13.781,-13.781 0,-2.906 -2.355,-5.26 -5.26,-5.26 -2.906,0 -5.26,2.354 -5.26,5.26 0,13.401 10.9,24.301 24.301,24.301 13.401,0 24.301,-10.9 24.301,-24.301 v -33.221 l 21.724,9.48 h 0.001 c 1.342,0.586 2.865,0.586 4.207,0 h 0.001 l 26.984,-11.776 26.986,11.776 h 0.001 c 1.342,0.586 2.865,0.586 4.207,0 v 0 l 26.986,-11.776 26.99,11.776 c 1.341,0.586 2.866,0.586 4.207,0 l 21.73,-9.481 v 33.222 c 0,18.097 -14.725,32.822 -32.822,32.822 H 186.966 c -18.098,0 -32.822,-14.725 -32.822,-32.822 V 105.843 c 0,-13.401 -10.901,-24.3018 -24.301,-24.3018 -13.401,0 -24.302,10.9008 -24.302,24.3018 v 19.041 c 0,2.906 2.355,5.26 5.26,5.26 2.906,0 5.261,-2.354 5.261,-5.26 v -19.041 c 0,-7.5986 6.182,-13.7814 13.781,-13.7814 7.598,0 13.781,6.1828 13.781,13.7814 v 42.281 l -20.67,-9.02 v -0.001 c -1.343,-0.585 -2.866,-0.585 -4.208,0 v 0.001 l -21.7257,9.48 v -42.741 c 0,-18.0977 14.7247,-32.8221 32.8217,-32.8221 h 155.503 c 18.098,0 32.822,14.7249 32.822,32.8221 v 152.792 c 0,2.906 2.354,5.26 5.26,5.26 2.906,0 5.26,-2.354 5.26,-5.26 V 105.843 C 328.688,81.9428 309.246,62.5 285.346,62.5 H 129.843 c -23.9,0 -43.343,19.4428 -43.343,43.343 v 50.776 c 0,1.774 0.8942,3.43 2.3792,4.401 1.4849,0.973 3.3584,1.13 4.9849,0.421 h 1e-4 l 26.9848,-11.776 22.774,9.939 v 158.865 c 0,23.9 19.443,43.343 43.343,43.343 h 155.503 c 23.9,-0.001 43.343,-19.443 43.343,-43.343 v -41.256 c 0,-1.774 -0.895,-3.429 -2.379,-4.4 -1.485,-0.973 -3.358,-1.13 -4.985,-0.421 z"
       fill="#2F60AC"
       stroke="#2F60AC"
       id="path3"
       style="fill:#ffffff;fill-opacity:1;stroke:#ffffff;stroke-opacity:1" />
    <path
       d="m 235.53,85.0012 c -7.691,-0.061 -15.222,2.1983 -21.609,6.4826 -6.386,4.2844 -11.33,10.3942 -14.187,17.5322 -2.857,7.137 -3.492,14.97 -1.824,22.474 1.668,7.504 5.562,14.331 11.174,19.588 l -11.66,14.237 5.409,21.685 21.998,-26.791 c 6.964,2.058 14.374,2.058 21.338,0 l 21.998,26.791 5.409,-21.685 -11.66,-14.237 c 5.612,-5.257 9.506,-12.084 11.174,-19.588 1.668,-7.504 1.033,-15.337 -1.824,-22.474 -2.857,-7.138 -7.801,-13.2478 -14.187,-17.5322 -6.387,-4.2843 -13.918,-6.5436 -21.609,-6.4826 z m 0,64.1548 c -5.108,-0.071 -10.08,-1.65 -14.292,-4.537 -4.213,-2.888 -7.477,-6.956 -9.382,-11.693 -1.906,-4.736 -2.368,-9.93 -1.328,-14.928 1.04,-4.999 3.535,-9.578 7.172,-13.163 3.637,-3.585 8.253,-6.015 13.268,-6.9851 5.015,-0.9701 10.205,-0.4368 14.918,1.5329 4.712,1.9702 8.737,5.2882 11.568,9.5372 2.831,4.25 4.341,9.241 4.342,14.346 -0.064,6.909 -2.863,13.512 -7.785,18.364 -4.923,4.852 -11.567,7.558 -18.481,7.526 z"
       fill="#2F60AC"
       id="path4"
       style="fill:#ffffff;fill-opacity:1;stroke:#ffffff;stroke-opacity:1" />
  </g>
</svg>
