<?xml version="1.0" encoding="UTF-8" standalone="no"?>
<svg
   width="480"
   height="430"
   viewBox="0 0 480 430"
   fill="none"
   version="1.1"
   id="svg4"
   sodipodi:docname="License-Checker_w.svg"
   inkscape:version="1.4 (e7c3feb100, 2024-10-09)"
   xmlns:inkscape="http://www.inkscape.org/namespaces/inkscape"
   xmlns:sodipodi="http://sodipodi.sourceforge.net/DTD/sodipodi-0.dtd"
   xmlns="http://www.w3.org/2000/svg"
   xmlns:svg="http://www.w3.org/2000/svg">
  <sodipodi:namedview
     id="namedview4"
     pagecolor="#505050"
     bordercolor="#eeeeee"
     borderopacity="1"
     inkscape:showpageshadow="0"
     inkscape:pageopacity="0"
     inkscape:pagecheckerboard="0"
     inkscape:deskcolor="#505050"
     inkscape:zoom="3.1325581"
     inkscape:cx="240.05939"
     inkscape:cy="266.23608"
     inkscape:window-width="1920"
     inkscape:window-height="1536"
     inkscape:window-x="20"
     inkscape:window-y="20"
     inkscape:window-maximized="0"
     inkscape:current-layer="svg4" />
  <rect
     width="480"
     height="430"
     fill="#E86195"
     fill-opacity="0.32"
     id="rect1"
     style="fill:none;fill-opacity:0" />
  <g
     clip-path="url(#clip0_1547_78)"
     id="g4"
     style="fill:#ffffff;fill-opacity:1;stroke:#ffffff;stroke-opacity:1">
    <path
       d="M285.346 228.023H186.966C184.337 228.023 182.206 230.154 182.206 232.784C182.206 235.413 184.337 237.544 186.966 237.544H285.345C287.975 237.544 290.106 235.413 290.106 232.784C290.106 230.154 287.975 228.023 285.346 228.023Z"
       fill="#2F60AC"
       id="path1"
       style="fill:#ffffff;fill-opacity:1;stroke:#ffffff;stroke-opacity:1" />
    <path
       d="M285.346 202.635H186.966C184.337 202.635 182.206 204.766 182.206 207.395C182.206 210.025 184.337 212.156 186.966 212.156H285.345C287.975 212.156 290.106 210.025 290.106 207.395C290.106 204.766 287.975 202.635 285.346 202.635Z"
       fill="#2F60AC"
       id="path2"
       style="fill:#ffffff;fill-opacity:1;stroke:#ffffff;stroke-opacity:1" />
    <path
       d="M378.448 272.392L378.448 272.392L351.458 284.168L324.468 272.392C323.127 271.806 321.603 271.806 320.261 272.392L320.261 272.392L293.275 284.168L266.289 272.392L266.289 272.392C264.946 271.806 263.423 271.806 262.081 272.392L262.081 272.392L235.097 284.168L208.112 272.392L208.112 272.392C206.486 271.682 204.611 271.84 203.127 272.813C201.642 273.784 200.748 275.439 200.748 277.213V318.469C200.748 326.067 194.565 332.25 186.967 332.25C179.369 332.25 173.186 326.067 173.186 318.469C173.186 315.563 170.831 313.209 167.926 313.209C165.02 313.209 162.666 315.563 162.666 318.469C162.666 331.87 173.566 342.77 186.967 342.77C200.368 342.77 211.268 331.87 211.268 318.469V285.248L232.992 294.728L232.993 294.728C234.335 295.314 235.858 295.314 237.2 294.728L237.201 294.728L264.185 282.952L291.171 294.728L291.172 294.728C292.514 295.314 294.037 295.314 295.379 294.728L295.379 294.728L322.365 282.952L349.355 294.728C350.696 295.314 352.221 295.314 353.562 294.728L375.292 285.247V318.469C375.292 336.566 360.567 351.291 342.47 351.291H186.966C168.868 351.291 154.144 336.566 154.144 318.469V105.843C154.144 92.442 143.243 81.5412 129.843 81.5412C116.442 81.5412 105.541 92.442 105.541 105.843V124.884C105.541 127.79 107.896 130.144 110.801 130.144C113.707 130.144 116.062 127.79 116.062 124.884V105.843C116.062 98.2444 122.244 92.0616 129.843 92.0616C137.441 92.0616 143.624 98.2444 143.624 105.843V148.124L122.954 139.104L122.954 139.103C121.611 138.518 120.088 138.518 118.746 139.103L118.746 139.104L97.0203 148.584V105.843C97.0203 87.7453 111.745 73.0209 129.842 73.0209H285.345C303.443 73.0209 318.167 87.7458 318.167 105.843V258.635C318.167 261.541 320.521 263.895 323.427 263.895C326.333 263.895 328.687 261.541 328.687 258.635V105.843C328.688 81.9428 309.246 62.5 285.346 62.5H129.843C105.943 62.5 86.5 81.9428 86.5 105.843V156.619C86.5 158.393 87.3942 160.049 88.8792 161.02C90.3641 161.993 92.2376 162.15 93.8641 161.441L93.8642 161.441L120.849 149.665L143.623 159.604V318.469C143.623 342.369 163.066 361.812 186.966 361.812H342.469C366.369 361.811 385.812 342.369 385.812 318.469V277.213C385.812 275.439 384.917 273.784 383.433 272.813C381.948 271.84 380.075 271.683 378.448 272.392Z"
       fill="#2F60AC"
       stroke="#2F60AC"
       id="path3"
       style="fill:#ffffff;fill-opacity:1;stroke:#ffffff;stroke-opacity:1" />
    <path
       d="M235.53 85.0012C227.839 84.9402 220.308 87.1995 213.921 91.4838C207.535 95.7682 202.591 101.878 199.734 109.016C196.877 116.153 196.242 123.986 197.91 131.49C199.578 138.994 203.472 145.821 209.084 151.078L197.424 165.315L202.833 187L224.831 160.209C231.795 162.267 239.205 162.267 246.169 160.209L268.167 187L273.576 165.315L261.916 151.078C267.528 145.821 271.422 138.994 273.09 131.49C274.758 123.986 274.123 116.153 271.266 109.016C268.409 101.878 263.465 95.7682 257.079 91.4838C250.692 87.1995 243.161 84.9402 235.47 85.0012H235.53ZM235.53 149.156C230.422 149.085 225.45 147.506 221.238 144.619C217.025 141.731 213.761 137.663 211.856 132.926C209.95 128.19 209.488 122.996 210.528 117.998C211.568 112.999 214.063 108.42 217.7 104.835C221.337 101.25 225.953 98.82 230.968 97.8499C235.983 96.8798 241.173 97.4131 245.886 99.3828C250.598 101.353 254.623 104.671 257.454 108.92C260.285 113.17 261.795 118.161 261.796 123.266C261.732 130.175 258.933 136.778 254.011 141.63C249.088 146.482 242.444 149.188 235.53 149.156Z"
       fill="#2F60AC"
       id="path4"
       style="fill:#ffffff;fill-opacity:1;stroke:#ffffff;stroke-opacity:1" />
  </g>
  <defs
     id="defs4">
    <clipPath
       id="clip0_1547_78">
      <rect
         width="323"
         height="323"
         fill="white"
         transform="translate(87 63)"
         id="rect4" />
    </clipPath>
  </defs>
</svg>
