<svg width="518" height="518" viewBox="0 0 518 518" fill="none" xmlns="http://www.w3.org/2000/svg">
<circle cx="259" cy="259" r="259" fill="#2F60AC"/>
<ellipse cx="260.5" cy="262" rx="239.5" ry="240" fill="white"/>
<path d="M239.994 323.596C239.994 325.671 239.911 327.456 239.745 328.95C239.662 330.361 239.496 331.606 239.247 332.685C238.998 333.681 238.666 334.553 238.251 335.3C237.836 336.047 237.172 336.918 236.259 337.915C235.346 338.828 233.561 340.031 230.905 341.525C228.332 343.02 225.136 344.472 221.317 345.883C217.582 347.211 213.266 348.332 208.368 349.245C203.554 350.158 198.324 350.615 192.68 350.615C181.64 350.615 171.679 348.913 162.797 345.51C153.915 342.106 146.361 337.043 140.136 330.319C133.91 323.513 129.137 315.046 125.817 304.919C122.497 294.792 120.836 283.005 120.836 269.558C120.836 255.861 122.663 243.701 126.315 233.076C129.967 222.451 135.072 213.527 141.63 206.306C148.188 199.084 156.032 193.605 165.163 189.87C174.376 186.135 184.503 184.267 195.543 184.267C200.026 184.267 204.342 184.641 208.493 185.388C212.643 186.135 216.461 187.131 219.948 188.376C223.517 189.538 226.713 190.908 229.535 192.485C232.357 194.062 234.308 195.432 235.387 196.594C236.549 197.673 237.338 198.586 237.753 199.333C238.168 200.08 238.5 201.035 238.749 202.197C238.998 203.359 239.164 204.729 239.247 206.306C239.413 207.883 239.496 209.833 239.496 212.158C239.496 214.648 239.413 216.765 239.247 218.508C239.081 220.251 238.791 221.662 238.375 222.741C237.96 223.82 237.462 224.609 236.881 225.107C236.3 225.605 235.636 225.854 234.889 225.854C233.644 225.854 232.067 225.148 230.158 223.737C228.249 222.243 225.758 220.625 222.687 218.881C219.699 217.055 216.088 215.437 211.854 214.025C207.704 212.531 202.724 211.784 196.913 211.784C190.521 211.784 184.794 213.112 179.73 215.769C174.75 218.342 170.475 222.077 166.906 226.975C163.419 231.789 160.763 237.641 158.937 244.531C157.111 251.42 156.198 259.182 156.198 267.814C156.198 277.277 157.152 285.495 159.062 292.468C161.054 299.357 163.834 305.043 167.404 309.526C171.056 314.008 175.414 317.37 180.478 319.611C185.624 321.77 191.393 322.849 197.785 322.849C203.595 322.849 208.617 322.185 212.851 320.856C217.084 319.445 220.695 317.91 223.683 316.25C226.754 314.589 229.245 313.095 231.154 311.767C233.146 310.439 234.682 309.775 235.761 309.775C236.591 309.775 237.255 309.941 237.753 310.273C238.251 310.605 238.666 311.269 238.998 312.265C239.33 313.261 239.579 314.672 239.745 316.499C239.911 318.242 239.994 320.607 239.994 323.596ZM395.365 323.596C395.365 325.671 395.282 327.456 395.116 328.95C395.033 330.361 394.867 331.606 394.618 332.685C394.369 333.681 394.037 334.553 393.622 335.3C393.207 336.047 392.543 336.918 391.629 337.915C390.716 338.828 388.932 340.031 386.275 341.525C383.702 343.02 380.506 344.472 376.688 345.883C372.953 347.211 368.636 348.332 363.739 349.245C358.924 350.158 353.695 350.615 348.05 350.615C337.01 350.615 327.049 348.913 318.168 345.51C309.286 342.106 301.732 337.043 295.506 330.319C289.281 323.513 284.508 315.046 281.188 304.919C277.867 294.792 276.207 283.005 276.207 269.558C276.207 255.861 278.033 243.701 281.686 233.076C285.338 222.451 290.443 213.527 297.001 206.306C303.558 199.084 311.402 193.605 320.533 189.87C329.747 186.135 339.874 184.267 350.914 184.267C355.397 184.267 359.713 184.641 363.863 185.388C368.014 186.135 371.832 187.131 375.318 188.376C378.888 189.538 382.084 190.908 384.906 192.485C387.728 194.062 389.679 195.432 390.758 196.594C391.92 197.673 392.709 198.586 393.124 199.333C393.539 200.08 393.871 201.035 394.12 202.197C394.369 203.359 394.535 204.729 394.618 206.306C394.784 207.883 394.867 209.833 394.867 212.158C394.867 214.648 394.784 216.765 394.618 218.508C394.452 220.251 394.161 221.662 393.746 222.741C393.331 223.82 392.833 224.609 392.252 225.107C391.671 225.605 391.007 225.854 390.26 225.854C389.015 225.854 387.438 225.148 385.528 223.737C383.619 222.243 381.129 220.625 378.058 218.881C375.069 217.055 371.459 215.437 367.225 214.025C363.075 212.531 358.094 211.784 352.284 211.784C345.892 211.784 340.165 213.112 335.101 215.769C330.121 218.342 325.846 222.077 322.276 226.975C318.79 231.789 316.134 237.641 314.308 244.531C312.482 251.42 311.568 259.182 311.568 267.814C311.568 277.277 312.523 285.495 314.432 292.468C316.424 299.357 319.205 305.043 322.775 309.526C326.427 314.008 330.785 317.37 335.848 319.611C340.995 321.77 346.764 322.849 353.155 322.849C358.966 322.849 363.988 322.185 368.221 320.856C372.455 319.445 376.066 317.91 379.054 316.25C382.125 314.589 384.615 313.095 386.525 311.767C388.517 310.439 390.052 309.775 391.131 309.775C391.962 309.775 392.626 309.941 393.124 310.273C393.622 310.605 394.037 311.269 394.369 312.265C394.701 313.261 394.95 314.672 395.116 316.499C395.282 318.242 395.365 320.607 395.365 323.596Z" fill="#2F60AC"/>
</svg>
