<svg width="104" height="123" viewBox="0 0 104 123" fill="none" xmlns="http://www.w3.org/2000/svg">
<path d="M38.75 30.0625V23.5469C38.75 12.7515 44.5841 4 51.7812 4C58.9784 4 64.8125 12.7515 64.8125 23.5469V30.0625" stroke="#2F60AC" stroke-width="7" stroke-linecap="round"/>
<path d="M7.97862 111.089C14.3415 118.938 26.1839 118.938 49.8684 118.938H53.6937C77.3784 118.938 89.2213 118.938 95.584 111.089M7.97862 111.089C1.61577 103.241 3.79818 91.3254 8.16299 67.495C11.267 50.548 12.8191 42.0745 18.7113 37.0685M95.584 111.089C101.947 103.241 99.7642 91.3254 95.3995 67.495C92.2955 50.548 90.7436 42.0745 84.8513 37.0685M84.8513 37.0685C78.959 32.0625 70.5372 32.0625 53.6937 32.0625H49.8684C33.0253 32.0625 24.6036 32.0625 18.7113 37.0685" stroke="#2F60AC" stroke-width="7"/>
<path d="M68.8516 65.8401V65.4188C68.8516 60.0672 64.4716 55.7289 59.0685 55.7289H44.0599C38.422 55.7289 33.8516 60.2558 33.8516 65.8401C33.8516 71.4243 38.422 75.9512 44.0599 75.9512H58.6432C64.2811 75.9512 68.8516 80.4781 68.8516 86.0623C68.8516 91.6465 64.2811 96.1734 58.6432 96.1734H43.8472C38.3268 96.1734 33.8516 91.7407 33.8516 86.2729V86.0623M51.3516 49.9512V101.951" stroke="#2F60AC" stroke-width="5" stroke-linecap="round" stroke-linejoin="round"/>
</svg>
