<svg width="617" height="496" viewBox="0 0 617 496" fill="none" xmlns="http://www.w3.org/2000/svg">
<path d="M531.5 249.5C531.5 377.253 423.761 481.5 290 481.5C156.239 481.5 48.5 377.253 48.5 249.5C48.5 121.747 156.239 17.5 290 17.5C423.761 17.5 531.5 121.747 531.5 249.5Z" fill="white" stroke="#2F60AC" stroke-width="21"/>
<path d="M388.351 436.37C383.896 437.096 379.422 436.042 375.752 433.397L264.209 352.697C256.657 347.205 254.92 336.553 260.326 328.963L289.685 287.961C291.498 285.429 294.74 284.368 297.699 285.354C300.648 286.338 302.625 289.132 302.586 292.252C302.556 294.33 302.659 295.977 302.897 297.439C305.415 312.886 320.016 323.677 335.393 321.171C350.783 318.662 359.93 304 357.413 288.553C354.891 273.085 341.603 262.341 326.213 264.849C324.772 265.084 323.194 265.511 321.243 266.196C318.289 267.257 315.048 266.227 313.184 263.729C311.319 261.224 311.286 257.793 313.099 255.261L340.47 217.019C345.777 209.641 356.743 207.868 364.086 213.156L391.98 233.35C394.436 216.908 407.187 203.184 424.369 200.383C445.672 196.911 465.847 211.513 469.338 232.93C472.152 250.199 463.263 266.711 448.526 274.267L475.618 293.856C483.185 299.347 484.921 309.999 479.495 317.599L439.43 373.566L399.365 429.533C396.713 433.224 392.805 435.644 388.351 436.37ZM291.713 309.646L271.9 337.312C271.047 338.513 271.325 340.222 272.532 341.102L384.04 421.781C385.603 422.9 386.663 422.742 387.81 421.152L467.923 309.24C468.783 308.03 468.506 306.336 467.299 305.456L427.975 277.023C425.514 275.242 424.437 272.091 425.3 269.177C426.163 266.264 428.737 264.199 431.801 264.076L432.895 264.039C433.498 264.024 434.105 264.027 434.723 263.926C448.28 261.717 457.502 248.843 455.282 235.225C453.06 221.593 440.225 212.301 426.668 214.51C413.119 216.719 403.899 229.606 406.121 243.238C406.213 243.803 406.39 244.34 406.558 244.881L406.914 246.117C407.306 247.545 407.248 249.06 406.746 250.451C406.245 251.843 405.327 253.044 404.117 253.887C401.656 255.604 398.348 255.578 395.899 253.809L355.792 224.776C354.229 223.657 353.169 223.815 352.021 225.405L334.19 250.312C353.217 251.883 368.244 266.501 371.466 286.266C375.253 309.505 360.828 331.523 337.691 335.294C318.032 338.495 299.227 327.272 291.713 309.646Z" fill="#2F60AC"/>
<path d="M97.4022 196.224C96.9112 192.292 97.982 188.401 100.423 185.268L174.877 90.0536C179.943 83.6075 189.345 82.4332 195.827 87.4243L230.836 114.525C232.998 116.198 233.823 119.077 232.861 121.641C231.901 124.196 229.385 125.839 226.649 125.702C224.827 125.608 223.379 125.644 222.089 125.805C208.454 127.508 198.508 139.965 200.203 153.537C201.9 167.122 214.464 175.627 228.098 173.924C241.751 172.219 251.613 160.913 249.916 147.328C249.757 146.057 249.434 144.658 248.898 142.924C248.063 140.298 249.073 137.488 251.326 135.935C253.585 134.38 256.596 134.464 258.758 136.137L291.411 161.403C297.71 166.301 298.906 175.98 294.027 182.248L275.396 206.059C289.741 208.752 301.364 220.388 303.258 235.555C305.606 254.358 292.134 271.579 273.231 273.94C257.988 275.844 243.793 267.504 237.646 254.327L219.573 277.454C214.508 283.913 205.106 285.087 198.616 280.078L103.039 206.111C99.8883 203.664 97.8932 200.156 97.4022 196.224ZM211.745 115.593L188.123 97.3052C187.097 96.5169 185.588 96.7053 184.777 97.7354L110.342 192.92C109.309 194.255 109.413 195.19 110.771 196.249L206.329 270.199C207.362 270.993 208.858 270.806 209.669 269.776L235.902 236.207C237.545 234.106 240.345 233.265 242.873 234.118C245.401 234.97 247.128 237.296 247.135 239.988L247.132 240.949C247.125 241.479 247.103 242.011 247.171 242.556C248.665 254.522 259.657 263.035 271.677 261.534C283.71 260.031 292.283 249.075 290.788 237.109C289.294 225.149 278.29 216.638 266.258 218.141C265.759 218.203 265.283 218.341 264.802 218.471L263.706 218.743C262.44 219.04 261.114 218.939 259.909 218.454C258.705 217.968 257.681 217.123 256.981 216.034C255.555 213.819 255.687 210.918 257.319 208.827L284.104 174.592C285.137 173.257 285.033 172.322 283.676 171.263L262.409 154.803C260.407 171.445 247.09 184.149 229.644 186.328C209.132 188.89 190.288 175.513 187.737 155.091C185.573 137.738 196.035 121.608 211.745 115.593Z" fill="#2F60AC"/>
</svg>
