<svg width="381" height="342" viewBox="0 0 381 342" fill="none" xmlns="http://www.w3.org/2000/svg">
<g clip-path="url(#clip0_1244_355)">
<path d="M96.7383 171L190.5 86.8361L284.262 171L190.5 255.164L96.7383 171Z" fill="white" stroke="#2F60AC" stroke-width="2"/>
<path d="M190.499 320.625C187.242 320.63 184.015 320.058 181.005 318.94C177.995 317.822 175.261 316.182 172.959 314.112L31.0677 186.745C26.4218 182.566 23.8125 176.904 23.8125 171C23.8125 165.096 26.4218 159.434 31.0677 155.255L172.959 27.888C177.614 23.7177 183.923 21.3755 190.499 21.3755C197.076 21.3755 203.385 23.7177 208.04 27.888L349.931 155.255C354.577 159.434 357.187 165.096 357.187 171C357.187 176.904 354.577 182.566 349.931 186.745L208.04 314.112C205.738 316.182 203.004 317.822 199.994 318.94C196.984 320.058 193.757 320.63 190.499 320.625ZM190.499 42.7415C190.236 42.7419 189.983 42.8356 189.796 43.0023L47.9055 170.368C47.7195 170.536 47.6151 170.763 47.6151 171C47.6151 171.237 47.7195 171.464 47.9055 171.632L189.796 298.998C189.983 299.164 190.236 299.257 190.499 299.257C190.763 299.257 191.016 299.164 191.203 298.998L333.094 171.632C333.279 171.464 333.384 171.237 333.384 171C333.384 170.763 333.279 170.536 333.094 170.368L191.203 43.0023C191.016 42.8356 190.763 42.7419 190.499 42.7415Z" fill="#2F60AC"/>
</g>
<defs>
<clipPath id="clip0_1244_355">
<rect width="381" height="342" fill="white"/>
</clipPath>
</defs>
</svg>
