<svg width="800" height="800" viewBox="0 0 800 800" fill="none" xmlns="http://www.w3.org/2000/svg">
<path d="M316.5 300C316.5 281.585 348.254 251.688 366.657 251.688H433.334C450.237 251.688 470.634 263 464.594 276.029C468.287 278.984 470.257 275.438 470.634 276.029C479.124 291.863 498.734 284.117 514.907 276.029C531.03 267.968 537.87 267.791 529.78 251.688C527.957 248.076 525.707 244.69 523.28 241.458C519.53 236.459 513.98 230.162 506.24 223.971C490.34 211.25 466.43 200 433.334 200H366.657C311.424 200 266.667 244.777 266.667 300V499.997C266.667 555.22 311.425 599.997 366.66 599.997H433.334C466.43 600 490.337 588.75 506.24 576.03C513.98 569.837 519.53 563.54 523.28 558.543C525.714 555.3 527.964 551.893 529.797 548.277C537.934 532.017 531.18 532.107 514.907 523.97C498.734 515.88 479.124 501.73 470.634 517.563C470.257 518.153 468.287 521.017 464.594 523.97C464.594 535 450.237 548.28 433.334 548.277H366.66C348.254 548.277 316.5 518.413 316.5 499.997V395V300Z" fill="#2F60AC"/>
<path fill-rule="evenodd" clip-rule="evenodd" d="M400 766.667C602.503 766.667 766.666 602.503 766.666 400C766.666 197.496 602.503 33.3333 400 33.3333C197.495 33.3333 33.333 197.496 33.333 400C33.333 602.503 197.495 766.667 400 766.667ZM400 714.5C234.44 714.5 89 565.56 89 400C89 234.44 234.44 80 400 80C565.56 80 713.5 234.44 713.5 400C713.5 565.56 565.56 714.5 400 714.5Z" fill="#2F60AC"/>
</svg>
