<?xml version="1.0" encoding="UTF-8" standalone="no"?>
<!-- Created with Inkscape (http://www.inkscape.org/) -->

<svg
   width="89.505714mm"
   height="24.886848mm"
   viewBox="0 0 89.505714 24.886848"
   version="1.1"
   id="svg1"
   xml:space="preserve"
   inkscape:version="1.4.2 (ebf0e940, 2025-05-08)"
   sodipodi:docname="DFG_logo.svg"
   xmlns:inkscape="http://www.inkscape.org/namespaces/inkscape"
   xmlns:sodipodi="http://sodipodi.sourceforge.net/DTD/sodipodi-0.dtd"
   xmlns="http://www.w3.org/2000/svg"
   xmlns:svg="http://www.w3.org/2000/svg"><sodipodi:namedview
     id="namedview1"
     pagecolor="#505050"
     bordercolor="#ffffff"
     borderopacity="1"
     inkscape:showpageshadow="0"
     inkscape:pageopacity="0"
     inkscape:pagecheckerboard="1"
     inkscape:deskcolor="#505050"
     inkscape:document-units="mm"
     inkscape:zoom="0.89887065"
     inkscape:cx="260.32667"
     inkscape:cy="452.23414"
     inkscape:window-width="2640"
     inkscape:window-height="1186"
     inkscape:window-x="0"
     inkscape:window-y="25"
     inkscape:window-maximized="0"
     inkscape:current-layer="g1"><inkscape:page
       x="0"
       y="0"
       width="89.505714"
       height="24.886847"
       id="page1"
       margin="0"
       bleed="0" /><inkscape:page
       x="179.554"
       y="-14.770457"
       width="89.506775"
       height="26.158472"
       id="page2"
       margin="0"
       bleed="0" /></sodipodi:namedview><defs
     id="defs1" /><g
     inkscape:label="Layer 1"
     inkscape:groupmode="layer"
     id="layer1"
     transform="translate(-40.445996,-14.770458)" /><g
     id="g1"
     inkscape:groupmode="layer"
     inkscape:label="1"
     transform="matrix(0.26458333,0,0,0.26458334,179.55401,-14.770458)"><g
       id="group-R5"
       transform="translate(-678.62935,54.512848)"
       style="fill:#ffffff;fill-opacity:1;stroke:none;stroke-opacity:1"><path
         id="path2"
         d="m 0,229.133 h 150.48 c 39.79,0 74.364,8.531 98.875,30.152 24.512,21.602 39.532,56.52 39.571,110.75 -0.02,58.242 -14.043,93.613 -37.383,114.559 -23.34,20.969 -56.762,28.008 -96.641,28 v 0.008 H 0 v -61.219 h 104.691 26.508 c 19.879,0.105 33.469,-6.945 41.149,-20.586 7.703,-13.535 10.011,-32.793 10.039,-57.863 -0.028,-24.227 -2.137,-43.27 -9.668,-56.817 -7.52,-13.621 -21.02,-20.918 -41.117,-20.801 H 101.711 V 395.66 H 0 V 229.133"
         style="fill:#ffffff;fill-opacity:1;fill-rule:nonzero;stroke:none;stroke-opacity:1"
         transform="matrix(0.13333333,0,0,-0.13333333,0,98.866667)" /><path
         id="path3"
         d="M 311.016,229.133 H 412.715 V 331.957 H 539.438 V 395.66 H 412.715 v 55.723 h 126.723 v 61.219 H 311.016 V 229.133"
         style="fill:#ffffff;fill-opacity:1;fill-rule:nonzero;stroke:none;stroke-opacity:1"
         transform="matrix(0.13333333,0,0,-0.13333333,0,98.866667)" /><path
         id="path4"
         d="m 609.477,481.82 c -30.059,-23.769 -49.043,-59.109 -49.082,-106.816 0.039,-50.918 18.32,-88.348 47.949,-113.356 29.648,-24.976 70.918,-37.5 116.992,-37.5 43.144,0.024 77.246,4.36 113.125,15 v 130.809 h -86.426 v -76.184 l -1.914,-0.742 c -7.266,-2.773 -16.328,-2.656 -23.984,-2.695 -22.285,-0.059 -38.164,9.258 -47.91,23.703 -9.766,14.422 -13.692,33.641 -13.711,53.926 -0.02,26.961 9.14,48.086 25.371,62.207 16.211,14.129 39.16,21.211 66.386,21.211 27.832,0 49.766,-6.262 65.372,-14.485 v 70.528 c -25.704,6.281 -45.274,10.129 -96.309,10.148 h -0.02 c -44.453,0 -85.781,-12.011 -115.839,-35.754"
         style="fill:#ffffff;fill-opacity:1;fill-rule:nonzero;stroke:none;stroke-opacity:1"
         transform="matrix(0.13333333,0,0,-0.13333333,0,98.866667)" /><path
         id="path5"
         d="m 993.52,417.555 h 8.28 c 30.8,-0.684 46.62,13.984 47.42,43.984 -0.23,15.77 -4.2,26.895 -11.89,33.379 -7.83,6.18 -17.56,9.227 -29.16,9.129 h -14.65 z m -9.903,95.39 h 25.003 c 17.95,-0.195 30.92,-5.019 38.92,-14.453 7.84,-9.484 11.68,-21.992 11.59,-37.512 -0.18,-18.632 -5.65,-32.039 -16.39,-40.203 -10.59,-8.086 -24.41,-12.121 -41.47,-12.121 h -17.653 v 104.289"
         style="fill:#ffffff;fill-opacity:1;fill-rule:nonzero;stroke:none;stroke-opacity:1"
         transform="matrix(0.13333333,0,0,-0.13333333,0,98.866667)" /><path
         id="path6"
         d="m 1128.19,452.066 c 0,7.012 -1.43,13.125 -4.26,18.36 -2.97,5.293 -7.87,8.027 -14.67,8.222 -6.66,-0.195 -11.91,-2.988 -15.8,-8.359 -3.96,-5.441 -5.94,-11.504 -5.94,-18.223 z m 4.41,-41.035 c -6.91,-2.707 -14.06,-4.101 -21.4,-4.199 -12.07,0.242 -20.73,4.082 -25.96,11.531 -5.18,7.297 -7.74,16.758 -7.64,28.391 0.1,11.875 2.99,21.484 8.69,28.828 5.51,7.293 12.99,10.996 22.41,11.094 10.31,-0.196 17.85,-3.946 22.61,-11.242 4.52,-7.157 6.78,-16.004 6.78,-26.563 v -4.812 h -50.57 c 0,-8.301 2.07,-15.129 6.23,-20.489 4.05,-5.722 10.1,-8.613 18.11,-8.711 3.59,0 7.36,0.653 11.33,1.973 3.96,1.074 7.11,2.313 9.41,3.731 v -9.532"
         style="fill:#ffffff;fill-opacity:1;fill-rule:nonzero;stroke:none;stroke-opacity:1"
         transform="matrix(0.13333333,0,0,-0.13333333,0,98.866667)" /><path
         id="path7"
         d="m 1215.38,426.598 c -0.1,-5.782 0.09,-11.758 0.62,-17.942 h -8.83 v 13.567 h -0.29 c -0.66,-1.653 -1.58,-3.332 -2.75,-5.032 -1.14,-1.804 -2.62,-3.503 -4.46,-5.105 -1.83,-1.504 -4.1,-2.695 -6.83,-3.574 -2.7,-1.114 -5.96,-1.68 -9.83,-1.68 -8.94,0.098 -15.39,2.891 -19.33,8.398 -3.97,5.391 -5.9,12.383 -5.8,20.938 v 48.68 h 9.04 v -46.317 c 0,-7.304 1.39,-13.008 4.18,-17.101 2.73,-4.383 7.19,-6.571 13.38,-6.571 4.14,0 7.65,0.899 10.52,2.696 2.93,1.707 5.16,3.894 6.67,6.582 1.73,2.773 2.94,5.761 3.61,8.984 0.7,3.164 1.05,6.348 1.05,9.57 v 42.157 h 9.05 v -58.25"
         style="fill:#ffffff;fill-opacity:1;fill-rule:nonzero;stroke:none;stroke-opacity:1"
         transform="matrix(0.13333333,0,0,-0.13333333,0,98.866667)" /><path
         id="path8"
         d="m 1272.74,476.832 h -16.78 v -49.414 c 0,-3.496 0.76,-6.445 2.33,-8.84 1.42,-2.488 3.92,-3.719 7.52,-3.719 3.3,0 6.11,0.606 8.41,1.817 l 0.57,-7.746 c -1.07,-0.379 -2.58,-0.821 -4.51,-1.297 -2.03,-0.528 -4.24,-0.801 -6.64,-0.801 -3.95,0 -7.07,0.703 -9.38,2.117 -2.22,1.418 -3.88,3.254 -5.02,5.547 -0.97,2.383 -1.62,5.059 -1.89,8.027 -0.29,3.02 -0.43,6.282 -0.43,9.778 v 44.531 h -14.47 v 8.016 h 14.47 v 18.39 l 9.04,3.282 v -21.672 h 16.78 v -8.016"
         style="fill:#ffffff;fill-opacity:1;fill-rule:nonzero;stroke:none;stroke-opacity:1"
         transform="matrix(0.13333333,0,0,-0.13333333,0,98.866667)" /><path
         id="path9"
         d="m 1285.12,419.684 c 5.61,-3.125 11.99,-4.727 19.2,-4.825 4.57,0 8.42,1.231 11.58,3.719 3.11,2.297 4.71,5.578 4.81,9.863 -0.1,4.532 -1.9,8.086 -5.37,10.676 -3.5,2.481 -7.6,4.715 -12.31,6.719 -2.2,1.074 -4.33,2.207 -6.35,3.437 -2.03,1.211 -3.96,2.547 -5.8,4.004 -1.64,1.621 -3,3.465 -4.1,5.567 -1.03,1.992 -1.54,4.324 -1.54,7.011 0.1,7.598 2.58,12.969 7.48,16.141 4.75,3.117 10.25,4.68 16.52,4.68 2.11,0 4.87,-0.196 8.26,-0.586 3.34,-0.578 6.65,-1.524 9.95,-2.824 l -0.84,-8.192 c -5.34,2.285 -10.8,3.477 -16.43,3.574 -4.71,0 -8.46,-0.878 -11.25,-2.628 -1.44,-0.926 -2.58,-2.196 -3.38,-3.797 -0.86,-1.563 -1.29,-3.653 -1.29,-6.289 0,-1.555 0.55,-3.047 1.64,-4.454 1.04,-1.308 2.43,-2.5 4.16,-3.574 1.76,-1.027 3.73,-2.07 5.94,-3.144 2.23,-1.028 4.4,-2.121 6.5,-3.282 4.83,-2.109 9.01,-4.902 12.6,-8.41 3.58,-3.504 5.41,-8.347 5.51,-14.539 0,-3.996 -0.78,-7.324 -2.32,-10.011 -1.64,-2.774 -3.71,-5.008 -6.21,-6.719 -5.41,-3.309 -11.14,-4.969 -17.21,-4.969 -7.09,0 -13.97,1.211 -20.59,3.613 l 0.84,9.239"
         style="fill:#ffffff;fill-opacity:1;fill-rule:nonzero;stroke:none;stroke-opacity:1"
         transform="matrix(0.13333333,0,0,-0.13333333,0,98.866667)" /><path
         id="path10"
         d="m 1396.94,474.77 c -5.24,2.492 -10.51,3.781 -15.84,3.878 -8.87,-0.097 -15.65,-3.027 -20.37,-8.769 -4.94,-5.91 -7.42,-13.613 -7.42,-23.125 0,-8.879 2.44,-16.32 7.28,-22.316 4.73,-6.297 11.23,-9.481 19.53,-9.579 5.71,0 11.25,1.141 16.68,3.438 l 0.84,-8.789 c -5.97,-1.875 -12.28,-2.774 -18.92,-2.676 -11.86,0.242 -20.71,4.277 -26.49,12.109 -5.9,7.696 -8.83,16.961 -8.83,27.813 0.1,12.07 3.46,21.68 10.1,28.828 6.6,7.293 15.37,10.996 26.35,11.094 4.53,0 8.28,-0.344 11.31,-1.016 1.54,-0.293 2.89,-0.605 4.02,-0.937 1.07,-0.391 1.91,-0.723 2.46,-1.016 l -0.7,-8.937"
         style="fill:#ffffff;fill-opacity:1;fill-rule:nonzero;stroke:none;stroke-opacity:1"
         transform="matrix(0.13333333,0,0,-0.13333333,0,98.866667)" /><path
         id="path11"
         d="m 1415.28,520.758 h 9.04 v -48.692 h 0.27 c 2.04,4.258 5.02,7.793 8.99,10.606 3.94,2.578 8.61,3.906 13.98,4.004 9.85,-0.098 16.55,-3.098 20.14,-8.985 3.48,-5.976 5.18,-13.789 5.08,-23.418 v -45.617 h -9.04 v 45.52 c 0,3.359 -0.18,6.551 -0.57,9.57 -0.41,2.871 -1.25,5.41 -2.48,7.598 -2.31,4.773 -7.15,7.207 -14.49,7.304 -7.93,-0.195 -13.6,-3.339 -17,-9.425 -3.36,-6.082 -4.98,-12.664 -4.88,-19.727 v -40.84 h -9.04 v 112.102"
         style="fill:#ffffff;fill-opacity:1;fill-rule:nonzero;stroke:none;stroke-opacity:1"
         transform="matrix(0.13333333,0,0,-0.13333333,0,98.866667)" /><path
         id="path12"
         d="m 1543.42,452.066 c 0,7.012 -1.4,13.125 -4.24,18.36 -2.98,5.293 -7.87,8.027 -14.66,8.222 -6.66,-0.195 -11.94,-2.988 -15.8,-8.359 -3.97,-5.441 -5.96,-11.504 -5.96,-18.223 z m 4.44,-41.035 c -6.94,-2.707 -14.07,-4.101 -21.43,-4.199 -12.07,0.242 -20.7,4.082 -25.94,11.531 -5.19,7.297 -7.73,16.758 -7.63,28.391 0.09,11.875 2.98,21.484 8.69,28.828 5.51,7.293 12.97,10.996 22.4,11.094 10.31,-0.196 17.85,-3.946 22.6,-11.242 4.53,-7.157 6.79,-16.004 6.79,-26.563 v -4.812 h -50.58 c 0,-8.301 2.09,-15.129 6.23,-20.489 4.06,-5.722 10.1,-8.613 18.12,-8.711 3.6,0 7.37,0.653 11.33,1.973 3.97,1.074 7.11,2.313 9.42,3.731 v -9.532"
         style="fill:#ffffff;fill-opacity:1;fill-rule:nonzero;stroke:none;stroke-opacity:1"
         transform="matrix(0.13333333,0,0,-0.13333333,0,98.866667)" /><path
         id="path13"
         d="m 983.168,333.59 h 48.012 v -8.899 h -38.09 v -37.304 h 36.33 v -8.879 h -36.33 v -49.203 h -9.922 V 333.59"
         style="fill:#ffffff;fill-opacity:1;fill-rule:nonzero;stroke:none;stroke-opacity:1"
         transform="matrix(0.13333333,0,0,-0.13333333,0,98.866667)" /><path
         id="path14"
         d="m 1054.03,267.391 c 0,-9.063 2.13,-16.563 6.37,-22.461 4.06,-6.192 10.11,-9.336 18.16,-9.434 8.03,0.098 14.16,3.242 18.42,9.434 4.06,5.898 6.09,13.398 6.09,22.461 0,9.121 -2.03,16.714 -6.09,22.761 -4.26,5.996 -10.39,9.043 -18.42,9.141 -8.05,-0.098 -14.1,-3.145 -18.16,-9.141 -4.24,-6.047 -6.37,-13.64 -6.37,-22.761 z m -9.92,0 c 0,10.863 2.81,20.125 8.41,27.808 5.55,7.883 14.22,11.926 26,12.121 11.95,-0.195 20.74,-4.238 26.35,-12.121 5.41,-7.683 8.12,-16.945 8.12,-27.808 0,-10.645 -2.71,-19.864 -8.12,-27.657 -5.61,-7.929 -14.4,-12.011 -26.35,-12.265 -11.78,0.254 -20.45,4.336 -26,12.265 -5.6,7.793 -8.41,17.012 -8.41,27.657"
         style="fill:#ffffff;fill-opacity:1;fill-rule:nonzero;stroke:none;stroke-opacity:1"
         transform="matrix(0.13333333,0,0,-0.13333333,0,98.866667)" /><path
         id="path15"
         d="m 1132.93,288.492 c 0,7.051 -0.19,12.715 -0.56,17 h 9.04 v -14.59 h 0.27 c 1.74,4.473 4.2,8.293 7.37,11.457 3.1,3.204 6.97,4.864 11.58,4.961 2.4,-0.097 4.53,-0.39 6.37,-0.871 v -9.785 c -2.03,0.586 -4.24,0.879 -6.64,0.879 -3.6,-0.098 -6.55,-0.996 -8.85,-2.703 -2.31,-1.797 -4.2,-4.238 -5.65,-7.305 -1.38,-3.019 -2.34,-6.258 -2.91,-9.715 -0.66,-3.711 -0.99,-7.304 -0.99,-10.816 v -37.699 h -9.03 v 59.187"
         style="fill:#ffffff;fill-opacity:1;fill-rule:nonzero;stroke:none;stroke-opacity:1"
         transform="matrix(0.13333333,0,0,-0.13333333,0,98.866667)" /><path
         id="path16"
         d="m 1177.04,240.32 c 5.6,-3.125 11.99,-4.726 19.2,-4.824 4.57,0 8.41,1.25 11.58,3.731 3.1,2.285 4.7,5.57 4.8,9.867 -0.1,4.527 -1.89,8.086 -5.37,10.664 -3.5,2.476 -7.6,4.722 -12.3,6.715 -2.21,1.078 -4.34,2.226 -6.35,3.437 -2.03,1.211 -3.97,2.559 -5.8,4.024 -1.64,1.601 -3.01,3.457 -4.1,5.546 -1.04,1.993 -1.55,4.333 -1.55,7.02 0.1,7.598 2.58,12.977 7.48,16.141 4.75,3.117 10.26,4.679 16.53,4.679 2.11,0 4.86,-0.195 8.26,-0.586 3.34,-0.578 6.64,-1.523 9.94,-2.824 l -0.84,-8.191 c -5.33,2.285 -10.8,3.476 -16.43,3.574 -4.7,0 -8.45,-0.871 -11.25,-2.629 -1.44,-0.926 -2.57,-2.187 -3.37,-3.797 -0.86,-1.562 -1.29,-3.652 -1.29,-6.281 0,-1.563 0.54,-3.039 1.64,-4.469 1.03,-1.308 2.42,-2.5 4.16,-3.57 1.76,-1.02 3.73,-2.074 5.94,-3.149 2.22,-1.011 4.39,-2.109 6.5,-3.281 4.82,-2.09 9,-4.898 12.6,-8.398 3.57,-3.516 5.41,-8.36 5.5,-14.547 0,-3.988 -0.78,-7.328 -2.32,-10 -1.64,-2.777 -3.71,-5.024 -6.21,-6.723 -5.41,-3.316 -11.13,-4.98 -17.21,-4.98 -7.09,0 -13.96,1.211 -20.58,3.617 l 0.84,9.234"
         style="fill:#ffffff;fill-opacity:1;fill-rule:nonzero;stroke:none;stroke-opacity:1"
         transform="matrix(0.13333333,0,0,-0.13333333,0,98.866667)" /><path
         id="path17"
         d="m 1288.85,295.414 c -5.23,2.492 -10.51,3.781 -15.84,3.879 -8.86,-0.098 -15.64,-3.02 -20.37,-8.781 -4.94,-5.899 -7.42,-13.61 -7.42,-23.121 0,-8.868 2.44,-16.305 7.28,-22.301 4.73,-6.289 11.24,-9.496 19.54,-9.594 5.7,0 11.25,1.152 16.68,3.438 l 0.84,-8.789 c -5.98,-1.875 -12.29,-2.774 -18.93,-2.676 -11.86,0.254 -20.7,4.297 -26.48,12.129 -5.9,7.675 -8.83,16.957 -8.83,27.793 0.1,12.074 3.45,21.675 10.1,28.836 6.6,7.293 15.37,10.996 26.34,11.093 4.53,0 8.28,-0.343 11.31,-1.015 1.54,-0.293 2.89,-0.606 4.02,-0.938 1.08,-0.39 1.92,-0.722 2.47,-1.015 l -0.71,-8.938"
         style="fill:#ffffff;fill-opacity:1;fill-rule:nonzero;stroke:none;stroke-opacity:1"
         transform="matrix(0.13333333,0,0,-0.13333333,0,98.866667)" /><path
         id="path18"
         d="m 1307.19,341.402 h 9.05 v -48.691 h 0.27 c 2.03,4.266 5.02,7.801 8.98,10.605 3.95,2.567 8.62,3.907 13.99,4.004 9.84,-0.097 16.54,-3.097 20.13,-8.984 3.48,-5.977 5.18,-13.789 5.08,-23.426 v -45.605 h -9.04 v 45.508 c 0,3.363 -0.18,6.566 -0.57,9.578 -0.41,2.871 -1.25,5.41 -2.48,7.597 -2.3,4.774 -7.15,7.207 -14.49,7.305 -7.93,-0.195 -13.59,-3.332 -16.99,-9.426 -3.36,-6.082 -4.98,-12.672 -4.88,-19.722 v -40.84 h -9.05 v 112.097"
         style="fill:#ffffff;fill-opacity:1;fill-rule:nonzero;stroke:none;stroke-opacity:1"
         transform="matrix(0.13333333,0,0,-0.13333333,0,98.866667)" /><path
         id="path19"
         d="m 1447.82,247.258 c -0.1,-5.805 0.1,-11.781 0.62,-17.953 h -8.83 v 13.554 h -0.29 c -0.66,-1.64 -1.58,-3.32 -2.75,-5.015 -1.14,-1.797 -2.62,-3.52 -4.46,-5.121 -1.83,-1.504 -4.1,-2.696 -6.83,-3.575 -2.7,-1.113 -5.96,-1.679 -9.83,-1.679 -8.94,0.097 -15.39,2.914 -19.33,8.398 -3.97,5.41 -5.9,12.387 -5.8,20.938 v 48.687 h 9.04 v -46.32 c 0,-7.309 1.39,-13.012 4.18,-17.094 2.73,-4.394 7.19,-6.582 13.38,-6.582 4.14,0 7.66,0.899 10.53,2.695 2.93,1.719 5.15,3.907 6.66,6.582 1.73,2.778 2.95,5.782 3.61,8.989 0.7,3.164 1.05,6.367 1.05,9.566 v 42.164 h 9.05 v -58.234"
         style="fill:#ffffff;fill-opacity:1;fill-rule:nonzero;stroke:none;stroke-opacity:1"
         transform="matrix(0.13333333,0,0,-0.13333333,0,98.866667)" /><path
         id="path20"
         d="m 1473.44,287.621 c 0,5.832 -0.17,11.789 -0.56,17.871 h 8.82 V 291.93 h 0.28 c 0.84,1.797 1.85,3.593 3.02,5.39 1.14,1.805 2.58,3.426 4.32,4.891 1.84,1.602 4.08,2.871 6.78,3.789 2.71,0.879 5.94,1.32 9.65,1.32 9.08,-0.097 15.6,-2.902 19.55,-8.398 3.77,-5.352 5.64,-12.305 5.64,-20.867 v -48.75 h -9.04 v 46.386 c 0,7.27 -1.29,13.036 -3.89,17.321 -2.83,4.093 -7.38,6.183 -13.65,6.281 -8.12,-0.195 -13.83,-3.164 -17.13,-8.906 -1.7,-2.735 -2.91,-5.684 -3.61,-8.856 -0.76,-3.301 -1.13,-6.66 -1.13,-10.078 v -42.148 h -9.05 v 58.316"
         style="fill:#ffffff;fill-opacity:1;fill-rule:nonzero;stroke:none;stroke-opacity:1"
         transform="matrix(0.13333333,0,0,-0.13333333,0,98.866667)" /><path
         id="path21"
         d="m 1562.09,267.391 c -0.09,-7.793 1.53,-14.629 4.89,-20.489 3.32,-6.187 8.79,-9.39 16.44,-9.589 8.23,0.199 14.07,3.496 17.52,9.882 3.3,6.192 4.96,12.934 4.96,20.196 0,9.511 -1.54,17.175 -4.61,22.976 -3.22,5.86 -8.98,8.828 -17.3,8.926 -4.34,0 -7.89,-0.949 -10.63,-2.852 -2.79,-1.757 -5.05,-4.238 -6.79,-7.461 -1.57,-2.98 -2.72,-6.375 -3.48,-10.164 -0.66,-3.804 -1,-7.617 -1,-11.425 z m 52.84,-31.817 c 0,-10.855 -2.54,-19.922 -7.64,-27.226 -5.31,-7.34 -14.3,-11.114 -26.91,-11.309 -4.85,0.098 -9.3,0.625 -13.36,1.602 -3.95,1.015 -6.96,1.82 -8.97,2.406 l 0.78,9.351 c 6.08,-3.359 13.32,-5.136 21.72,-5.332 5.9,0.098 10.53,1.196 13.89,3.282 3.48,1.996 6.05,4.789 7.71,8.379 1.74,3.593 2.85,7.714 3.32,12.382 0.39,4.668 0.57,9.692 0.57,15.102 h -0.29 c -5.22,-10.141 -12.7,-15.102 -22.41,-14.906 -11.58,0.293 -19.68,4.574 -24.29,12.832 -2.46,3.808 -4.16,7.89 -5.1,12.265 -1.17,4.375 -1.76,8.711 -1.76,12.989 -0.1,11.875 2.27,21.433 7.13,28.687 4.81,7.395 12.56,11.145 23.26,11.242 4.85,0 9.1,-0.558 12.78,-1.672 3.53,-1.355 6.95,-4.246 10.25,-8.691 h 0.29 v 8.555 l 9.03,-0.02 v -69.918"
         style="fill:#ffffff;fill-opacity:1;fill-rule:nonzero;stroke:none;stroke-opacity:1"
         transform="matrix(0.13333333,0,0,-0.13333333,0,98.866667)" /><path
         id="path22"
         d="m 1634.03,240.32 c 5.6,-3.125 11.99,-4.726 19.2,-4.824 4.57,0 8.42,1.25 11.58,3.731 3.11,2.285 4.71,5.57 4.8,9.867 -0.09,4.527 -1.89,8.086 -5.37,10.664 -3.49,2.476 -7.59,4.722 -12.3,6.715 -2.21,1.078 -4.34,2.226 -6.35,3.437 -2.03,1.211 -3.96,2.559 -5.8,4.024 -1.64,1.601 -3.01,3.457 -4.1,5.546 -1.04,1.993 -1.54,4.333 -1.54,7.02 0.09,7.598 2.57,12.977 7.48,16.141 4.74,3.117 10.25,4.679 16.52,4.679 2.11,0 4.86,-0.195 8.26,-0.586 3.34,-0.578 6.64,-1.523 9.94,-2.824 l -0.84,-8.191 c -5.33,2.285 -10.8,3.476 -16.42,3.574 -4.71,0 -8.46,-0.871 -11.25,-2.629 -1.45,-0.926 -2.58,-2.187 -3.38,-3.797 -0.86,-1.562 -1.29,-3.652 -1.29,-6.281 0,-1.563 0.55,-3.039 1.64,-4.469 1.03,-1.308 2.42,-2.5 4.16,-3.57 1.76,-1.02 3.73,-2.074 5.94,-3.149 2.22,-1.011 4.39,-2.109 6.5,-3.281 4.83,-2.09 9.01,-4.898 12.6,-8.398 3.57,-3.516 5.41,-8.36 5.51,-14.547 0,-3.988 -0.78,-7.328 -2.33,-10 -1.64,-2.777 -3.71,-5.024 -6.21,-6.723 -5.41,-3.316 -11.13,-4.98 -17.21,-4.98 -7.09,0 -13.96,1.211 -20.58,3.617 l 0.84,9.234"
         style="fill:#ffffff;fill-opacity:1;fill-rule:nonzero;stroke:none;stroke-opacity:1"
         transform="matrix(0.13333333,0,0,-0.13333333,0,98.866667)" /><path
         id="path23"
         d="m 1703.38,267.391 c -0.09,-7.793 1.53,-14.629 4.89,-20.489 3.32,-6.187 8.79,-9.39 16.44,-9.589 8.22,0.199 14.06,3.496 17.52,9.882 3.3,6.192 4.96,12.934 4.96,20.196 0,9.511 -1.54,17.175 -4.61,22.976 -3.22,5.86 -8.98,8.828 -17.3,8.926 -4.34,0 -7.89,-0.949 -10.63,-2.852 -2.79,-1.757 -5.06,-4.238 -6.79,-7.461 -1.57,-2.98 -2.72,-6.375 -3.48,-10.164 -0.66,-3.804 -1,-7.617 -1,-11.425 z m 52.84,-31.817 c 0,-10.855 -2.54,-19.922 -7.64,-27.226 -5.31,-7.34 -14.3,-11.114 -26.91,-11.309 -4.85,0.098 -9.3,0.625 -13.36,1.602 -3.95,1.015 -6.96,1.82 -8.97,2.406 l 0.78,9.351 c 6.08,-3.359 13.32,-5.136 21.72,-5.332 5.9,0.098 10.53,1.196 13.89,3.282 3.47,1.996 6.05,4.789 7.71,8.379 1.74,3.593 2.85,7.714 3.32,12.382 0.39,4.668 0.57,9.692 0.57,15.102 h -0.29 c -5.22,-10.141 -12.7,-15.102 -22.41,-14.906 -11.58,0.293 -19.68,4.574 -24.29,12.832 -2.46,3.808 -4.16,7.89 -5.1,12.265 -1.17,4.375 -1.76,8.711 -1.76,12.989 -0.1,11.875 2.27,21.433 7.13,28.687 4.81,7.395 12.56,11.145 23.26,11.242 4.85,0 9.1,-0.558 12.78,-1.672 3.53,-1.355 6.95,-4.246 10.25,-8.691 h 0.29 v 8.555 l 9.03,-0.02 v -69.918"
         style="fill:#ffffff;fill-opacity:1;fill-rule:nonzero;stroke:none;stroke-opacity:1"
         transform="matrix(0.13333333,0,0,-0.13333333,0,98.866667)" /><path
         id="path24"
         d="m 1826,272.723 c 0,6.996 -1.41,13.113 -4.24,18.347 -2.99,5.293 -7.87,8.028 -14.67,8.223 -6.66,-0.195 -11.93,-2.98 -15.8,-8.371 -3.96,-5.43 -5.95,-11.496 -5.95,-18.199 z m 4.43,-41.051 c -6.93,-2.699 -14.06,-4.106 -21.42,-4.203 -12.07,0.254 -20.7,4.101 -25.94,11.543 -5.19,7.289 -7.73,16.758 -7.64,28.379 0.1,11.875 2.99,21.48 8.7,28.836 5.5,7.293 12.96,10.996 22.4,11.093 10.31,-0.195 17.85,-3.945 22.6,-11.242 4.53,-7.148 6.79,-16.012 6.79,-26.558 v -4.825 h -50.58 c 0,-8.281 2.09,-15.117 6.23,-20.484 4.06,-5.703 10.1,-8.617 18.12,-8.715 3.6,0 7.37,0.664 11.33,1.973 3.97,1.078 7.11,2.328 9.41,3.73 v -9.527"
         style="fill:#ffffff;fill-opacity:1;fill-rule:nonzero;stroke:none;stroke-opacity:1"
         transform="matrix(0.13333333,0,0,-0.13333333,0,98.866667)" /><path
         id="path25"
         d="m 1946.27,229.305 v 50.707 c 0,2.808 -0.19,5.422 -0.58,7.816 -0.61,2.285 -1.56,4.285 -2.89,5.985 -1.17,1.757 -2.81,3.144 -4.94,4.171 -2.11,0.868 -4.75,1.309 -7.89,1.309 -5.3,0 -10.02,-2.188 -14.14,-6.574 -4.24,-4.578 -6.41,-11.672 -6.51,-21.266 v -42.148 h -9.02 v 50.707 c 0,2.808 -0.24,5.422 -0.67,7.816 -0.58,2.285 -1.56,4.285 -2.87,5.985 -1.19,1.757 -2.83,3.144 -4.94,4.171 -2.13,0.868 -4.74,1.309 -7.89,1.309 -5.31,0 -10.04,-2.188 -14.16,-6.574 -4.24,-4.578 -6.39,-11.672 -6.48,-21.266 v -42.148 h -9.07 v 58.308 c 0,5.84 -0.17,11.797 -0.56,17.879 h 9.1 v -12.851 l 0.27,-0.137 c 0.69,1.406 1.64,2.961 2.85,4.668 0.96,1.699 2.35,3.281 4.14,4.746 1.8,1.504 4.03,2.824 6.68,3.937 2.68,0.977 6,1.465 9.97,1.465 1.79,0 3.75,-0.195 5.82,-0.586 1.99,-0.39 3.98,-1.191 5.97,-2.402 1.97,-1.113 3.73,-2.715 5.24,-4.797 1.44,-2.176 2.5,-4.941 3.12,-8.289 h 0.29 c 1.88,4.559 4.93,8.359 9.09,11.414 4.08,3.008 9.14,4.563 15.19,4.66 7.72,-0.097 13.65,-2.48 17.81,-7.16 4.09,-4.617 6.12,-10.75 6.12,-18.394 v -52.461 h -9.05"
         style="fill:#ffffff;fill-opacity:1;fill-rule:nonzero;stroke:none;stroke-opacity:1"
         transform="matrix(0.13333333,0,0,-0.13333333,0,98.866667)" /><path
         id="path26"
         d="m 2025.24,272.723 c 0,6.996 -1.43,13.113 -4.26,18.347 -2.97,5.293 -7.87,8.028 -14.67,8.223 -6.66,-0.195 -11.91,-2.98 -15.8,-8.371 -3.96,-5.43 -5.93,-11.496 -5.93,-18.199 z m 4.41,-41.051 c -6.91,-2.699 -14.06,-4.106 -21.4,-4.203 -12.07,0.254 -20.73,4.101 -25.96,11.543 -5.18,7.289 -7.73,16.758 -7.64,28.379 0.1,11.875 2.99,21.48 8.69,28.836 5.51,7.293 12.99,10.996 22.41,11.093 10.31,-0.195 17.85,-3.945 22.61,-11.242 4.52,-7.148 6.78,-16.012 6.78,-26.558 v -4.825 h -50.56 c 0,-8.281 2.07,-15.117 6.23,-20.484 4.04,-5.703 10.09,-8.617 18.1,-8.715 3.59,0 7.36,0.664 11.33,1.973 3.96,1.078 7.11,2.328 9.41,3.73 v -9.527"
         style="fill:#ffffff;fill-opacity:1;fill-rule:nonzero;stroke:none;stroke-opacity:1"
         transform="matrix(0.13333333,0,0,-0.13333333,0,98.866667)" /><path
         id="path27"
         d="m 2054.95,305.492 h 9.02 v -76.187 h -9.02 z m 9.02,20.363 h -9.02 v 12.54 h 9.02 v -12.54"
         style="fill:#ffffff;fill-opacity:1;fill-rule:nonzero;stroke:none;stroke-opacity:1"
         transform="matrix(0.13333333,0,0,-0.13333333,0,98.866667)" /><path
         id="path28"
         d="m 2088.15,287.621 c 0,5.832 -0.2,11.789 -0.57,17.871 h 8.81 V 291.93 h 0.29 c 0.84,1.797 1.86,3.593 3.03,5.39 1.13,1.805 2.56,3.426 4.3,4.891 1.83,1.602 4.1,2.871 6.78,3.789 2.73,0.879 5.95,1.32 9.66,1.32 9.09,-0.097 15.59,-2.902 19.54,-8.398 3.76,-5.352 5.64,-12.305 5.64,-20.867 v -48.75 h -9.02 v 46.386 c 0,7.27 -1.31,13.036 -3.91,17.321 -2.83,4.093 -7.38,6.183 -13.65,6.281 -8.11,-0.195 -13.83,-3.164 -17.13,-8.906 -1.7,-2.735 -2.89,-5.684 -3.61,-8.856 -0.75,-3.301 -1.14,-6.66 -1.14,-10.078 v -42.148 h -9.02 v 58.316"
         style="fill:#ffffff;fill-opacity:1;fill-rule:nonzero;stroke:none;stroke-opacity:1"
         transform="matrix(0.13333333,0,0,-0.13333333,0,98.866667)" /><path
         id="path29"
         d="m 2165.61,240.32 c 5.61,-3.125 11.99,-4.726 19.2,-4.824 4.57,0 8.42,1.25 11.58,3.731 3.11,2.285 4.71,5.57 4.81,9.867 -0.1,4.527 -1.9,8.086 -5.37,10.664 -3.5,2.476 -7.6,4.722 -12.31,6.715 -2.21,1.078 -4.34,2.226 -6.35,3.437 -2.03,1.211 -3.96,2.559 -5.8,4.024 -1.64,1.601 -3.01,3.457 -4.1,5.546 -1.03,1.993 -1.54,4.333 -1.54,7.02 0.1,7.598 2.58,12.977 7.48,16.141 4.74,3.117 10.25,4.679 16.52,4.679 2.11,0 4.86,-0.195 8.26,-0.586 3.34,-0.578 6.64,-1.523 9.94,-2.824 l -0.84,-8.191 c -5.33,2.285 -10.8,3.476 -16.42,3.574 -4.71,0 -8.46,-0.871 -11.25,-2.629 -1.45,-0.926 -2.58,-2.187 -3.38,-3.797 -0.86,-1.562 -1.29,-3.652 -1.29,-6.281 0,-1.563 0.55,-3.039 1.64,-4.469 1.04,-1.308 2.42,-2.5 4.16,-3.57 1.76,-1.02 3.73,-2.074 5.94,-3.149 2.23,-1.011 4.39,-2.109 6.5,-3.281 4.83,-2.09 9.01,-4.898 12.6,-8.398 3.58,-3.516 5.41,-8.36 5.51,-14.547 0,-3.988 -0.78,-7.328 -2.33,-10 -1.64,-2.777 -3.71,-5.024 -6.21,-6.723 -5.41,-3.316 -11.13,-4.98 -17.2,-4.98 -7.09,0 -13.97,1.211 -20.59,3.617 l 0.84,9.234"
         style="fill:#ffffff;fill-opacity:1;fill-rule:nonzero;stroke:none;stroke-opacity:1"
         transform="matrix(0.13333333,0,0,-0.13333333,0,98.866667)" /><path
         id="path30"
         d="m 2277.43,295.414 c -5.24,2.492 -10.51,3.781 -15.84,3.879 -8.87,-0.098 -15.65,-3.02 -20.37,-8.781 -4.95,-5.899 -7.43,-13.61 -7.43,-23.121 0,-8.868 2.45,-16.305 7.29,-22.301 4.73,-6.289 11.23,-9.496 19.53,-9.594 5.7,0 11.25,1.152 16.68,3.438 l 0.84,-8.789 c -5.98,-1.875 -12.29,-2.774 -18.93,-2.676 -11.85,0.254 -20.7,4.297 -26.48,12.129 -5.9,7.675 -8.83,16.957 -8.83,27.793 0.1,12.074 3.46,21.675 10.1,28.836 6.6,7.293 15.37,10.996 26.35,11.093 4.53,0 8.28,-0.343 11.31,-1.015 1.54,-0.293 2.89,-0.606 4.02,-0.938 1.07,-0.39 1.91,-0.722 2.46,-1.015 l -0.7,-8.938"
         style="fill:#ffffff;fill-opacity:1;fill-rule:nonzero;stroke:none;stroke-opacity:1"
         transform="matrix(0.13333333,0,0,-0.13333333,0,98.866667)" /><path
         id="path31"
         d="m 2295.77,341.402 h 9.02 v -48.691 h 0.29 c 2.03,4.266 5.02,7.801 8.97,10.605 3.96,2.567 8.61,3.907 13.98,4.004 9.85,-0.097 16.56,-3.097 20.14,-8.984 3.5,-5.977 5.17,-13.789 5.08,-23.426 v -45.605 h -9.03 v 45.508 c 0,3.363 -0.19,6.566 -0.56,9.578 -0.43,2.871 -1.25,5.41 -2.48,7.597 -2.31,4.774 -7.15,7.207 -14.51,7.305 -7.93,-0.195 -13.6,-3.332 -17,-9.426 -3.34,-6.082 -4.98,-12.672 -4.88,-19.722 v -40.84 h -9.02 v 112.097"
         style="fill:#ffffff;fill-opacity:1;fill-rule:nonzero;stroke:none;stroke-opacity:1"
         transform="matrix(0.13333333,0,0,-0.13333333,0,98.866667)" /><path
         id="path32"
         d="m 2420.42,267.703 h -2.62 c -3.97,0 -7.93,-0.113 -11.9,-0.312 -4.16,-0.371 -7.93,-1.231 -11.32,-2.555 -3.4,-1.176 -6.12,-2.992 -8.15,-5.492 -2.23,-2.539 -3.32,-5.899 -3.32,-10.098 0,-4.859 1.54,-8.359 4.67,-10.445 2.87,-2.207 6.44,-3.305 10.68,-3.305 5.33,0 9.53,1.098 12.6,3.305 3.03,2.086 5.21,4.566 6.58,7.461 1.43,3.125 2.23,6.168 2.42,9.136 0.24,3.125 0.36,5.688 0.36,7.676 z m 0.83,-26.211 h -0.29 c -2.11,-4.453 -5.37,-7.871 -9.74,-10.23 -4.34,-2.422 -8.91,-3.696 -13.72,-3.793 -5.13,0.097 -9.27,0.961 -12.44,2.558 -3.3,1.504 -5.82,3.403 -7.56,5.688 -3.06,4.937 -4.51,9.375 -4.31,13.258 0,6.371 1.48,11.386 4.45,15.082 2.93,3.687 6.64,6.328 11.17,7.949 4.53,1.637 9.46,2.73 14.77,3.258 5.23,0.293 10.25,0.453 15.06,0.453 h 1.78 v 3.883 c 0.29,13.132 -5.34,19.695 -16.86,19.695 -7.64,0.098 -14.88,-2.004 -21.72,-6.32 v 9.14 c 6.84,3.274 14.06,5.012 21.68,5.207 17.48,0.184 26.11,-9.269 25.92,-28.386 v -33.653 c -0.14,-5.777 0.12,-11.109 0.76,-15.976 h -8.95 v 12.187"
         style="fill:#ffffff;fill-opacity:1;fill-rule:nonzero;stroke:none;stroke-opacity:1"
         transform="matrix(0.13333333,0,0,-0.13333333,0,98.866667)" /><path
         id="path33"
         d="m 2459.83,297.465 h -14.9 v 8.027 h 14.9 v 5.547 c 0,4.082 0.17,8.078 0.57,11.965 0.17,3.797 0.91,7.176 2.18,10.144 1.21,3.118 3.19,5.567 5.92,7.375 2.58,1.747 6.19,2.625 10.8,2.625 1.54,0 3.15,-0.046 4.79,-0.144 1.66,-0.293 2.89,-0.734 3.75,-1.309 l -0.57,-8.242 c -2.03,1.113 -4.43,1.68 -7.23,1.68 -3.02,0 -5.31,-0.715 -6.85,-2.121 -1.66,-1.61 -2.77,-3.555 -3.34,-5.84 -0.57,-2.285 -0.84,-4.727 -0.84,-7.305 -0.1,-2.676 -0.16,-5.254 -0.16,-7.734 v -6.641 h 16.64 v -8.027 h -16.64 v -68.16 h -9.02 v 68.16"
         style="fill:#ffffff;fill-opacity:1;fill-rule:nonzero;stroke:none;stroke-opacity:1"
         transform="matrix(0.13333333,0,0,-0.13333333,0,98.866667)" /><path
         id="path34"
         d="m 2535.12,297.465 h -16.78 v -49.391 c 0,-3.515 0.77,-6.465 2.33,-8.847 1.42,-2.481 3.92,-3.731 7.52,-3.731 3.3,0 6.11,0.606 8.42,1.84 l 0.56,-7.758 c -1.07,-0.39 -2.58,-0.816 -4.51,-1.308 -2.03,-0.528 -4.24,-0.801 -6.64,-0.801 -3.94,0 -7.07,0.707 -9.37,2.129 -2.23,1.41 -3.89,3.261 -5.02,5.547 -0.98,2.382 -1.63,5.058 -1.9,8.031 -0.29,3.004 -0.43,6.265 -0.43,9.762 v 44.527 h -14.47 v 8.027 h 14.47 v 18.391 l 9.04,3.281 v -21.672 h 16.78 v -8.027"
         style="fill:#ffffff;fill-opacity:1;fill-rule:nonzero;stroke:none;stroke-opacity:1"
         transform="matrix(0.13333333,0,0,-0.13333333,0,98.866667)" /><g
         id="g34"
         aria-label="German Research Foundation&#10;Funded by"
         transform="matrix(1.3333333,0,0,1.3333333,129.94787,95.2)"
         style="fill:#ffffff;fill-opacity:1;stroke:none;stroke-opacity:1"><path
           id="path35"
           d="M 6.0244516,-3.5044922 H 4.2783578 v -0.65625 h 2.4726563 v 3.82031251 C 6.0127328,-0.02402344 5.2392953,0.14003906 4.4307016,0.12832031 3.2588266,0.10488281 2.3447641,-0.25839844 1.6885141,-0.97324219 1.0205453,-1.6880859 0.68070156,-2.6373047 0.68070156,-3.8443359 0.69242031,-5.0279297 1.0205453,-5.9888672 1.7002328,-6.7154297 c 0.65625,-0.7148437 1.5703125,-1.0898437 2.7304688,-1.1015625 0.3164062,0 0.65625,0.023437 1.0429687,0.082031 0.375,0.058594 0.6914063,0.1523437 0.9492188,0.28125 l -0.082031,0.703125 c -0.292969,-0.1640622 -0.5976565,-0.269531 -0.9140628,-0.3398435 -0.328125,-0.035156 -0.65625,-0.058594 -0.9960937,-0.058594 -0.9609375,0.011719 -1.7109375,0.328125 -2.2265625,0.9257812 -0.5273438,0.609375 -0.796875,1.40625 -0.796875,2.3789063 0,0.984375 0.2695312,1.7695312 0.7851562,2.3789062 0.515625,0.62109376 1.265625,0.92578126 2.2382813,0.93750001 0.2578125,0 0.5390625,-0.0234375 0.8554687,-0.0703125 0.3046875,-0.0351563 0.5507813,-0.09375 0.7382813,-0.2109375 z m 6.4072264,3.32812501 c -0.515625,0.19921875 -1.03125,0.29296875 -1.582031,0.3046875 -0.8789064,-0.0234375 -1.5234376,-0.29296875 -1.9101564,-0.84375 -0.375,-0.53906251 -0.5625,-1.23046871 -0.5507812,-2.08593751 0,-0.8789062 0.2109375,-1.59375 0.6328125,-2.1328125 0.4101562,-0.5390625 0.9609375,-0.796875 1.6523441,-0.8085937 0.761718,0.011719 1.3125,0.28125 1.664062,0.8203125 0.328125,0.5273437 0.492188,1.1835937 0.492188,1.9570312 v 0.3515625 H 9.1152719 c 0,0.609375 0.1523437,1.1132813 0.4570312,1.5117188 0.2929688,0.42187496 0.7382809,0.63281246 1.3359379,0.64453121 0.257812,0 0.539062,-0.046875 0.832031,-0.15234375 0.28125,-0.0703125 0.515625,-0.17578125 0.691406,-0.26953125 z M 12.103553,-3.1998047 c 0,-0.515625 -0.105469,-0.9609375 -0.304687,-1.3476562 -0.222657,-0.3984375 -0.585938,-0.5976563 -1.089844,-0.5976563 -0.492188,0 -0.8671876,0.2109375 -1.1601564,0.609375 -0.2929687,0.3984375 -0.4335937,0.8320313 -0.4335937,1.3359375 z m 2.173828,-1.1601562 c 0,-0.515625 -0.01172,-0.9375 -0.03516,-1.2539063 h 0.667969 v 1.078125 h 0.02344 c 0.128906,-0.328125 0.304688,-0.609375 0.539063,-0.84375 0.222656,-0.234375 0.515625,-0.3515625 0.855468,-0.3632812 0.175782,0.011719 0.328125,0.035156 0.457032,0.058594 v 0.7265625 c -0.140625,-0.046875 -0.304688,-0.070312 -0.480469,-0.070312 -0.257813,0.011719 -0.480469,0.070312 -0.644531,0.1992188 -0.175782,0.1289062 -0.316407,0.3046875 -0.421875,0.5390625 -0.09375,0.2226562 -0.175782,0.4570312 -0.210938,0.7148437 -0.04687,0.2695313 -0.07031,0.5390625 -0.07031,0.7851563 V -5.859375e-4 H 14.277381 Z M 24.619178,-5.859375e-4 V -3.7271484 c 0,-0.2109375 -0.01172,-0.3984375 -0.03516,-0.5742188 -0.04687,-0.1757812 -0.117188,-0.3164062 -0.210938,-0.4453125 -0.09375,-0.1289062 -0.210937,-0.2226562 -0.363281,-0.3046875 -0.152344,-0.070312 -0.351562,-0.09375 -0.585937,-0.09375 -0.386719,0 -0.738282,0.1640625 -1.042969,0.4804688 -0.316406,0.328125 -0.46875,0.8554687 -0.480469,1.5585937 V -5.859375e-4 H 21.232459 V -3.7271484 c 0,-0.2109375 -0.01172,-0.3984375 -0.04687,-0.5742188 -0.03516,-0.1757812 -0.117187,-0.3164062 -0.210937,-0.4453125 -0.08203,-0.1289062 -0.199219,-0.2226562 -0.363281,-0.3046875 -0.164063,-0.070312 -0.351563,-0.09375 -0.574219,-0.09375 -0.398438,0 -0.738281,0.1640625 -1.042969,0.4804688 -0.316406,0.328125 -0.46875,0.8554687 -0.480469,1.5585937 V -5.859375e-4 H 17.845741 V -4.2896484 c 0,-0.4335938 -0.01172,-0.8671875 -0.04687,-1.3242188 h 0.667968 v 0.9492188 l 0.02344,0.011719 c 0.05859,-0.1171875 0.128906,-0.2226562 0.210937,-0.3398437 0.07031,-0.140625 0.175782,-0.2460938 0.304688,-0.3515625 0.140625,-0.1171875 0.304687,-0.2109375 0.503906,-0.2929688 0.1875,-0.070312 0.433594,-0.1054687 0.726563,-0.1054687 0.128906,0 0.269531,0.011719 0.421875,0.046875 0.152343,0.011719 0.304687,0.082031 0.445312,0.1757812 0.152344,0.070312 0.269531,0.1992188 0.386719,0.3515625 0.105469,0.1640625 0.1875,0.3632813 0.222656,0.609375 h 0.02344 c 0.152343,-0.3398437 0.363281,-0.609375 0.679687,-0.84375 0.292969,-0.2226562 0.667969,-0.328125 1.113281,-0.3398437 0.5625,0.011719 1.007813,0.1875 1.3125,0.5273437 0.292969,0.3398438 0.457032,0.796875 0.457032,1.3476563 V -5.859375e-4 Z M 30.232459,-0.90292969 h -0.02344 c -0.152344,0.328125 -0.398438,0.5859375 -0.714844,0.76171875 -0.316406,0.17578125 -0.65625,0.2578125 -1.007812,0.26953125 -0.375,-0.0117187 -0.679688,-0.05859375 -0.914063,-0.1875 -0.246094,-0.10546875 -0.433594,-0.24609375 -0.550781,-0.41015625 -0.234375,-0.36328125 -0.328125,-0.70312496 -0.316406,-0.98437496 0,-0.4570313 0.105468,-0.8320313 0.328125,-1.1132813 0.210937,-0.2695312 0.480468,-0.4570312 0.808593,-0.5859375 0.328125,-0.1171875 0.691407,-0.1875 1.089844,-0.234375 0.386719,-0.023437 0.75,-0.035156 1.101563,-0.035156 h 0.128906 v -0.28125 c 0.02344,-0.9609375 -0.375,-1.4414063 -1.230469,-1.4414063 -0.5625,-0.011719 -1.101562,0.140625 -1.59375,0.4570313 v -0.6679688 c 0.492188,-0.2460937 1.03125,-0.375 1.59375,-0.3867187 1.277344,-0.011719 1.921875,0.6796875 1.910156,2.0859375 v 2.484375 c -0.01172,0.42187496 0.01172,0.80859371 0.04687,1.1718749625 h -0.65625 z m -0.07031,-1.92187501 h -0.1875 c -0.292969,0 -0.574219,0.011719 -0.878906,0.023437 -0.304688,0.011719 -0.574219,0.082031 -0.820313,0.1875 -0.257812,0.082031 -0.457031,0.2109375 -0.609375,0.3984375 -0.164062,0.1875 -0.234375,0.4335938 -0.234375,0.7382813 0,0.3632812 0.105469,0.62109371 0.339844,0.77343746 0.210937,0.1640625 0.46875,0.24609375 0.785156,0.24609375 0.386719,0 0.691406,-0.0820313 0.925781,-0.24609375 0.222657,-0.15234375 0.386719,-0.33984376 0.492188,-0.55078126 0.09375,-0.234375 0.152344,-0.4570312 0.175781,-0.6679687 0,-0.234375 0.01172,-0.421875 0.01172,-0.5625 z m 2.44043,-1.4648437 c 0,-0.4335938 -0.01172,-0.8671875 -0.03516,-1.3242188 h 0.644532 v 1.0078125 h 0.02344 c 0.07031,-0.140625 0.140625,-0.2695312 0.234375,-0.3984375 0.07031,-0.140625 0.1875,-0.2578125 0.316406,-0.3632812 0.128907,-0.1289063 0.292969,-0.2109375 0.492188,-0.28125 0.199219,-0.058594 0.445312,-0.09375 0.714844,-0.09375 0.667968,0.011719 1.160156,0.2109375 1.441406,0.609375 0.28125,0.3984375 0.421875,0.9140625 0.421875,1.546875 V -5.859375e-4 H 36.188514 V -3.4107422 c 0,-0.5390625 -0.105469,-0.9609375 -0.292969,-1.2773437 -0.210937,-0.2929688 -0.539062,-0.4570313 -1.007812,-0.4570313 -0.597656,0 -1.019531,0.2226563 -1.253906,0.65625 -0.140625,0.1992188 -0.222657,0.4101563 -0.269532,0.6445313 -0.05859,0.2460937 -0.08203,0.4921875 -0.08203,0.7382812 v 3.1054687625 h -0.679687 z m 10.016601,0.011719 h 0.773438 c 0.46875,0.011719 0.890625,-0.1054687 1.265625,-0.3164062 0.386718,-0.1992188 0.585937,-0.5625 0.597656,-1.0898438 0,-0.328125 -0.04687,-0.5625 -0.140625,-0.75 -0.105469,-0.1757812 -0.246094,-0.328125 -0.410156,-0.3984375 -0.175782,-0.09375 -0.375,-0.140625 -0.609375,-0.1640625 -0.222657,-0.011719 -0.46875,-0.023437 -0.714844,-0.023437 H 42.61918 Z m -0.726562,-3.3984375 h 1.910156 c 1.40625,-0.023437 2.132812,0.6328125 2.179687,1.9921875 -0.01172,0.4921875 -0.164062,0.9023438 -0.480468,1.1953125 -0.316407,0.3046875 -0.691407,0.4921875 -1.171875,0.5742188 v 0.023437 c 0.292968,0.023437 0.492187,0.1289062 0.632812,0.28125 0.05859,0.082031 0.117188,0.1640625 0.175781,0.2695312 0.04687,0.1171875 0.105469,0.234375 0.164063,0.3632813 L 46.55668,-5.861375e-4 H 45.748084 L 44.669959,-2.6021484 c -0.199218,-0.46875 -0.398437,-0.7617188 -0.609375,-0.890625 -0.117187,-0.058594 -0.234375,-0.1054688 -0.375,-0.1171875 -0.128906,-0.011719 -0.292968,-0.011719 -0.46875,-0.011719 h -0.597656 v 3.6210937625 h -0.726562 z m 9.65625,7.50000001 c -0.515625,0.19921875 -1.03125,0.29296875 -1.582032,0.3046875 -0.878906,-0.0234375 -1.523437,-0.29296875 -1.910156,-0.84375 -0.375,-0.53906251 -0.5625,-1.23046871 -0.550781,-2.08593751 0,-0.8789062 0.210937,-1.59375 0.632812,-2.1328125 0.410157,-0.5390625 0.960938,-0.796875 1.652344,-0.8085937 0.761719,0.011719 1.3125,0.28125 1.664063,0.8203125 0.328125,0.5273437 0.492187,1.1835937 0.492187,1.9570312 v 0.3515625 h -3.714844 c 0,0.609375 0.152344,1.1132813 0.457032,1.5117188 0.292968,0.42187496 0.738281,0.63281246 1.335937,0.64453121 0.257813,0 0.539063,-0.046875 0.832031,-0.15234375 0.28125,-0.0703125 0.515625,-0.17578125 0.691407,-0.26953125 z M 51.220741,-3.1998047 c 0,-0.515625 -0.105469,-0.9609375 -0.304688,-1.3476562 -0.222656,-0.3984375 -0.585937,-0.5976563 -1.089844,-0.5976563 -0.492187,0 -0.867187,0.2109375 -1.160156,0.609375 -0.292969,0.3984375 -0.433594,0.8320313 -0.433594,1.3359375 z m 1.763671,2.39062501 c 0.410157,0.22265625 0.890625,0.33984375 1.417969,0.3515625 0.339844,0 0.621094,-0.09375 0.855469,-0.28125 0.234375,-0.1640625 0.339844,-0.41015621 0.351562,-0.72656251 -0.01172,-0.328125 -0.140625,-0.5976562 -0.398437,-0.7851562 -0.246094,-0.1875 -0.5625,-0.3515625 -0.902344,-0.4921875 -0.164062,-0.070312 -0.328125,-0.1640625 -0.46875,-0.2460938 -0.152344,-0.09375 -0.292969,-0.1875 -0.433594,-0.3046875 -0.117187,-0.1171875 -0.210937,-0.2460937 -0.292968,-0.4101562 -0.08203,-0.140625 -0.117188,-0.3164063 -0.117188,-0.515625 0.01172,-0.5625 0.1875,-0.9492188 0.550781,-1.1835938 0.351563,-0.234375 0.75,-0.3398437 1.21875,-0.3398437 0.152344,0 0.363282,0.011719 0.597657,0.046875 0.257812,0.035156 0.503906,0.1054687 0.738281,0.1992187 l -0.05859,0.5976563 c -0.386719,-0.1640625 -0.796875,-0.2460938 -1.21875,-0.2460938 -0.339844,0 -0.609375,0.058594 -0.820312,0.1875 -0.105469,0.070312 -0.1875,0.1640625 -0.257813,0.28125 -0.04687,0.1054688 -0.08203,0.2578125 -0.08203,0.4570313 0,0.1171875 0.04687,0.2226562 0.117187,0.3398437 0.08203,0.082031 0.175782,0.1757813 0.316407,0.2578125 0.117187,0.070312 0.269531,0.140625 0.421875,0.234375 0.164062,0.058594 0.328125,0.1523438 0.480468,0.234375 0.363282,0.1640625 0.667969,0.3515625 0.925782,0.6210938 0.269531,0.2578125 0.398437,0.6210937 0.410156,1.0664062 0,0.2929688 -0.05859,0.53906251 -0.175781,0.73828126 -0.117188,0.19921875 -0.269532,0.36328125 -0.445313,0.4921875 -0.398437,0.24609375 -0.832031,0.36328125 -1.265625,0.36328125 -0.539062,0 -1.042969,-0.08203125 -1.523437,-0.2578125 z m 8.34668,0.6328125 c -0.515625,0.19921875 -1.03125,0.29296875 -1.582031,0.3046875 -0.878906,-0.0234375 -1.523438,-0.29296875 -1.910156,-0.84375 -0.375,-0.53906251 -0.5625,-1.23046871 -0.550782,-2.08593751 0,-0.8789062 0.210938,-1.59375 0.632813,-2.1328125 0.410156,-0.5390625 0.960937,-0.796875 1.652344,-0.8085937 0.761718,0.011719 1.3125,0.28125 1.664062,0.8203125 0.328125,0.5273437 0.492188,1.1835937 0.492188,1.9570312 v 0.3515625 h -3.714844 c 0,0.609375 0.152344,1.1132813 0.457031,1.5117188 0.292969,0.42187496 0.738281,0.63281246 1.335938,0.64453121 0.257812,0 0.539062,-0.046875 0.832031,-0.15234375 0.28125,-0.0703125 0.515625,-0.17578125 0.691406,-0.26953125 z M 61.002967,-3.1998047 c 0,-0.515625 -0.105469,-0.9609375 -0.304687,-1.3476562 -0.222657,-0.3984375 -0.585938,-0.5976563 -1.089844,-0.5976563 -0.492188,0 -0.867188,0.2109375 -1.160156,0.609375 -0.292969,0.3984375 -0.433594,0.8320313 -0.433594,1.3359375 z m 5.299805,2.29687501 h -0.02344 c -0.152343,0.328125 -0.398437,0.5859375 -0.714843,0.76171875 -0.316407,0.17578125 -0.65625,0.2578125 -1.007813,0.26953125 -0.375,-0.0117187 -0.679687,-0.05859375 -0.914062,-0.1875 -0.246094,-0.10546875 -0.433594,-0.24609375 -0.550782,-0.41015625 -0.234375,-0.36328125 -0.328125,-0.70312496 -0.316406,-0.98437496 0,-0.4570313 0.105469,-0.8320313 0.328125,-1.1132813 0.210938,-0.2695312 0.480469,-0.4570312 0.808594,-0.5859375 0.328125,-0.1171875 0.691406,-0.1875 1.089844,-0.234375 0.386718,-0.023437 0.75,-0.035156 1.101562,-0.035156 h 0.128906 v -0.28125 c 0.02344,-0.9609375 -0.375,-1.4414063 -1.230468,-1.4414063 -0.5625,-0.011719 -1.101563,0.140625 -1.59375,0.4570313 v -0.6679688 c 0.492187,-0.2460937 1.03125,-0.375 1.59375,-0.3867187 1.277343,-0.011719 1.921875,0.6796875 1.910156,2.0859375 v 2.484375 c -0.01172,0.42187496 0.01172,0.80859371 0.04687,1.1718749625 h -0.65625 z m -0.07031,-1.92187501 h -0.1875 c -0.292968,0 -0.574218,0.011719 -0.878906,0.023437 -0.304687,0.011719 -0.574219,0.082031 -0.820312,0.1875 -0.257813,0.082031 -0.457032,0.2109375 -0.609375,0.3984375 -0.164063,0.1875 -0.234375,0.4335938 -0.234375,0.7382813 0,0.3632812 0.105468,0.62109371 0.339843,0.77343746 0.210938,0.1640625 0.46875,0.24609375 0.785157,0.24609375 0.386718,0 0.691406,-0.0820313 0.925781,-0.24609375 0.222656,-0.15234375 0.386719,-0.33984376 0.492187,-0.55078126 0.09375,-0.234375 0.152344,-0.4570312 0.175782,-0.6679687 0,-0.234375 0.01172,-0.421875 0.01172,-0.5625 z m 2.44336,-1.5351562 c 0,-0.515625 -0.01172,-0.9375 -0.03516,-1.2539063 h 0.667969 v 1.078125 h 0.02344 c 0.128906,-0.328125 0.304687,-0.609375 0.539062,-0.84375 0.222656,-0.234375 0.515625,-0.3515625 0.855469,-0.3632812 0.175781,0.011719 0.328125,0.035156 0.457031,0.058594 v 0.7265625 c -0.140625,-0.046875 -0.304687,-0.070312 -0.480469,-0.070312 -0.257812,0.011719 -0.480468,0.070312 -0.644531,0.1992188 -0.175781,0.1289062 -0.316406,0.3046875 -0.421875,0.5390625 -0.09375,0.2226562 -0.175781,0.4570312 -0.210937,0.7148437 -0.04687,0.2695313 -0.07031,0.5390625 -0.07031,0.7851563 v 2.7890624625 h -0.679687 z m 7.013672,-0.5039063 c -0.386719,-0.1875 -0.773438,-0.28125 -1.171875,-0.28125 -0.644532,0 -1.148438,0.2109375 -1.5,0.6445313 -0.363282,0.4335937 -0.539063,0.984375 -0.539063,1.6992187 0,0.6445313 0.175781,1.1953125 0.539063,1.6289063 0.339843,0.46874996 0.820312,0.70312496 1.429687,0.71484371 0.410156,0 0.832031,-0.09375 1.230469,-0.2578125 l 0.05859,0.64453125 c -0.433594,0.15234375 -0.914063,0.2109375 -1.394532,0.19921875 -0.867187,-0.0234375 -1.511718,-0.31640625 -1.945312,-0.890625 C 71.962927,-1.3248047 71.75199,-2.0044922 71.75199,-2.8013672 c 0,-0.9023437 0.246093,-1.6054687 0.738281,-2.1328125 0.492187,-0.5390625 1.125,-0.796875 1.945312,-0.8085937 0.328125,0 0.597657,0.023437 0.820313,0.070312 0.117187,0.023437 0.222656,0.046875 0.292969,0.070312 0.08203,0.035156 0.152343,0.058594 0.1875,0.082031 z m 1.330078,-3.3867187 h 0.679687 v 3.5859375 h 0.02344 c 0.140625,-0.3164063 0.363281,-0.5742188 0.65625,-0.7851563 0.292968,-0.1875 0.632812,-0.28125 1.03125,-0.2929687 0.726562,0.011719 1.21875,0.234375 1.488281,0.65625 0.246094,0.4453125 0.386719,1.0195312 0.375,1.734375 V -5.859375e-4 H 80.605506 V -3.3404297 c 0,-0.2578125 -0.01172,-0.4921875 -0.04687,-0.7148437 -0.03516,-0.2109375 -0.09375,-0.3984375 -0.175781,-0.5507813 -0.175781,-0.3515625 -0.527344,-0.5390625 -1.078125,-0.5390625 -0.585938,0 -1.007813,0.234375 -1.242188,0.6914063 -0.257812,0.4453125 -0.375,0.9375 -0.363281,1.453125 v 2.9999999625 h -0.679687 z m 9.164062,0.5742187 h 3.539063 v 0.65625 h -2.8125 v 2.7421875 h 2.683593 v 0.65625 h -2.683593 v 3.6210937625 h -0.726563 z m 4.494141,4.875 c 0,-0.8085937 0.199219,-1.4882812 0.609375,-2.0507812 0.410156,-0.5859375 1.042969,-0.8789063 1.921875,-0.890625 0.878906,0.011719 1.511719,0.3046875 1.933594,0.890625 0.398437,0.5625 0.597656,1.2421875 0.597656,2.0507812 0,0.7734375 -0.199219,1.453125 -0.597656,2.02734376 -0.421875,0.5859375 -1.054688,0.87890625 -1.933594,0.90234375 C 92.330116,0.10488281 91.697303,-0.18808594 91.287147,-0.77402344 90.876991,-1.3482422 90.677772,-2.0279297 90.677772,-2.8013672 Z m 0.726562,0 c 0,0.6679688 0.152344,1.21875 0.46875,1.640625 0.292969,0.45703126 0.738282,0.69140626 1.335938,0.70312501 0.585937,-0.0117188 1.042969,-0.24609375 1.347656,-0.70312501 0.304688,-0.421875 0.457031,-0.9726562 0.457031,-1.640625 0,-0.6796875 -0.152343,-1.2421875 -0.457031,-1.6757812 -0.304687,-0.4453125 -0.761719,-0.6679688 -1.347656,-0.6679688 -0.597656,0 -1.042969,0.2226563 -1.335938,0.6679688 -0.316406,0.4335937 -0.46875,0.9960937 -0.46875,1.6757812 z m 10.042963,1.4765625 c -0.0117,0.43359376 0.0117,0.87890626 0.0469,1.3242187625 h -0.65625 V -0.99667969 h -0.0234 c -0.0469,0.1171875 -0.11719,0.234375 -0.21094,0.36328125 -0.0703,0.140625 -0.1875,0.2578125 -0.3164,0.375 -0.14063,0.1171875 -0.304688,0.19921875 -0.503906,0.26953125 -0.199219,0.08203125 -0.445313,0.1171875 -0.726563,0.1171875 -0.65625,-0.0117187 -1.148437,-0.2109375 -1.429687,-0.609375 -0.292969,-0.3984375 -0.445313,-0.91406251 -0.433594,-1.54687501 v -3.5859375 h 0.679687 v 3.4101563 c 0,0.5390625 0.09375,0.9609375 0.304688,1.25390621 0.199219,0.31640625 0.527344,0.4921875 0.984375,0.4921875 0.304687,0 0.5625,-0.0703125 0.773437,-0.19921875 0.222653,-0.12890625 0.386713,-0.29296875 0.492183,-0.49218746 0.12891,-0.1992188 0.22266,-0.421875 0.26953,-0.65625 0.0586,-0.234375 0.082,-0.46875 0.082,-0.703125 v -3.1054688 h 0.66797 z m 1.86621,-2.9648437 c 0,-0.4335938 -0.0117,-0.8671875 -0.0351,-1.3242188 h 0.64453 v 1.0078125 h 0.0234 c 0.0703,-0.140625 0.14062,-0.2695312 0.23437,-0.3984375 0.0703,-0.140625 0.1875,-0.2578125 0.31641,-0.3632812 0.1289,-0.1289063 0.29297,-0.2109375 0.49219,-0.28125 0.19921,-0.058594 0.44531,-0.09375 0.71484,-0.09375 0.66797,0.011719 1.16016,0.2109375 1.44141,0.609375 0.28125,0.3984375 0.42187,0.9140625 0.42187,1.546875 v 3.5859374625 h -0.66797 V -3.4107422 c 0,-0.5390625 -0.10547,-0.9609375 -0.29297,-1.2773437 -0.21093,-0.2929688 -0.53906,-0.4570313 -1.00781,-0.4570313 -0.59766,0 -1.01953,0.2226563 -1.25391,0.65625 -0.14062,0.1992188 -0.22265,0.4101563 -0.26953,0.6445313 -0.0586,0.2460937 -0.082,0.4921875 -0.082,0.7382812 v 3.1054687625 h -0.67969 z m 10.42969,4.2890624625 h -0.66797 V -0.89121094 h -0.0234 c -0.35157,0.69140625 -0.91407,1.03125 -1.6875,1.01953125 -0.73829,-0.0234375 -1.30079,-0.29296875 -1.66407,-0.84375 -0.38672,-0.55078121 -0.57422,-1.25390621 -0.57422,-2.08593751 -0.0117,-0.8789062 0.16407,-1.5820312 0.52735,-2.1210937 0.35156,-0.5390625 0.92578,-0.8085938 1.71094,-0.8203125 0.26953,0 0.5039,0.046875 0.70312,0.1171875 0.21094,0.082031 0.375,0.1875 0.51563,0.3046875 0.26953,0.2578125 0.43359,0.4804687 0.46875,0.65625 h 0.0234 v -3.5859375 h 0.66797 z M 109.85258,-2.8013672 c 0,0.2578125 0.0234,0.5273438 0.082,0.796875 0.0469,0.28125 0.1289,0.5390625 0.24609,0.7734375 0.12891,0.2226563 0.30469,0.39843751 0.49219,0.53906251 0.21094,0.15234375 0.46875,0.234375 0.79687,0.234375 0.29297,0 0.55079,-0.0820313 0.76172,-0.234375 0.21094,-0.140625 0.375,-0.32812501 0.49219,-0.56250001 0.24609,-0.4921875 0.36328,-1.0078125 0.35156,-1.546875 0,-0.2695312 -0.0234,-0.5390625 -0.0703,-0.8203125 -0.0586,-0.2578125 -0.15234,-0.515625 -0.28125,-0.75 -0.11719,-0.234375 -0.28125,-0.421875 -0.49219,-0.5742187 -0.21093,-0.140625 -0.46875,-0.1992188 -0.76172,-0.1992188 -0.32812,0 -0.58593,0.058594 -0.79687,0.1992188 -0.1875,0.140625 -0.36328,0.3164062 -0.49219,0.5507812 -0.11719,0.2226563 -0.19922,0.46875 -0.24609,0.75 -0.0586,0.28125 -0.082,0.5625 -0.082,0.84375 z m 8.82422,1.89843751 h -0.0234 c -0.15235,0.328125 -0.39844,0.5859375 -0.71485,0.76171875 -0.3164,0.17578125 -0.65625,0.2578125 -1.00781,0.26953125 -0.375,-0.0117187 -0.67969,-0.05859375 -0.91406,-0.1875 -0.24609,-0.10546875 -0.43359,-0.24609375 -0.55078,-0.41015625 -0.23438,-0.36328125 -0.32813,-0.70312496 -0.31641,-0.98437496 0,-0.4570313 0.10547,-0.8320313 0.32813,-1.1132813 0.21093,-0.2695312 0.48047,-0.4570312 0.80859,-0.5859375 0.32813,-0.1171875 0.69141,-0.1875 1.08984,-0.234375 0.38672,-0.023437 0.75,-0.035156 1.10157,-0.035156 h 0.1289 v -0.28125 c 0.0234,-0.9609375 -0.375,-1.4414063 -1.23047,-1.4414063 -0.5625,-0.011719 -1.10156,0.140625 -1.59375,0.4570313 v -0.6679688 c 0.49219,-0.2460937 1.03125,-0.375 1.59375,-0.3867187 1.27735,-0.011719 1.92188,0.6796875 1.91016,2.0859375 v 2.484375 c -0.0117,0.42187496 0.0117,0.80859371 0.0469,1.1718749625 h -0.65625 z m -0.0703,-1.92187501 h -0.1875 c -0.29297,0 -0.57422,0.011719 -0.8789,0.023437 -0.30469,0.011719 -0.57422,0.082031 -0.82032,0.1875 -0.25781,0.082031 -0.45703,0.2109375 -0.60937,0.3984375 -0.16406,0.1875 -0.23438,0.4335938 -0.23438,0.7382813 0,0.3632812 0.10547,0.62109371 0.33985,0.77343746 0.21094,0.1640625 0.46875,0.24609375 0.78515,0.24609375 0.38672,0 0.69141,-0.0820313 0.92579,-0.24609375 0.22265,-0.15234375 0.38671,-0.33984376 0.49218,-0.55078126 0.0937,-0.234375 0.15235,-0.4570312 0.17578,-0.6679687 0,-0.234375 0.0117,-0.421875 0.0117,-0.5625 z m 4.78418,-2.1914062 h -1.23047 v 3.6328125 c 0,0.2578125 0.0586,0.46874996 0.17578,0.64453121 0.10547,0.1875 0.29297,0.28125 0.55079,0.28125 0.24609,0 0.45703,-0.046875 0.62109,-0.140625 l 0.0469,0.57421875 c -0.082,0.03515625 -0.1875,0.05859375 -0.33984,0.10546875 -0.15234,0.0234375 -0.31641,0.046875 -0.49219,0.046875 -0.28125,0 -0.51562,-0.046875 -0.6914,-0.15234375 -0.16407,-0.10546875 -0.28125,-0.24609375 -0.36328,-0.41015625 -0.082,-0.17578125 -0.11719,-0.375 -0.14063,-0.58593751 -0.0234,-0.2226562 -0.0352,-0.46875 -0.0352,-0.7148437 v -3.28125 h -1.0664 v -0.5976563 h 1.0664 v -1.3476562 l 0.66797,-0.2460938 v 1.59375 h 1.23047 z m 1.32129,-0.5976563 h 0.67969 v 5.6132812625 h -0.67969 z m 0.67969,-1.5 h -0.67969 v -0.9140625 h 0.67969 z m 1.36523,4.3125 c 0,-0.8085937 0.19922,-1.4882812 0.60938,-2.0507812 0.41015,-0.5859375 1.04297,-0.8789063 1.92187,-0.890625 0.87891,0.011719 1.51172,0.3046875 1.9336,0.890625 0.39843,0.5625 0.59765,1.2421875 0.59765,2.0507812 0,0.7734375 -0.19922,1.453125 -0.59765,2.02734376 -0.42188,0.5859375 -1.05469,0.87890625 -1.9336,0.90234375 -0.8789,-0.0234375 -1.51172,-0.31640625 -1.92187,-0.90234375 -0.41016,-0.57421876 -0.60938,-1.25390626 -0.60938,-2.02734376 z m 0.72657,0 c 0,0.6679688 0.15234,1.21875 0.46875,1.640625 0.29296,0.45703126 0.73828,0.69140626 1.33593,0.70312501 0.58594,-0.0117188 1.04297,-0.24609375 1.34766,-0.70312501 0.30469,-0.421875 0.45703,-0.9726562 0.45703,-1.640625 0,-0.6796875 -0.15234,-1.2421875 -0.45703,-1.6757812 -0.30469,-0.4453125 -0.76172,-0.6679688 -1.34766,-0.6679688 -0.59765,0 -1.04297,0.2226563 -1.33593,0.6679688 -0.31641,0.4335937 -0.46875,0.9960937 -0.46875,1.6757812 z m 5.78906,-1.4882812 c 0,-0.4335938 -0.0117,-0.8671875 -0.0352,-1.3242188 h 0.64453 v 1.0078125 h 0.0234 c 0.0703,-0.140625 0.14063,-0.2695312 0.23438,-0.3984375 0.0703,-0.140625 0.1875,-0.2578125 0.3164,-0.3632812 0.12891,-0.1289063 0.29297,-0.2109375 0.49219,-0.28125 0.19922,-0.058594 0.44531,-0.09375 0.71484,-0.09375 0.66797,0.011719 1.16016,0.2109375 1.44141,0.609375 0.28125,0.3984375 0.42187,0.9140625 0.42187,1.546875 v 3.5859374625 h -0.66796 V -3.4107422 c 0,-0.5390625 -0.10547,-0.9609375 -0.29297,-1.2773437 -0.21094,-0.2929688 -0.53907,-0.4570313 -1.00782,-0.4570313 -0.59765,0 -1.01953,0.2226563 -1.2539,0.65625 -0.14063,0.1992188 -0.22266,0.4101563 -0.26953,0.6445313 -0.0586,0.2460937 -0.082,0.4921875 -0.082,0.7382812 v 3.1054687625 h -0.67969 z m 0,0"
           style="fill:#ffffff;fill-opacity:1;fill-rule:nonzero;stroke:none;stroke-opacity:1" /><path
           id="path36"
           d="m -96.488244,-61.204687 h 0.84375 v -4.042969 h 3.082031 v -0.738281 h -3.082031 v -3.058594 h 3.234375 v -0.738281 h -4.078125 z m 10.365235,-6.257813 h -0.773438 v 3.457031 c 0,1.042969 -0.445312,2.285157 -1.851562,2.285157 -1.078125,0 -1.488282,-0.761719 -1.488282,-1.945313 V -67.4625 h -0.773437 v 3.996094 c 0,1.382812 0.585937,2.414062 2.132812,2.414062 1.300782,0 1.769532,-0.703125 2.027344,-1.265625 h 0.02344 v 1.113282 h 0.75 c -0.04687,-0.503907 -0.04687,-0.996094 -0.04687,-1.476563 z m 1.945312,6.257813 h 0.773438 v -3.46875 c 0,-1.042969 0.445312,-2.273438 1.851562,-2.273438 1.066406,0 1.488281,0.761719 1.488281,1.933594 v 3.808594 h 0.773438 V -65.2125 c 0,-1.371094 -0.585938,-2.402344 -2.132813,-2.402344 -1.3125,0 -1.769531,0.703125 -2.027343,1.265625 h -0.02344 V -67.4625 h -0.75 c 0.04687,0.492188 0.04687,0.984375 0.04687,1.464844 z m 11.786133,-9.210938 h -0.773438 v 4.007813 h -0.02344 c -0.105469,-0.316407 -0.726563,-1.207032 -1.957031,-1.207032 -1.839844,0 -2.578125,1.371094 -2.578125,3.28125 0,1.851563 0.867187,3.28125 2.578125,3.28125 0.902343,0 1.535156,-0.351562 1.957031,-1.148437 h 0.02344 v 0.996094 h 0.773438 z m -4.476563,6.082031 c 0,-1.21875 0.375,-2.613281 1.851563,-2.613281 1.371094,0 1.851562,1.464844 1.851562,2.613281 0,1.136719 -0.480468,2.613282 -1.851562,2.613282 -1.476563,0 -1.851563,-1.394532 -1.851563,-2.613282 z m 10.546875,2.144532 c -0.363281,0.234375 -1.183593,0.46875 -1.757812,0.46875 -1.347656,0 -2.0625,-1.066407 -2.0625,-2.390625 h 4.289062 v -0.398438 c 0,-1.675781 -0.726562,-3.105469 -2.496093,-3.105469 -1.582032,0 -2.636719,1.359375 -2.636719,3.28125 0,1.875 0.773437,3.28125 2.847656,3.28125 0.574219,0 1.277344,-0.128906 1.816406,-0.351562 z m -3.820312,-2.589844 c 0,-1.03125 0.703125,-2.167969 1.839844,-2.167969 1.160156,0 1.605468,1.078125 1.605468,2.167969 z m 10.725586,-5.636719 h -0.773438 v 4.007813 h -0.02344 c -0.105469,-0.316407 -0.726563,-1.207032 -1.957031,-1.207032 -1.839844,0 -2.578125,1.371094 -2.578125,3.28125 0,1.851563 0.867187,3.28125 2.578125,3.28125 0.902343,0 1.535156,-0.351562 1.957031,-1.148437 h 0.02344 v 0.996094 h 0.773438 z m -4.476563,6.082031 c 0,-1.21875 0.375,-2.613281 1.851563,-2.613281 1.371094,0 1.851562,1.464844 1.851562,2.613281 0,1.136719 -0.480468,2.613282 -1.851562,2.613282 -1.476563,0 -1.851563,-1.394532 -1.851563,-2.613282 z m 9.697266,3.128907 h 0.773437 v -0.996094 h 0.02344 c 0.410156,0.796875 1.054687,1.148437 1.945312,1.148437 1.722657,0 2.578125,-1.429687 2.578125,-3.28125 0,-1.910156 -0.738281,-3.28125 -2.578125,-3.28125 -1.230468,0 -1.839843,0.890625 -1.945312,1.207032 h -0.02344 v -4.007813 h -0.773437 z m 4.476562,-3.128907 c 0,1.21875 -0.375,2.613282 -1.851562,2.613282 -1.382813,0 -1.851563,-1.476563 -1.851563,-2.613282 0,-1.148437 0.433594,-2.613281 1.851563,-2.613281 1.476562,0 1.851562,1.394531 1.851562,2.613281 z m 2.414063,-3.128906 h -0.855469 l 2.226563,6.328125 -0.164063,0.550781 c -0.234375,0.820313 -0.457031,1.371094 -1.125,1.371094 -0.28125,0 -0.433594,-0.04687 -0.574219,-0.105469 L -47.86715,-58.65 c 0.257812,0.05859 0.550781,0.09375 0.832031,0.09375 0.867188,0 1.3125,-0.855469 1.605469,-1.710937 l 2.507812,-7.195313 h -0.808593 l -1.804688,5.214844 h -0.01172 z m 0,0"
           style="fill:#ffffff;fill-opacity:1;fill-rule:nonzero;stroke:none;stroke-opacity:1" /></g></g></g></svg>
