<svg width="560" height="546" viewBox="0 0 560 546" fill="none" xmlns="http://www.w3.org/2000/svg">
<path d="M304.093 40.6867C293.25 22.3755 266.75 22.3756 255.907 40.6867L62.5412 367.233C51.4887 385.898 64.9421 409.5 86.634 409.5H473.366C495.058 409.5 508.511 385.898 497.459 367.233L304.093 40.6867Z" fill="#2F60AC"/>
<path d="M271.862 63.2555C275.385 57.6026 283.615 57.6026 287.138 63.2555L482.667 376.99C486.404 382.985 482.093 390.75 475.029 390.75H83.9707C76.9069 390.75 72.5965 382.985 76.3326 376.99L271.862 63.2555Z" fill="white"/>
<rect x="269" y="143" width="22" height="146" fill="#F50505"/>
<rect x="269" y="302" width="22" height="29" fill="#F60505"/>
</svg>
