<svg width="369" height="397" viewBox="0 0 369 397" fill="none" xmlns="http://www.w3.org/2000/svg">
<path d="M192 24.4167V71.4418C192 115.777 192 137.945 203.878 151.719C215.757 165.492 234.875 165.492 273.111 165.492H338" stroke="#2F60AC" stroke-width="20"/>
<path d="M107.625 231.583L92.25 248.125L107.625 264.667M176.812 264.667L192.187 281.208L176.812 297.75M153.75 231.583L130.687 297.75" stroke="#2F60AC" stroke-width="20" stroke-linecap="round" stroke-linejoin="round"/>
<path d="M42.5072 153.234C42.5072 145.98 37.3527 140.1 30.9943 140.1C24.636 140.1 19.4815 145.98 19.4815 153.234H42.5072ZM326.492 223.283C326.492 230.537 331.647 236.417 338.005 236.417C344.363 236.417 349.518 230.537 349.518 223.283H326.492ZM21.0946 81.8987C20.4723 89.1178 25.0974 95.5455 31.4252 96.2557C37.7532 96.9658 43.3874 91.6891 44.0099 84.4702L21.0946 81.8987ZM347.904 294.618C348.528 287.399 343.901 280.97 337.573 280.261C331.246 279.552 325.612 284.828 324.989 292.047L347.904 294.618ZM215.201 350.247H153.799V376.516H215.201V350.247ZM42.5072 223.283V153.234H19.4815V223.283H42.5072ZM326.492 215.628V223.283H349.518V215.628H326.492ZM228.881 58.8619L289.651 121.257L305.053 101.731L244.285 39.3367L228.881 58.8619ZM349.518 215.628C349.518 186.061 349.749 167.34 343.21 150.589L322.177 161.275C326.26 171.736 326.492 183.74 326.492 215.628H349.518ZM289.651 121.257C310.426 142.588 318.094 150.817 322.177 161.275L343.21 150.589C336.671 133.837 324.318 121.511 305.053 101.731L289.651 121.257ZM154.256 26.2694C178.537 26.2694 187.7 26.4722 195.867 30.0473L204.116 5.52253C191.04 -0.201906 176.794 0.000887761 154.256 0.000887761V26.2694ZM244.285 39.3367C227.615 22.2202 217.192 11.2463 204.116 5.52253L195.867 30.0473C204.036 33.6233 210.926 40.4257 228.881 58.8619L244.285 39.3367ZM153.799 350.247C124.528 350.247 103.733 350.219 87.9578 347.799C72.5138 345.432 63.6159 340.989 57.1194 333.577L40.8377 352.153C52.3256 365.257 66.8923 371.073 84.8897 373.835C102.556 376.544 125.179 376.516 153.799 376.516V350.247ZM19.4815 223.283C19.4815 255.933 19.457 281.743 21.8321 301.896C24.2518 322.427 29.35 339.047 40.8377 352.153L57.1194 333.577C50.6229 326.166 46.7289 316.014 44.6526 298.397C42.5316 280.4 42.5072 256.676 42.5072 223.283H19.4815ZM215.201 376.516C243.82 376.516 266.444 376.544 284.109 373.835C302.106 371.073 316.674 365.257 328.162 352.153L311.88 333.577C305.383 340.989 296.485 345.432 281.042 347.799C265.266 350.219 244.471 350.247 215.201 350.247V376.516ZM154.256 0.000887761C125.483 0.000887761 102.749 -0.0267822 85.0108 2.6815C66.9502 5.43917 52.3345 11.2491 40.8377 24.3647L57.1194 42.9394C63.607 35.5383 72.5323 31.0897 88.0653 28.718C103.921 26.2971 124.834 26.2694 154.256 26.2694V0.000887761ZM44.0099 84.4702C45.8738 62.8535 49.8824 51.1956 57.1194 42.9394L40.8377 24.3647C28.0214 38.9861 23.157 57.9793 21.0946 81.8987L44.0099 84.4702ZM324.989 292.047C323.126 313.662 319.116 325.32 311.88 333.577L328.162 352.153C340.978 337.53 345.843 318.538 347.904 294.618L324.989 292.047Z" fill="#2F60AC"/>
</svg>
