<svg width="208" height="233" viewBox="0 0 208 233" fill="none" xmlns="http://www.w3.org/2000/svg">
<line x1="35.4143" y1="76.6354" x2="56.7476" y2="99.4925" stroke="#2F60AC" stroke-width="4"/>
<line x1="155.791" y1="89.1828" x2="145.791" y2="99.1828" stroke="#2F60AC" stroke-width="4"/>
<path d="M152.525 76.1288C152.576 85.386 160.122 92.8494 169.379 92.7988C178.636 92.7482 186.099 85.2026 186.049 75.9455C185.998 66.6883 178.453 59.2249 169.195 59.2755C159.938 59.3261 152.475 66.8716 152.525 76.1288Z" fill="white" stroke="#2F60AC" stroke-width="10" stroke-linecap="round" stroke-linejoin="round"/>
<path d="M42.4039 159.95L55.928 144.5" stroke="#2F60AC" stroke-width="4"/>
<path d="M46.1927 173.012C45.9197 163.758 38.197 156.478 28.9438 156.751C19.6905 157.024 12.4105 164.747 12.6835 174C12.9564 183.254 20.679 190.534 29.9324 190.261C39.1856 189.988 46.4657 182.265 46.1927 173.012Z" fill="white" stroke="#2F60AC" stroke-width="10" stroke-linecap="round" stroke-linejoin="round"/>
<line x1="171.872" y1="164.092" x2="148.838" y2="142.95" stroke="#2F60AC" stroke-width="4"/>
<path d="M184.26 160.206C175.03 160.921 168.127 168.982 168.842 178.212C169.557 187.442 177.618 194.344 186.848 193.63C196.077 192.915 202.98 184.854 202.266 175.624C201.551 166.395 193.49 159.492 184.26 160.206Z" fill="white" stroke="#2F60AC" stroke-width="10" stroke-linecap="round" stroke-linejoin="round"/>
<path d="M98.9081 114.622L98.891 114.613L98.8738 114.604L69.9072 98.9146C69.4844 98.671 69.0957 98.1434 69.0957 97.3329C69.0957 96.6307 69.4574 96.0882 69.9056 95.8295L98.9195 80.1563C100.535 79.3135 102.399 79.3131 104.014 80.1552L132.951 95.8286C133.4 96.0871 133.762 96.63 133.762 97.3329C133.762 98.1434 133.374 98.671 132.951 98.9146L103.985 114.604L103.967 114.613L103.95 114.622C103.217 115.027 102.365 115.238 101.429 115.238C100.494 115.238 99.6413 115.027 98.9081 114.622Z" fill="white" stroke="#2F60AC" stroke-width="10"/>
<path d="M66.1631 142.214L66.1463 142.207L66.1296 142.199C63.6407 141.108 62.4287 139.037 62.4287 137.116V113.246C62.4287 113.116 62.4606 112.991 62.5444 112.855C62.6294 112.717 62.796 112.525 63.1019 112.343C63.7743 111.987 64.6239 111.938 65.4271 112.276L93.6137 124.878C96.1868 126.028 97.3742 128.047 97.4287 130.034V153.846C97.4287 153.974 97.3983 154.084 97.3242 154.203C97.2457 154.328 97.0722 154.531 96.7117 154.73L96.6709 154.752L96.6304 154.775C96.3338 154.946 95.9989 155.048 95.4932 155.048C95.021 155.048 94.6734 154.961 94.3889 154.834L66.1631 142.214Z" fill="white" stroke="#2F60AC" stroke-width="10"/>
<path d="M111.601 154.325L111.56 154.3L111.518 154.276C110.91 153.923 110.763 153.506 110.763 153.152V128.447C110.763 126.286 112.034 124.143 114.486 122.959L142.144 109.925C142.864 109.607 143.601 109.66 144.198 110.007C144.806 110.359 144.953 110.776 144.953 111.13V135.836C144.953 137.997 143.682 140.139 141.229 141.324L113.612 154.339C113.181 154.518 112.845 154.571 112.573 154.571C112.139 154.571 111.862 154.483 111.601 154.325Z" fill="white" stroke="#2F60AC" stroke-width="10"/>
<path d="M21.7619 80.5238C31.0192 80.5238 38.5238 73.0192 38.5238 63.7619C38.5238 54.5046 31.0192 47 21.7619 47C12.5046 47 5 54.5046 5 63.7619C5 73.0192 12.5046 80.5238 21.7619 80.5238Z" fill="white" stroke="#2F60AC" stroke-width="10" stroke-linecap="round" stroke-linejoin="round"/>
<line x1="100.753" y1="40.8262" x2="100.753" y2="72.0921" stroke="#2F60AC" stroke-width="4"/>
<path d="M100.19 38.5238C109.447 38.5238 116.952 31.0192 116.952 21.7619C116.952 12.5046 109.447 5 100.19 5C90.9323 5 83.4277 12.5046 83.4277 21.7619C83.4277 31.0192 90.9323 38.5238 100.19 38.5238Z" fill="white" stroke="#2F60AC" stroke-width="10" stroke-linecap="round" stroke-linejoin="round"/>
<line x1="104.626" y1="191.266" x2="104.626" y2="160" stroke="#2F60AC" stroke-width="4"/>
<path d="M105.189 193.568C95.932 193.568 88.4274 201.073 88.4274 210.33C88.4274 219.588 95.932 227.092 105.189 227.092C114.447 227.092 121.951 219.588 121.951 210.33C121.951 201.073 114.447 193.568 105.189 193.568Z" fill="white" stroke="#2F60AC" stroke-width="10" stroke-linecap="round" stroke-linejoin="round"/>
</svg>
