<svg width="800" height="800" viewBox="0 0 800 800" fill="none" xmlns="http://www.w3.org/2000/svg">
<path fill-rule="evenodd" clip-rule="evenodd" d="M99.9999 400C99.9999 234.315 234.315 100 400 100C565.687 100 700 234.315 700 400C700 565.687 565.687 700 400 700C234.315 700 99.9999 565.687 99.9999 400ZM400 33.3335C197.496 33.3335 33.3333 197.496 33.3333 400C33.3333 602.503 197.496 766.667 400 766.667C602.503 766.667 766.667 602.503 766.667 400C766.667 197.496 602.503 33.3335 400 33.3335ZM400 200C418.41 200 433.333 214.924 433.333 233.333V433.333C433.333 451.743 418.41 466.667 400 466.667C381.59 466.667 366.667 451.743 366.667 433.333V233.333C366.667 214.924 381.59 200 400 200ZM441.667 558.333C441.667 581.347 423.013 600 400 600C376.987 600 358.333 581.347 358.333 558.333C358.333 535.32 376.987 516.667 400 516.667C423.013 516.667 441.667 535.32 441.667 558.333Z" fill="#2F60AC"/>
</svg>
