<svg width="47" height="50" viewBox="0 0 47 50" fill="none" xmlns="http://www.w3.org/2000/svg">
<path d="M45.9159 20.1092L25.0818 0.941949C24.4046 0.318834 23.5126 -0.0183862 22.5925 0.000773962C21.6724 0.0199342 20.7953 0.393992 20.1445 1.04476L0.983328 20.2061L0 21.1893V49.437H18.4643V31.812H28.5357V49.437H47V21.1067L45.9159 20.1092ZM22.6647 3.3572C22.6943 3.3572 22.676 3.3636 22.6633 3.37609C22.6502 3.3636 22.6351 3.3572 22.6647 3.3572ZM43.6429 46.0799H31.8929V31.812C31.8929 30.9217 31.5392 30.0678 30.9096 29.4382C30.28 28.8086 29.4261 28.4549 28.5357 28.4549H18.4643C17.5739 28.4549 16.72 28.8086 16.0904 29.4382C15.4608 30.0678 15.1071 30.9217 15.1071 31.812V46.0799H3.35714V22.5799L22.6647 3.41858C22.6661 3.41732 22.6662 3.41616 22.6672 3.4149L43.6429 22.5799V46.0799Z" fill="#2F60AC"/>
</svg>
