<svg width="277" height="277" viewBox="0 0 277 277" fill="none" xmlns="http://www.w3.org/2000/svg">
<g clip-path="url(#clip0_1144_74)">
<path d="M246.222 46.1667H30.7776C26.6962 46.1667 22.7819 47.7881 19.896 50.674C17.01 53.56 15.3887 57.4742 15.3887 61.5556V215.445C15.3887 219.526 17.01 223.44 19.896 226.326C22.7819 229.212 26.6962 230.833 30.7776 230.833H146.194L150.58 225.447L157.736 216.676L157.043 215.445H30.7776V61.5556H246.222V127.42C252.068 131.204 257.264 135.907 261.611 141.347V61.5556C261.611 57.4742 259.99 53.56 257.104 50.674C254.218 47.7881 250.303 46.1667 246.222 46.1667Z" fill="#2F60AC"/>
<path d="M184.667 92.3333H53.8613V104.644H184.667V92.3333Z" fill="#2F60AC"/>
<path d="M138.5 123.111H53.8613V135.422H138.5V123.111Z" fill="#2F60AC"/>
<path d="M130.806 176.972H53.8613V189.283H130.806V176.972Z" fill="#2F60AC"/>
<path d="M211.289 132.575C201.443 132.497 191.802 135.391 183.626 140.879C175.451 146.367 169.121 154.193 165.464 163.336C161.807 172.478 160.993 182.511 163.129 192.123C165.264 201.736 170.25 210.48 177.434 217.214L162.506 235.45L169.431 263.227L197.593 228.91C206.507 231.546 215.994 231.546 224.908 228.91L253.07 263.227L259.995 235.45L245.068 217.214C252.252 210.48 257.237 201.736 259.373 192.123C261.508 182.511 260.694 172.478 257.037 163.336C253.38 154.193 247.05 146.367 238.875 140.879C230.699 135.391 221.059 132.497 211.212 132.575H211.289ZM211.289 214.752C204.751 214.661 198.385 212.639 192.992 208.94C187.6 205.241 183.421 200.03 180.982 193.963C178.542 187.896 177.951 181.243 179.282 174.841C180.614 168.438 183.808 162.573 188.464 157.981C193.119 153.389 199.029 150.276 205.449 149.033C211.869 147.791 218.513 148.474 224.546 150.997C230.579 153.52 235.731 157.77 239.355 163.213C242.979 168.657 244.913 175.05 244.914 181.589C244.833 190.439 241.249 198.897 234.948 205.112C228.646 211.327 220.14 214.793 211.289 214.752Z" fill="#2F60AC"/>
</g>
<defs>
<clipPath id="clip0_1144_74">
<rect width="277" height="277" fill="white"/>
</clipPath>
</defs>
</svg>
