<svg width="417" height="370" viewBox="0 0 417 370" fill="none" xmlns="http://www.w3.org/2000/svg">
<path d="M225.307 218.613L225.29 218.891V219.169C225.29 222.438 224.32 224.589 222.624 226.315C220.914 228.056 218.9 228.962 215.931 228.962H201.069C198.1 228.962 196.086 228.056 194.376 226.315C192.68 224.589 191.71 222.438 191.71 219.169V218.891L191.693 218.613L185.137 112.705C185.137 112.703 185.137 112.701 185.137 112.7C185.049 111.224 185.442 109.542 188.089 107.3C190.896 104.923 193.807 103.88 197.135 103.88H219.865C223.193 103.88 226.104 104.923 228.911 107.3C231.558 109.542 231.951 111.224 231.863 112.7C231.863 112.701 231.863 112.703 231.863 112.705L225.307 218.613ZM400.235 279.875L256.083 36.1555C249.484 24.3352 239.714 16.1386 227.023 12.0051C214.721 7.99829 202.279 7.99829 189.977 12.0051C177.286 16.1386 167.516 24.3352 160.917 36.1555L16.7651 279.875C16.7589 279.885 16.7527 279.895 16.7465 279.906C9.85201 291.373 7.47301 303.721 9.95738 316.552C12.4009 329.173 18.7567 339.804 28.7311 348.206C38.8546 356.733 50.8323 361 64.2529 361H352.747C366.168 361 378.145 356.733 388.269 348.206C398.243 339.804 404.599 329.173 407.043 316.552C409.527 303.72 407.148 291.371 400.252 279.903C400.246 279.894 400.24 279.884 400.235 279.875ZM230.098 296.476C230.098 299.089 229.246 301.207 227.126 303.279C225 305.356 222.734 306.269 219.865 306.269H197.135C194.266 306.269 192 305.356 189.874 303.279C187.754 301.207 186.902 299.089 186.902 296.476V277.683C186.902 275.082 187.74 273.101 189.747 271.215C191.85 269.24 194.156 268.317 197.135 268.317H219.428C222.838 268.317 225.249 269.333 227.253 271.215C229.26 273.101 230.098 275.082 230.098 277.683V296.476Z" fill="white" stroke="#2F60AC" stroke-width="18"/>
</svg>
