<svg width="800" height="800" viewBox="0 0 800 800" fill="none" xmlns="http://www.w3.org/2000/svg">
<path d="M462.919 150.827C504.564 150.827 538.338 117.063 538.338 75.4186C538.338 33.7742 504.565 0 462.919 0C421.273 0 387.511 33.7729 387.511 75.4186C387.511 117.064 421.275 150.827 462.919 150.827Z" fill="#2F60AC"/>
<path d="M462.919 291.087C514.724 291.087 567.777 273.149 559.498 223.485C556.127 203.316 539.449 175.043 526.78 162.385C525.14 160.755 517.714 160.329 515.696 161.579C500.323 171.061 482.273 176.589 462.918 176.589C443.573 176.589 425.524 171.061 410.152 161.579C408.133 160.329 400.705 160.755 399.066 162.385C386.408 175.043 369.711 203.316 366.348 223.485C358.071 273.15 411.125 291.087 462.919 291.087Z" fill="#2F60AC"/>
<path d="M258.427 512.833C300.072 512.833 333.846 479.069 333.846 437.424C333.846 395.77 300.073 362.006 258.427 362.006C216.782 362.006 183.018 395.77 183.018 437.424C183.019 479.069 216.783 512.833 258.427 512.833Z" fill="#2F60AC"/>
<path d="M322.288 524.399C320.649 522.75 313.223 522.343 311.203 523.584C295.821 533.067 277.782 538.587 258.427 538.587C239.073 538.587 221.033 533.068 205.66 523.584C203.641 522.344 196.204 522.75 194.566 524.399C181.907 537.049 165.22 565.322 161.859 585.491C153.579 635.156 206.633 653.085 258.427 653.085C310.231 653.085 363.286 635.156 355.005 585.491C351.636 565.322 334.948 537.049 322.288 524.399Z" fill="#2F60AC"/>
<path d="M667.408 512.833C709.052 512.833 742.816 479.069 742.816 437.424C742.816 395.77 709.052 362.006 667.408 362.006C625.763 362.006 591.989 395.77 591.989 437.424C591.991 479.069 625.763 512.833 667.408 512.833Z" fill="#2F60AC"/>
<path d="M763.978 585.491C760.615 565.322 743.928 537.049 731.27 524.399C729.629 522.75 722.194 522.343 720.175 523.584C704.802 533.067 686.763 538.587 667.408 538.587C648.054 538.587 630.013 533.068 614.632 523.584C612.612 522.344 605.186 522.75 603.547 524.399C590.888 537.049 574.205 565.322 570.834 585.491C562.556 635.156 615.604 653.085 667.408 653.085C719.203 653.085 772.256 635.156 763.978 585.491Z" fill="#2F60AC"/>
<path d="M565.269 473.197L475.357 421.292V317.481C475.357 310.609 469.792 305.044 462.921 305.044C456.058 305.044 450.493 310.609 450.493 317.481V421.292L360.581 473.197C354.637 476.632 352.59 484.246 356.025 490.19C359.461 496.137 367.073 498.172 373.018 494.746L462.919 442.831L552.831 494.736C558.776 498.172 566.38 496.135 569.815 490.189C573.251 484.246 571.213 476.632 565.269 473.197Z" fill="#2F60AC"/>
</svg>
