<?xml version="1.0" encoding="UTF-8" standalone="no"?>
<svg
   width="923"
   height="273"
   viewBox="0 0 923 273"
   fill="none"
   version="1.1"
   id="svg2"
   sodipodi:docname="NFDI4ING_logo.svg"
   inkscape:version="1.4.2 (ebf0e940, 2025-05-08)"
   xml:space="preserve"
   xmlns:inkscape="http://www.inkscape.org/namespaces/inkscape"
   xmlns:sodipodi="http://sodipodi.sourceforge.net/DTD/sodipodi-0.dtd"
   xmlns="http://www.w3.org/2000/svg"
   xmlns:svg="http://www.w3.org/2000/svg"><defs
     id="defs2" /><sodipodi:namedview
     id="namedview2"
     pagecolor="#505050"
     bordercolor="#eeeeee"
     borderopacity="1"
     inkscape:showpageshadow="0"
     inkscape:pageopacity="0"
     inkscape:pagecheckerboard="0"
     inkscape:deskcolor="#505050"
     inkscape:zoom="1.4207254"
     inkscape:cx="517.34135"
     inkscape:cy="188.2841"
     inkscape:window-width="2304"
     inkscape:window-height="1186"
     inkscape:window-x="0"
     inkscape:window-y="25"
     inkscape:window-maximized="0"
     inkscape:current-layer="layer2"
     showgrid="false" /><rect
     width="923"
     height="273"
     fill="white"
     id="rect1"
     style="fill:#00519e;fill-opacity:0" /><g
     inkscape:groupmode="layer"
     id="layer2"
     inkscape:label="BG"><rect
       style="opacity:0.972;fill:none;fill-opacity:0;stroke:none;stroke-width:1.593;stroke-linecap:round;stroke-linejoin:round;stroke-miterlimit:3.9;paint-order:stroke markers fill"
       id="rect2"
       width="923"
       height="273"
       x="0"
       y="0" /><g
       id="g16"
       transform="matrix(0.2943996,0,0,0.2943996,96.364888,-4.5773348)"><path
         class="cls-12"
         d="m 350.43,326.52 c 4.01,-7.74 6.31,-16.51 6.31,-25.83 0,-31.12 -25.23,-56.35 -56.35,-56.35 -31.12,0 -56.35,25.23 -56.35,56.35 0,31.12 25.23,56.35 56.35,56.35 18.24,0 34.4,-8.7 44.7,-22.13 l 391.34,225.91 c 1.29,-3.09 2.83,-6.03 4.62,-8.82 L 350.44,326.52 Z"
         id="path1"
         style="fill:#f8af00;stroke-width:0px" /><path
         class="cls-1"
         d="m 525.9,788.72 c 0,31.12 25.23,56.35 56.35,56.35 31.12,0 56.35,-25.23 56.35,-56.35 0,-31.12 -25.23,-56.35 -56.35,-56.35 -9.36,0 -18.17,2.32 -25.93,6.36 L 330.78,348.09 c -2.78,1.79 -5.75,3.29 -8.83,4.58 L 547.94,744.1 c -13.38,10.3 -22.04,26.43 -22.04,44.63"
         id="path2"
         style="fill:#792181;stroke-width:0px" /><path
         class="cls-7"
         d="m 844.69,582.45 c 0,-31.12 -25.23,-56.35 -56.35,-56.35 -31.12,0 -54.48,23.48 -56.19,53.06 H 281.08 c 0.07,1.17 0.19,2.32 0.19,3.5 0,2.18 -0.15,4.33 -0.4,6.45 h 451.54 c 3.3,27.97 27.06,49.69 55.93,49.69 31.12,0 56.35,-25.23 56.35,-56.35"
         id="path3"
         style="fill:#e20613;stroke-width:0px" /><path
         class="cls-5"
         d="M 662.16,324.9 271.21,550.58 c -10.17,-14.66 -27.1,-24.27 -46.29,-24.27 -31.12,0 -56.35,25.23 -56.35,56.35 0,31.12 25.23,56.35 56.35,56.35 31.12,0 56.35,-25.23 56.35,-56.35 0,-8.37 -1.88,-16.29 -5.15,-23.43 L 667.21,333.46 c -1.93,-2.69 -3.61,-5.55 -5.05,-8.56"
         id="path4"
         style="fill:#ffec00;stroke-width:0px" /><path
         class="cls-4"
         d="M 732.25,427.95 H 281.1 c -1.81,-29.48 -26.23,-52.85 -56.18,-52.85 -29.95,0 -56.35,25.23 -56.35,56.35 0,31.12 25.23,56.35 56.35,56.35 28.94,0 52.76,-21.82 55.96,-49.9 h 451.57 c -0.25,-2.12 -0.38,-4.27 -0.38,-6.45 0,-1.18 0.1,-2.34 0.18,-3.5"
         id="path5"
         style="fill:#8aacdb;stroke-width:0px" /><path
         class="cls-8"
         d="m 660.43,691.29 c -2.42,6.28 -3.8,13.09 -3.8,20.23 0,31.12 25.23,56.35 56.35,56.35 31.12,0 56.35,-25.23 56.35,-56.35 0,-31.12 -25.23,-56.35 -56.35,-56.35 -20.43,0 -38.27,10.91 -48.15,27.18 L 274.98,457.27 c -1.53,2.97 -3.32,5.77 -5.33,8.4 z"
         id="path6"
         style="fill:#ed7203;stroke-width:0px" /><path
         class="cls-6"
         d="m 487.45,225.21 c 0,-31.12 -25.23,-56.35 -56.35,-56.35 -31.12,0 -56.35,25.23 -56.35,56.35 0,31.12 25.23,56.35 56.35,56.35 7.67,0 14.98,-1.55 21.65,-4.33 l 225.27,390.23 c 2.59,-2.07 5.37,-3.9 8.31,-5.49 L 461.54,272.58 c 15.57,-10.03 25.91,-27.48 25.91,-47.38"
         id="path7"
         style="fill:#e50060;stroke-width:0px" /><path
         class="cls-9"
         d="m 374.74,788.72 c 0,31.12 25.23,56.35 56.35,56.35 31.12,0 56.35,-25.23 56.35,-56.35 0,-31.12 -23.51,-54.5 -53.12,-56.19 V 281.4 c -1.08,0.06 -2.15,0.16 -3.24,0.16 -2.27,0 -4.5,-0.17 -6.7,-0.44 v 451.67 c -27.96,3.32 -49.65,27.07 -49.65,55.92"
         id="path8"
         style="fill:#0069b3;stroke-width:0px" /><path
         class="cls-2"
         d="m 638.6,225.21 c 0,-31.12 -25.23,-56.35 -56.35,-56.35 -31.12,0 -56.35,25.23 -56.35,56.35 0,28.79 21.6,52.49 49.48,55.89 v 451.69 c 2.25,-0.28 4.55,-0.42 6.87,-0.42 1.04,0 2.04,0.1 3.07,0.16 V 281.42 c 29.69,-1.6 53.29,-26.11 53.29,-56.2"
         id="path9"
         style="fill:#ac2221;stroke-width:0px" /><path
         class="cls-3"
         d="m 769.33,300.76 c 0,-31.12 -25.23,-56.35 -56.35,-56.35 -31.12,0 -56.35,25.23 -56.35,56.35 0,18.77 9.22,35.36 23.33,45.6 L 454.19,737.41 c 3.04,1.37 5.93,3.01 8.67,4.87 L 688.51,351.46 c 7.41,3.59 15.7,5.66 24.48,5.66 31.12,0 56.35,-25.23 56.35,-56.35"
         id="path10"
         style="fill:#00763c;stroke-width:0px" /><path
         class="cls-11"
         d="m 549.24,270.78 -225.78,391.1 c -7.05,-3.17 -14.84,-4.97 -23.07,-4.97 -31.12,0 -56.35,25.23 -56.35,56.35 0,31.12 25.23,56.35 56.35,56.35 31.12,0 56.35,-25.23 56.35,-56.35 0,-19.34 -9.75,-36.39 -24.6,-46.54 L 557.77,275.88 c -3,-1.45 -5.86,-3.16 -8.54,-5.1"
         id="path11"
         style="fill:#93c01f;stroke-width:0px" /><path
         class="cls-10"
         d="m 844.77,431.46 c 0,-31.12 -25.23,-56.35 -56.35,-56.35 -31.12,0 -56.35,25.23 -56.35,56.35 0,8.64 2,16.8 5.48,24.12 l -390.8,225.71 c 1.88,2.72 3.46,5.64 4.85,8.67 L 742.59,464.15 c 10.22,14.3 26.92,23.66 45.84,23.66 31.12,0 56.35,-25.23 56.35,-56.35"
         id="path12"
         style="fill:#312782;stroke-width:0px" /><g
         id="g15"><path
           class="cls-13"
           d="m 2186.12,734.36 c 13.36,0 22.1,-7.2 22.1,-17.58 0,-8.94 -5.65,-14.19 -17.37,-15.83 l -5.45,-0.72 c -5.04,-0.82 -6.99,-2.47 -6.99,-6.07 0,-3.29 2.47,-5.55 8.12,-5.55 5.24,0 9.77,2.47 12.85,5.76 l 7.71,-7.71 c -5.14,-5.35 -10.49,-8.43 -20.97,-8.43 -12.23,0 -20.35,6.58 -20.35,16.96 0,9.77 6.37,14.8 17.89,16.24 l 5.35,0.72 c 4.73,0.62 6.58,2.57 6.58,5.65 0,3.8 -2.67,6.17 -8.94,6.17 -6.27,0 -10.79,-2.78 -14.7,-7.3 l -8.02,7.81 c 5.35,6.17 12.03,9.87 22.21,9.87 m -57.78,-46.25 c 6.78,0 10.59,5.04 10.59,12.44 v 0.93 h -22 v -0.82 c 0,-7.4 4.52,-12.54 11.41,-12.54 m 0.2,46.25 c 9.97,0 17.78,-3.8 22.21,-9.87 l -7.09,-7.92 c -3.29,4.21 -7.2,7.3 -13.67,7.3 -8.64,0 -13.06,-5.24 -13.06,-12.95 v -1.34 h 35.67 v -4.32 c 0,-14.7 -7.71,-27.04 -24.47,-27.04 -15.73,0 -24.88,11 -24.88,27.96 0,16.96 9.46,28.17 25.29,28.17 m -57.66,0.01 c 10.38,0 17.89,-4.73 21.38,-14.19 l -10.07,-4.83 c -1.95,4.83 -5.04,8.43 -11.31,8.43 -7.3,0 -11,-5.04 -11,-12.54 v -9.77 c 0,-7.5 3.7,-12.64 11,-12.64 5.65,0 9.05,3.29 10.28,7.81 l 10.79,-4.83 c -3.19,-8.43 -10.28,-13.57 -21.07,-13.57 -15.83,0 -24.78,10.79 -24.78,27.96 0,17.17 8.94,28.17 24.78,28.17 m -72.64,-1.23 v -35.47 c 0,-5.76 5.24,-8.64 10.69,-8.64 6.27,0 8.84,3.91 8.84,11.51 v 32.59 h 13.16 V 699.2 c 0,-13.36 -6.17,-20.97 -17.17,-20.97 -8.33,0 -12.85,4.42 -15.01,10.18 h -0.51 v -8.94 h -13.16 v 53.66 z m -52.88,-45.03 c 6.78,0 10.59,5.04 10.59,12.44 v 0.93 h -22 v -0.82 c 0,-7.4 4.52,-12.54 11.41,-12.54 m 0.21,46.25 c 9.97,0 17.78,-3.8 22.21,-9.87 l -7.09,-7.92 c -3.29,4.21 -7.2,7.3 -13.67,7.3 -8.64,0 -13.06,-5.24 -13.06,-12.95 v -1.34 h 35.67 v -4.32 c 0,-14.7 -7.71,-27.04 -24.47,-27.04 -15.73,0 -24.88,11 -24.88,27.96 0,16.96 9.46,28.17 25.29,28.17 m -53.83,-1.22 h 13.16 v -53.66 h -13.16 z m 6.58,-61.48 c 5.35,0 7.71,-2.78 7.71,-6.58 v -2.06 c 0,-3.8 -2.36,-6.58 -7.71,-6.58 -5.35,0 -7.71,2.78 -7.71,6.58 v 2.06 c 0,3.8 2.26,6.58 7.71,6.58 m -41.72,62.71 c 10.38,0 17.89,-4.73 21.38,-14.19 l -10.07,-4.83 c -1.95,4.83 -5.04,8.43 -11.31,8.43 -7.3,0 -11,-5.04 -11,-12.54 v -9.77 c 0,-7.5 3.7,-12.64 11,-12.64 5.65,0 9.05,3.29 10.28,7.81 l 10.79,-4.83 c -3.19,-8.43 -10.28,-13.57 -21.07,-13.57 -15.83,0 -24.78,10.79 -24.78,27.96 0,17.17 8.94,28.17 24.78,28.17 m -59.36,0 c 13.36,0 22.1,-7.2 22.1,-17.58 0,-8.94 -5.65,-14.19 -17.37,-15.83 l -5.45,-0.72 c -5.04,-0.82 -6.99,-2.47 -6.99,-6.07 0,-3.29 2.47,-5.55 8.12,-5.55 5.24,0 9.77,2.47 12.85,5.76 l 7.71,-7.71 c -5.14,-5.35 -10.49,-8.43 -20.97,-8.43 -12.23,0 -20.35,6.58 -20.35,16.96 0,9.77 6.37,14.8 17.89,16.24 l 5.35,0.72 c 4.73,0.62 6.58,2.57 6.58,5.65 0,3.8 -2.67,6.17 -8.94,6.17 -6.27,0 -10.79,-2.78 -14.7,-7.3 l -8.02,7.81 c 5.35,6.17 12.03,9.87 22.21,9.87 m -89.56,-28.88 c -6.27,0 -9.66,-2.88 -9.66,-8.22 v -1.75 c 0,-5.45 3.39,-8.22 9.66,-8.22 6.27,0 9.66,2.78 9.66,8.22 v 1.75 c 0,5.35 -3.39,8.22 -9.66,8.22 m 15.83,33.72 c 0,4.52 -3.8,6.68 -12.34,6.68 h -6.58 c -8.22,0 -11.31,-2.47 -11.31,-6.58 0,-2.16 0.82,-4.11 2.78,-5.55 h 18.3 c 6.68,0 9.15,2.06 9.15,5.45 m 12.34,-1.54 c 0,-9.66 -5.65,-15.32 -18.81,-15.32 h -14.39 c -4.73,0 -6.99,-1.34 -6.99,-4.01 0,-2.36 1.75,-3.91 3.8,-4.83 2.36,0.62 5.14,0.93 8.22,0.93 14.6,0 22.21,-7.2 22.21,-17.99 0,-6.58 -2.78,-11.82 -8.33,-14.91 v -1.44 h 11.41 v -10.07 h -8.33 c -4.93,0 -7.61,2.57 -7.61,7.81 v 1.75 c -2.67,-0.93 -6.07,-1.34 -9.35,-1.34 -14.5,0 -22.21,7.3 -22.21,18.2 0,7.09 3.29,12.64 9.77,15.63 v 0.41 c -5.14,1.13 -9.87,3.91 -9.87,9.46 0,4.32 2.47,7.81 6.89,8.94 V 732 c -5.96,0.93 -9.56,4.32 -9.56,10.28 0,7.92 6.89,12.64 24.98,12.64 20.56,0 28.17,-6.07 28.17,-17.27 m -99.23,-4.52 v -35.47 c 0,-5.76 5.24,-8.64 10.69,-8.64 6.27,0 8.84,3.91 8.84,11.51 v 32.59 h 13.16 V 699.2 c 0,-13.36 -6.17,-20.97 -17.17,-20.97 -8.33,0 -12.85,4.42 -15.01,10.18 h -0.51 v -8.94 h -13.16 v 53.66 z m -44.8,0 h 13.16 v -53.66 h -13.16 z m 6.58,-61.48 c 5.35,0 7.71,-2.78 7.71,-6.58 v -2.06 c 0,-3.8 -2.36,-6.58 -7.71,-6.58 -5.35,0 -7.71,2.78 -7.71,6.58 v 2.06 c 0,3.8 2.26,6.58 7.71,6.58 m -37.62,61.48 v -32.9 c 0,-5.86 4.63,-8.33 13.47,-8.33 h 4.11 v -12.44 h -2.88 c -8.53,0 -12.85,5.45 -14.19,11.1 h -0.51 v -11.1 h -13.16 v 53.66 h 13.16 z m -52.88,-45.03 c 6.78,0 10.59,5.04 10.59,12.44 v 0.93 h -22 v -0.82 c 0,-7.4 4.52,-12.54 11.41,-12.54 m 0.2,46.25 c 9.97,0 17.78,-3.8 22.21,-9.87 l -7.09,-7.92 c -3.29,4.21 -7.2,7.3 -13.67,7.3 -8.64,0 -13.06,-5.24 -13.06,-12.95 v -1.34 h 35.67 v -4.32 c 0,-14.7 -7.71,-27.04 -24.47,-27.04 -15.73,0 -24.88,11 -24.88,27.96 0,16.96 9.46,28.17 25.29,28.17 m -62.3,-46.25 c 6.78,0 10.59,5.04 10.59,12.44 v 0.93 h -22 v -0.82 c 0,-7.4 4.52,-12.54 11.41,-12.54 m 0.2,46.25 c 9.97,0 17.78,-3.8 22.21,-9.87 l -7.09,-7.92 c -3.29,4.21 -7.2,7.3 -13.67,7.3 -8.64,0 -13.06,-5.24 -13.06,-12.95 v -1.34 h 35.67 v -4.32 c 0,-14.7 -7.71,-27.04 -24.47,-27.04 -15.73,0 -24.88,11 -24.88,27.96 0,16.96 9.46,28.17 25.29,28.17 m -73.15,-1.22 v -35.47 c 0,-5.76 5.24,-8.64 10.69,-8.64 6.27,0 8.84,3.91 8.84,11.51 v 32.59 h 13.16 V 699.2 c 0,-13.36 -6.17,-20.97 -17.17,-20.97 -8.33,0 -12.85,4.42 -15.01,10.18 h -0.51 v -8.94 h -13.16 v 53.66 z m -44.8,0 h 13.16 v -53.66 h -13.16 z m 6.58,-61.48 c 5.35,0 7.71,-2.78 7.71,-6.58 v -2.06 c 0,-3.8 -2.36,-6.58 -7.71,-6.58 -5.35,0 -7.71,2.78 -7.71,6.58 v 2.06 c 0,3.8 2.26,6.58 7.71,6.58 m -47.26,33.82 c -6.27,0 -9.66,-2.88 -9.66,-8.22 v -1.75 c 0,-5.45 3.39,-8.22 9.66,-8.22 6.27,0 9.66,2.78 9.66,8.22 v 1.75 c 0,5.35 -3.39,8.22 -9.66,8.22 m 15.83,33.72 c 0,4.52 -3.8,6.68 -12.34,6.68 h -6.58 c -8.22,0 -11.31,-2.47 -11.31,-6.58 0,-2.16 0.82,-4.11 2.78,-5.55 h 18.3 c 6.68,0 9.15,2.06 9.15,5.45 m 12.34,-1.54 c 0,-9.66 -5.65,-15.32 -18.81,-15.32 h -14.39 c -4.73,0 -6.99,-1.34 -6.99,-4.01 0,-2.36 1.75,-3.91 3.8,-4.83 2.36,0.62 5.14,0.93 8.22,0.93 14.6,0 22.21,-7.2 22.21,-17.99 0,-6.58 -2.78,-11.82 -8.33,-14.91 v -1.44 h 11.41 v -10.07 h -8.33 c -4.93,0 -7.61,2.57 -7.61,7.81 v 1.75 c -2.67,-0.93 -6.07,-1.34 -9.35,-1.34 -14.5,0 -22.21,7.3 -22.21,18.2 0,7.09 3.29,12.64 9.77,15.63 v 0.41 c -5.14,1.13 -9.87,3.91 -9.87,9.46 0,4.32 2.47,7.81 6.89,8.94 V 732 c -5.96,0.93 -9.56,4.32 -9.56,10.28 0,7.92 6.89,12.64 24.98,12.64 20.56,0 28.17,-6.07 28.17,-17.27 m -99.23,-4.52 v -35.47 c 0,-5.76 5.24,-8.64 10.69,-8.64 6.27,0 8.84,3.91 8.84,11.51 v 32.59 h 13.16 V 699.2 c 0,-13.36 -6.17,-20.97 -17.17,-20.97 -8.33,0 -12.85,4.42 -15.01,10.18 h -0.51 v -8.94 h -13.16 v 53.66 z m -52.88,-45.03 c 6.78,0 10.59,5.04 10.59,12.44 v 0.93 h -22 v -0.82 c 0,-7.4 4.52,-12.54 11.41,-12.54 m 0.21,46.25 c 9.97,0 17.78,-3.8 22.21,-9.87 l -7.09,-7.92 c -3.29,4.21 -7.2,7.3 -13.67,7.3 -8.64,0 -13.06,-5.24 -13.06,-12.95 v -1.34 h 35.67 v -4.32 c 0,-14.7 -7.71,-27.04 -24.47,-27.04 -15.73,0 -24.88,11 -24.88,27.96 0,16.96 9.46,28.17 25.29,28.17 m -105.17,-1.22 v -35.47 c 0,-5.76 5.24,-8.64 10.69,-8.64 6.27,0 8.84,3.91 8.84,11.51 v 32.59 h 13.16 V 699.2 c 0,-13.36 -6.17,-20.97 -17.17,-20.97 -8.33,0 -12.85,4.42 -15.01,10.18 h -0.51 v -8.94 h -13.16 v 53.66 z m -44.8,0 h 13.16 v -53.66 h -13.16 z m 6.58,-61.48 c 5.35,0 7.71,-2.78 7.71,-6.58 v -2.06 c 0,-3.8 -2.36,-6.58 -7.71,-6.58 -5.35,0 -7.71,2.78 -7.71,6.58 v 2.06 c 0,3.8 2.26,6.58 7.71,6.58"
           id="path13"
           style="fill:#ffffff;stroke-width:0px" /><path
           class="cls-13"
           d="m 2426.01,623.41 h 9.46 v -10.49 h -10.18 v -32.69 h 11 v -10.49 h -11 v -14.7 h -11.82 v 9.15 c 0,3.7 -1.23,5.55 -5.14,5.55 h -4.11 v 10.49 h 7.92 v 29.5 c 0,8.74 4.83,13.67 13.88,13.67 m -67.53,0.01 v -35.47 c 0,-5.76 5.24,-8.64 10.69,-8.64 6.27,0 8.84,3.91 8.84,11.51 v 32.59 h 13.16 v -33.92 c 0,-13.36 -6.17,-20.97 -17.17,-20.97 -8.33,0 -12.85,4.42 -15.01,10.18 h -0.51 v -8.94 h -13.16 v 53.66 z m -52.88,-45.03 c 6.78,0 10.59,5.04 10.59,12.44 v 0.93 h -22 v -0.82 c 0,-7.4 4.52,-12.54 11.41,-12.54 m 0.2,46.25 c 9.97,0 17.78,-3.8 22.21,-9.87 l -7.09,-7.92 c -3.29,4.21 -7.2,7.3 -13.67,7.3 -8.64,0 -13.06,-5.24 -13.06,-12.95 v -1.34 h 35.67 v -4.32 c 0,-14.7 -7.71,-27.04 -24.47,-27.04 -15.73,0 -24.88,11 -24.88,27.96 0,16.96 9.46,28.17 25.29,28.17 m -104.09,-1.22 v -35.47 c 0,-5.76 4.93,-8.64 9.97,-8.64 5.86,0 8.64,3.8 8.64,11.51 v 32.59 h 13.16 v -35.47 c 0,-5.76 4.83,-8.64 9.97,-8.64 5.86,0 8.64,3.8 8.64,11.51 v 32.59 h 13.16 v -33.92 c 0,-13.36 -5.96,-20.97 -16.45,-20.97 -8.53,0 -14.49,4.83 -16.45,10.79 h -0.21 c -2.57,-7.2 -8.22,-10.79 -15.52,-10.79 -8.02,0 -12.34,4.52 -14.39,10.18 h -0.51 v -8.94 h -13.16 v 53.66 h 13.16 z m -52.88,-45.03 c 6.78,0 10.59,5.04 10.59,12.44 v 0.93 h -22 v -0.82 c 0,-7.4 4.52,-12.54 11.41,-12.54 m 0.2,46.25 c 9.97,0 17.78,-3.8 22.21,-9.87 l -7.09,-7.92 c -3.29,4.21 -7.2,7.3 -13.67,7.3 -8.64,0 -13.06,-5.24 -13.06,-12.95 v -1.34 h 35.67 v -4.32 c 0,-14.7 -7.71,-27.04 -24.47,-27.04 -15.73,0 -24.88,11 -24.88,27.96 0,16.96 9.46,28.17 25.29,28.17 m -60.94,-28.88 c -6.27,0 -9.66,-2.88 -9.66,-8.22 v -1.75 c 0,-5.45 3.39,-8.22 9.66,-8.22 6.27,0 9.66,2.78 9.66,8.22 v 1.75 c 0,5.35 -3.39,8.22 -9.66,8.22 m 15.83,33.72 c 0,4.52 -3.8,6.68 -12.34,6.68 h -6.58 c -8.22,0 -11.31,-2.47 -11.31,-6.58 0,-2.16 0.82,-4.11 2.78,-5.55 h 18.3 c 6.68,0 9.15,2.06 9.15,5.45 m 12.34,-1.54 c 0,-9.66 -5.65,-15.32 -18.81,-15.32 h -14.39 c -4.73,0 -6.99,-1.34 -6.99,-4.01 0,-2.36 1.75,-3.91 3.8,-4.83 2.36,0.62 5.14,0.93 8.22,0.93 14.6,0 22.21,-7.2 22.21,-17.99 0,-6.58 -2.78,-11.82 -8.33,-14.91 v -1.44 h 11.41 v -10.07 h -8.33 c -4.93,0 -7.61,2.57 -7.61,7.81 v 1.75 c -2.67,-0.93 -6.07,-1.34 -9.35,-1.34 -14.5,0 -22.21,7.3 -22.21,18.2 0,7.09 3.29,12.64 9.77,15.63 v 0.41 c -5.14,1.13 -9.87,3.91 -9.87,9.46 0,4.32 2.47,7.81 6.89,8.94 v 1.13 c -5.96,0.93 -9.56,4.32 -9.56,10.28 0,7.92 6.89,12.64 24.98,12.64 20.56,0 28.17,-6.07 28.17,-17.27 m -92.68,-12.85 c -5.14,0 -8.12,-2.16 -8.12,-6.48 v -1.75 c 0,-4.21 3.39,-6.58 10.28,-6.58 h 8.43 v 7.09 c 0,5.04 -4.73,7.71 -10.59,7.71 m -4.42,9.57 c 8.02,0 13.88,-3.6 15.63,-10.49 h 0.62 c 0.82,5.55 4.32,9.25 9.97,9.25 h 7.3 v -10.49 h -5.35 v -25.29 c 0,-12.23 -7.71,-19.12 -22.21,-19.12 -10.79,0 -17.07,4.11 -20.97,10.28 l 7.81,6.99 c 2.57,-3.7 6.07,-6.78 12.23,-6.78 6.99,0 9.97,3.5 9.97,9.46 v 3.91 h -9.15 c -14.6,0 -22.92,5.45 -22.92,16.45 0,9.56 6.17,15.83 17.07,15.83 m -64.25,-1.23 v -35.47 c 0,-5.76 5.24,-8.64 10.69,-8.64 6.27,0 8.84,3.91 8.84,11.51 v 32.59 h 13.16 v -33.92 c 0,-13.36 -6.17,-20.97 -17.17,-20.97 -8.33,0 -12.85,4.42 -15.01,10.18 h -0.51 v -8.94 h -13.16 v 53.66 z m -56.9,-8.33 c -5.14,0 -8.12,-2.16 -8.12,-6.48 v -1.75 c 0,-4.21 3.39,-6.58 10.28,-6.58 h 8.43 v 7.09 c 0,5.04 -4.73,7.71 -10.59,7.71 m -4.42,9.57 c 8.02,0 13.88,-3.6 15.63,-10.49 h 0.62 c 0.82,5.55 4.32,9.25 9.97,9.25 h 7.3 v -10.49 h -5.35 v -25.29 c 0,-12.23 -7.71,-19.12 -22.21,-19.12 -10.79,0 -17.07,4.11 -20.97,10.28 l 7.81,6.99 c 2.57,-3.7 6.07,-6.78 12.23,-6.78 6.99,0 9.97,3.5 9.97,9.46 v 3.91 h -9.15 c -14.6,0 -22.92,5.45 -22.92,16.45 0,9.56 6.17,15.83 17.07,15.83 m -95.2,-1.23 v -35.47 c 0,-5.76 4.93,-8.64 9.97,-8.64 5.86,0 8.64,3.8 8.64,11.51 v 32.59 h 13.16 v -35.47 c 0,-5.76 4.83,-8.64 9.97,-8.64 5.86,0 8.64,3.8 8.64,11.51 v 32.59 h 13.16 v -33.92 c 0,-13.36 -5.96,-20.97 -16.45,-20.97 -8.53,0 -14.5,4.83 -16.45,10.79 h -0.21 c -2.57,-7.2 -8.22,-10.79 -15.52,-10.79 -8.02,0 -12.34,4.52 -14.39,10.18 h -0.51 v -8.94 h -13.16 v 53.66 h 13.16 z m -89.13,-8.33 c -5.14,0 -8.12,-2.16 -8.12,-6.48 v -1.75 c 0,-4.21 3.39,-6.58 10.28,-6.58 h 8.43 v 7.09 c 0,5.04 -4.73,7.71 -10.59,7.71 m -4.42,9.57 c 8.02,0 13.88,-3.6 15.63,-10.49 h 0.62 c 0.82,5.55 4.32,9.25 9.97,9.25 h 7.3 v -10.49 h -5.35 v -25.29 c 0,-12.23 -7.71,-19.12 -22.21,-19.12 -10.79,0 -17.07,4.11 -20.97,10.28 l 7.81,6.99 c 2.57,-3.7 6.07,-6.78 12.23,-6.78 6.99,0 9.97,3.5 9.97,9.46 v 3.91 h -9.15 c -14.6,0 -22.92,5.45 -22.92,16.45 0,9.56 6.17,15.83 17.07,15.83 m -39.36,-1.23 h 9.46 v -10.49 h -10.18 v -32.69 h 11 v -10.49 h -11 v -14.7 h -11.82 v 9.15 c 0,3.7 -1.23,5.55 -5.14,5.55 h -4.11 v 10.49 h 7.92 v 29.5 c 0,8.74 4.83,13.67 13.88,13.67 m -59.32,-8.32 c -5.14,0 -8.12,-2.16 -8.12,-6.48 v -1.75 c 0,-4.21 3.39,-6.58 10.28,-6.58 h 8.43 v 7.09 c 0,5.04 -4.73,7.71 -10.59,7.71 m -4.42,9.57 c 8.02,0 13.88,-3.6 15.63,-10.49 h 0.62 c 0.82,5.55 4.32,9.25 9.97,9.25 h 7.3 v -10.49 h -5.35 v -25.29 c 0,-12.23 -7.71,-19.12 -22.21,-19.12 -10.79,0 -17.07,4.11 -20.97,10.28 l 7.81,6.99 c 2.57,-3.7 6.07,-6.78 12.23,-6.78 6.99,0 9.97,3.5 9.97,9.46 v 3.91 h -9.15 c -14.6,0 -22.92,5.45 -22.92,16.45 0,9.56 6.17,15.83 17.07,15.83 m -56.5,-10.9 c -6.78,0 -11.41,-4.93 -11.41,-12.54 v -9.25 c 0,-7.61 4.63,-12.64 11.41,-12.64 6.27,0 11.1,3.39 11.1,8.64 v 17.07 c 0,5.55 -4.83,8.74 -11.1,8.74 m 11.11,9.65 h 13.16 v -76.07 h -13.16 v 31.25 h -0.51 c -1.85,-6.17 -7.71,-10.07 -14.8,-10.07 -13.47,0 -20.97,10.07 -20.97,27.96 0,17.89 7.5,28.17 20.97,28.17 7.09,0 12.85,-4.11 14.8,-10.18 h 0.51 z m -129.95,0 h 13.16 v -35.47 c 0,-5.76 5.24,-8.64 10.69,-8.64 6.27,0 8.84,3.91 8.84,11.51 v 32.59 h 13.16 v -33.92 c 0,-13.36 -6.17,-20.97 -17.17,-20.97 -8.33,0 -12.85,4.42 -15.01,10.18 h -0.51 v -31.35 h -13.16 z m -35.14,1.23 c 10.38,0 17.89,-4.73 21.38,-14.19 l -10.07,-4.83 c -1.95,4.83 -5.04,8.43 -11.31,8.43 -7.3,0 -11,-5.04 -11,-12.54 v -9.77 c 0,-7.5 3.7,-12.64 11,-12.64 5.65,0 9.05,3.29 10.28,7.81 l 10.79,-4.83 c -3.19,-8.43 -10.28,-13.57 -21.07,-13.57 -15.83,0 -24.78,10.79 -24.78,27.96 0,17.17 8.94,28.17 24.78,28.17 m -53.05,-1.23 v -32.9 c 0,-5.86 4.63,-8.33 13.47,-8.33 h 4.11 v -12.44 h -2.88 c -8.53,0 -12.85,5.45 -14.19,11.1 h -0.51 v -11.1 h -13.16 v 53.66 h 13.16 z m -56.9,-8.33 c -5.14,0 -8.12,-2.16 -8.12,-6.48 v -1.75 c 0,-4.21 3.39,-6.58 10.28,-6.58 h 8.43 v 7.09 c 0,5.04 -4.73,7.71 -10.59,7.71 m -4.42,9.57 c 8.02,0 13.88,-3.6 15.63,-10.49 h 0.62 c 0.82,5.55 4.32,9.25 9.97,9.25 h 7.3 v -10.49 h -5.35 v -25.29 c 0,-12.23 -7.71,-19.12 -22.21,-19.12 -10.79,0 -17.07,4.11 -20.97,10.28 l 7.81,6.99 c 2.57,-3.7 6.07,-6.78 12.23,-6.78 6.99,0 9.97,3.5 9.97,9.46 v 3.91 h -9.15 c -14.6,0 -22.92,5.45 -22.92,16.45 0,9.56 6.17,15.83 17.07,15.83 m -53,-46.26 c 6.78,0 10.59,5.04 10.59,12.44 v 0.93 h -22 v -0.82 c 0,-7.4 4.52,-12.54 11.41,-12.54 m 0.2,46.25 c 9.97,0 17.78,-3.8 22.21,-9.87 l -7.09,-7.92 c -3.29,4.21 -7.2,7.3 -13.67,7.3 -8.64,0 -13.06,-5.24 -13.06,-12.95 v -1.34 h 35.67 v -4.32 c 0,-14.7 -7.71,-27.04 -24.47,-27.04 -15.73,0 -24.88,11 -24.88,27.96 0,16.96 9.46,28.17 25.29,28.17 m -59.82,0.01 c 13.36,0 22.1,-7.2 22.1,-17.58 0,-8.94 -5.65,-14.19 -17.37,-15.83 l -5.45,-0.72 c -5.04,-0.82 -6.99,-2.47 -6.99,-6.07 0,-3.29 2.47,-5.55 8.12,-5.55 5.24,0 9.77,2.47 12.85,5.76 l 7.71,-7.71 c -5.14,-5.35 -10.49,-8.43 -20.97,-8.43 -12.23,0 -20.35,6.58 -20.35,16.96 0,9.77 6.37,14.8 17.89,16.24 l 5.35,0.72 c 4.73,0.62 6.58,2.57 6.58,5.65 0,3.8 -2.67,6.17 -8.94,6.17 -6.27,0 -10.79,-2.78 -14.7,-7.3 l -8.02,7.81 c 5.35,6.17 12.03,9.87 22.21,9.87 m -57.78,-46.25 c 6.78,0 10.59,5.04 10.59,12.44 v 0.93 h -22 v -0.82 c 0,-7.4 4.52,-12.54 11.41,-12.54 m 0.21,46.25 c 9.97,0 17.78,-3.8 22.21,-9.87 l -7.09,-7.92 c -3.29,4.21 -7.2,7.3 -13.67,7.3 -8.64,0 -13.06,-5.24 -13.06,-12.95 v -1.34 h 35.67 v -4.32 c 0,-14.7 -7.71,-27.04 -24.47,-27.04 -15.73,0 -24.88,11 -24.88,27.96 0,16.96 9.46,28.17 25.29,28.17 m -78.64,-40.29 v -20.87 h 17.48 c 5.24,0 8.43,2.78 8.43,8.02 v 4.73 c 0,5.24 -3.19,8.12 -8.43,8.12 z m 0,11.41 h 12.85 l 13.36,27.65 h 15.11 l -14.7,-29.2 c 8.84,-2.98 13.36,-10.49 13.36,-20.35 0,-13.57 -8.12,-22.21 -21.18,-22.21 h -32.38 v 71.76 h 13.57 v -27.65 z"
           id="path14"
           style="fill:#ffffff;stroke-width:0px" /><path
           class="cls-13"
           d="m 2384.04,463.53 h 41.99 V 346.65 h -79.28 v 33.21 h 37.29 v 15.98 c 0,9.82 -2.61,17.86 -7.83,24.13 -5.23,6.27 -13.16,9.4 -23.81,9.4 -13.58,0 -23.03,-5.33 -28.36,-15.98 -5.33,-10.65 -7.99,-24.86 -7.99,-42.62 v -35.72 c 0,-17.75 2.45,-31.54 7.36,-41.36 4.9,-9.82 13.32,-14.73 25.22,-14.73 5.43,0 10.03,0.99 13.79,2.98 3.76,1.99 6.89,4.65 9.4,7.99 2.51,3.34 4.54,7.16 6.11,11.44 1.57,4.28 2.98,8.72 4.23,13.32 l 43.87,-10.65 c -2.3,-9.4 -5.43,-17.96 -9.4,-25.7 -3.97,-7.72 -9.04,-14.36 -15.2,-19.9 -6.16,-5.53 -13.53,-9.82 -22.09,-12.85 -8.57,-3.02 -18.49,-4.54 -29.77,-4.54 -28.41,0 -49.41,9.87 -62.98,29.61 -13.58,19.74 -20.37,48.21 -20.37,85.39 0,17.34 1.41,32.9 4.23,46.69 2.82,13.79 7.05,25.49 12.69,35.1 5.64,9.61 12.58,16.92 20.84,21.93 8.25,5.01 17.7,7.52 28.36,7.52 6.68,0 12.69,-0.94 18.02,-2.82 5.33,-1.88 9.97,-4.44 13.94,-7.68 3.97,-3.24 7.31,-6.94 10.03,-11.12 2.71,-4.18 5.01,-8.56 6.89,-13.16 h 2.82 z m -206.8,0 h 56.4 V 244.81 h -40.11 V 390.2 h -3.45 l -49.82,-145.39 h -56.4 v 218.72 h 40.11 V 318.14 h 3.45 z m -121.14,0 v -34.78 h -47 V 279.59 h 47 v -34.78 h -141.01 v 34.78 h 47 v 149.16 h -47 v 34.78 z M 1818.46,293.39 h 2.82 v 91.81 h -60.48 z m 47.94,170.14 v -41.99 h 28.2 v -36.35 h -28.2 V 244.81 H 1810 l -87.11,136.62 v 40.11 h 98.39 v 41.99 z m -163.91,0 v -34.78 h -47 V 279.59 h 47 v -34.78 h -141.01 v 34.78 h 47 v 149.16 h -47 v 34.78 z m -273.8,-36.97 V 281.79 h 20.99 c 13.99,0 24.23,4.49 30.71,13.47 6.47,8.99 9.71,21.94 9.71,38.86 v 39.79 c 0,17.13 -3.24,30.19 -9.71,39.17 -6.48,8.99 -16.71,13.47 -30.71,13.47 h -20.99 z m -46.38,36.97 h 70.5 c 29.45,0 51.28,-9.4 65.49,-28.2 14.2,-18.8 21.31,-45.85 21.31,-81.16 0,-35.31 -7.1,-62.36 -21.31,-81.16 -14.21,-18.8 -36.04,-28.2 -65.49,-28.2 h -70.5 z m -129.22,0 v -91.5 h 87.74 v -38.54 h -87.74 v -50.13 h 98.08 v -38.54 h -145.08 v 218.72 h 47 z m -145.7,0 h 56.4 V 244.81 h -40.11 V 390.2 h -3.45 l -49.82,-145.39 h -56.4 v 218.72 h 40.11 V 318.14 h 3.45 z"
           id="path15"
           style="fill:#ffffff;stroke-width:0px" /></g></g></g><g
     inkscape:groupmode="layer"
     id="layer1"
     inkscape:label="FG" /></svg>
