<svg width="271" height="271" viewBox="0 0 271 271" fill="none" xmlns="http://www.w3.org/2000/svg">
<rect x="32" y="35" width="202" height="213" rx="26" fill="white" stroke="#2F60AC" stroke-width="14"/>
<path d="M200.088 182H67.6361C64.5238 182 62 184.523 62 187.635C62 190.747 64.5238 193.27 67.6361 193.27H200.088C203.2 193.27 205.724 190.747 205.724 187.635C205.724 184.523 203.2 182 200.088 182Z" fill="#2F60AC"/>
<path d="M179.526 212.475H69.9008C66.7884 212.475 64.2646 214.998 64.2646 218.11C64.2646 221.222 66.7884 223.745 69.9008 223.745H179.526C182.638 223.745 185.162 221.222 185.162 218.11C185.162 214.998 182.638 212.475 179.526 212.475Z" fill="#2F60AC"/>
<path d="M201.517 209.475H198.981C195.869 209.475 193.345 211.998 193.345 215.11C193.345 218.222 195.869 220.745 198.981 220.745H201.517C204.63 220.745 207.153 218.222 207.153 215.11C207.153 211.998 204.63 209.475 201.517 209.475Z" fill="#2F60AC"/>
<path fill-rule="evenodd" clip-rule="evenodd" d="M104 75.1C104 60.1331 115.83 48 130.422 48H139.23C141.095 48.0009 142.971 48.2326 144.807 48.5464C147.86 49.0685 152.067 50.1294 156.38 52.3412C160.727 54.5708 165.343 58.057 168.852 63.4553C172.398 68.9102 174.46 75.7774 174.46 84.133C174.46 92.4883 172.398 99.3554 168.852 104.811C165.343 110.209 160.728 113.695 156.38 115.925C152.067 118.137 147.86 119.198 144.807 119.72C142.982 120.032 141.123 120.255 139.27 120.267H121.615V147.367C121.615 152.356 117.672 156.4 112.807 156.4C107.943 156.4 104 152.356 104 147.367V75.1ZM121.615 75.1V102.2L139.233 102.198C142.403 102.09 145.675 101.215 148.503 99.7655C150.76 98.6074 152.75 97.0131 154.196 94.7891C155.604 92.622 156.845 89.3275 156.845 84.133C156.845 78.9389 155.604 75.6439 154.196 73.477C152.75 71.2536 150.761 69.6585 148.503 68.5006C145.675 67.0507 142.403 66.1767 139.234 66.0683L130.422 66.0667C125.558 66.0667 121.615 70.1111 121.615 75.1Z" fill="#2F60AC"/>
</svg>
