<svg width="348" height="344" viewBox="0 0 348 344" fill="none" xmlns="http://www.w3.org/2000/svg">
<path fill-rule="evenodd" clip-rule="evenodd" d="M333.5 174C333.5 262.089 262.089 333.5 174 333.5C85.9106 333.5 14.5 262.089 14.5 174C14.5 85.9106 85.9106 14.5 174 14.5C262.089 14.5 333.5 85.9106 333.5 174ZM43.599 174C43.599 246.019 101.982 304.401 174 304.401C246.019 304.401 304.401 246.019 304.401 174C304.401 101.982 246.019 43.599 174 43.599C101.982 43.599 43.599 101.982 43.599 174Z" fill="#2F60AC"/>
<path d="M74.6855 52L274.786 295.165" stroke="#DE1717" stroke-opacity="0.48" stroke-width="47"/>
<path fill-rule="evenodd" clip-rule="evenodd" d="M121 129C121 103.595 141.483 83 166.75 83H182C185.228 83.0015 188.478 83.3948 191.656 83.9275C196.943 84.8136 204.227 86.6145 211.695 90.3689C219.222 94.1535 227.215 100.071 233.29 109.234C239.43 118.493 243 130.15 243 144.333C243 158.515 239.43 170.172 233.29 179.431C227.215 188.595 219.224 194.512 211.695 198.297C204.227 202.051 196.943 203.853 191.656 204.739C188.496 205.268 185.277 205.647 182.069 205.667H151.5V251.667C151.5 260.135 144.672 267 136.25 267C127.828 267 121 260.135 121 251.667V129ZM151.5 129V175L182.005 174.997C187.495 174.813 193.16 173.329 198.055 170.868C201.964 168.902 205.41 166.196 207.913 162.421C210.351 158.742 212.5 153.15 212.5 144.333C212.5 135.516 210.351 129.923 207.913 126.245C205.41 122.471 201.965 119.764 198.055 117.798C193.16 115.337 187.495 113.853 182.006 113.669L166.75 113.667C158.327 113.667 151.5 120.532 151.5 129Z" fill="#2F60AC" fill-opacity="0.85"/>
</svg>
