<svg width="381" height="381" viewBox="0 0 381 381" fill="none" xmlns="http://www.w3.org/2000/svg">
<g clip-path="url(#clip0_1244_348)">
<path d="M354.964 50.7003H27.3051C12.0117 50.7003 -0.1 62.8081 -0.1 77.4699V101.6V165.099V303.529C-0.1 318.191 12.0117 330.299 27.3051 330.299H354.33C369.626 330.299 381.1 318.187 381.1 303.529V165.099V101.6V77.4699C381.1 62.8128 369.628 50.7003 354.964 50.7003ZM12.8001 114.4H368.2V152.3H12.8001V114.4ZM368.835 303.53C368.835 311.095 362.53 317.4 354.964 317.4H27.3051C19.1028 317.4 12.8001 311.093 12.8001 303.53V165.199H368.835V303.53ZM12.8001 101.5V77.4699C12.8001 69.9081 19.102 63.5996 27.3051 63.5996H354.33C362.523 63.5996 368.202 69.8995 368.835 77.4742V101.5H12.8001Z" fill="#2F60AC" stroke="#2F60AC" stroke-width="0.2"/>
<path d="M253.9 235.049V235.05H254C255.882 235.05 257.443 235.676 258.533 236.766C259.623 237.856 260.25 239.417 260.25 241.299C260.25 243.181 259.623 244.742 258.533 245.832C257.443 246.922 255.882 247.549 254 247.549H139.366C139.447 246.962 139.522 246.372 139.581 245.775C139.795 244.257 139.8 242.622 139.8 241.298C139.8 239.174 139.647 237.089 139.366 235.049H253.9ZM95.2502 285.85C113.19 285.85 128.466 275.538 135.559 260.45H209.45V285.75C209.45 287.678 210.093 289.292 211.226 290.424C212.358 291.557 213.972 292.2 215.9 292.2C217.828 292.2 219.442 291.557 220.574 290.424C221.707 289.292 222.349 287.678 222.349 285.75V260.45H234.85V273.05C234.85 274.977 235.492 276.592 236.625 277.724C237.757 278.857 239.372 279.499 241.299 279.499C243.227 279.499 244.841 278.857 245.973 277.724C247.106 276.592 247.749 274.977 247.749 273.05V260.45H253.999C264.849 260.45 273.148 252.15 273.148 241.3C273.148 230.45 264.849 222.15 253.999 222.15H135.557C128.465 207.062 113.19 196.75 95.2487 196.75C70.4288 196.75 50.6988 216.48 50.6988 241.3C50.6988 266.12 70.4296 285.85 95.2502 285.85ZM95.2502 209.65C112.975 209.65 126.9 223.576 126.9 241.3C126.9 259.024 112.974 272.95 95.2502 272.95C77.5252 272.95 63.6004 259.024 63.6004 241.3C63.6004 223.576 77.5252 209.65 95.2502 209.65Z" fill="#2F60AC" stroke="#2F60AC" stroke-width="0.2"/>
<path d="M327.518 241.3L300.283 268.534C297.705 271.113 297.705 274.986 300.284 277.565C300.925 278.206 301.57 278.691 302.298 279.015C303.027 279.339 303.835 279.499 304.799 279.499C305.764 279.499 306.572 279.339 307.301 279.015C308.029 278.691 308.674 278.206 309.315 277.565L341.065 245.815C343.643 243.237 343.643 239.363 341.065 236.784L340.994 236.855L341.065 236.784L309.315 205.034C306.736 202.455 302.863 202.455 300.283 205.034L300.283 205.034C297.705 207.613 297.705 211.486 300.283 214.066L300.283 214.066L327.518 241.3Z" fill="#2F60AC" stroke="#2F60AC" stroke-width="0.2"/>
</g>
<defs>
<clipPath id="clip0_1244_348">
<rect width="381" height="381" fill="white"/>
</clipPath>
</defs>
</svg>
