<svg width="271" height="271" viewBox="0 0 271 271" fill="none" xmlns="http://www.w3.org/2000/svg">
<path d="M240.107 183.821H244.232C245.208 183.821 246 184.612 246 185.588V205.622C246 206.598 245.208 207.39 244.232 207.39H212.408C211.431 207.39 210.64 206.598 210.64 205.622V185.588C210.64 184.612 211.431 183.821 212.408 183.821H216.533M240.107 183.821V172.036C240.107 168.108 237.749 160.252 228.32 160.252C218.89 160.252 216.533 168.108 216.533 172.036V183.821M240.107 183.821H216.533" stroke="#2F60AC" stroke-width="10" stroke-linecap="round" stroke-linejoin="round"/>
<path d="M132.339 131.211C147.359 131.211 159.537 120.753 159.537 107.853C159.537 94.9522 147.359 84.4941 132.339 84.4941C117.318 84.4941 105.141 94.9522 105.141 107.853C105.141 120.753 117.318 131.211 132.339 131.211Z" stroke="#2F60AC" stroke-width="10" stroke-linecap="round" stroke-linejoin="round"/>
<path d="M179.069 177.926C179.069 159.846 158.127 145.224 132.343 145.224C106.56 145.224 85.6172 159.846 85.6172 177.926" stroke="#2F60AC" stroke-width="10" stroke-linecap="round" stroke-linejoin="round"/>
<path d="M119.379 52.3415L77.7825 68.0101C68.1961 71.5939 60.3604 82.9286 60.3604 93.0965V155.021C60.3604 164.856 66.8624 177.774 74.7815 183.691L110.626 210.445C122.38 219.279 141.719 219.279 153.473 210.445L189.318 183.691C197.237 177.774 203.739 164.856 203.739 155.021V93.0965C203.739 82.8453 195.903 71.5106 186.317 67.9268L144.72 52.3415C137.635 49.7579 126.298 49.7579 119.379 52.3415Z" stroke="#2F60AC" stroke-width="14" stroke-linecap="round" stroke-linejoin="round"/>
<path d="M29.0515 85.0219C31.8413 85.0219 34.1029 82.7607 34.1029 79.9714C34.1029 77.1821 31.8413 74.9209 29.0515 74.9209C26.2616 74.9209 24 77.1821 24 79.9714C24 82.7607 26.2616 85.0219 29.0515 85.0219Z" fill="#2F60AC"/>
<path d="M227.857 201.187C230.684 201.187 232.975 198.896 232.975 196.07C232.975 193.244 230.684 190.953 227.857 190.953C225.031 190.953 222.739 193.244 222.739 196.07C222.739 198.896 225.031 201.187 227.857 201.187Z" fill="#2F60AC"/>
<path d="M229.57 148.889V64.3165C229.57 51.2742 218.653 36.8534 205.296 32.2939L147.341 12.4653C137.701 9.17823 121.906 9.17823 112.266 12.4653L54.3108 32.3999C40.9545 36.9594 30.0371 51.3802 30.0371 64.3165" stroke="#2F60AC" stroke-width="14" stroke-linecap="round" stroke-linejoin="round"/>
<path d="M30.0236 95.8586V162.23C30.0236 185.707 41.2174 211.664 54.9119 219.871L114.334 255.562C124.218 261.479 140.413 261.479 150.297 255.562L209.72 219.68" stroke="#2F60AC" stroke-width="14" stroke-linecap="round" stroke-linejoin="round"/>
</svg>
