<svg width="800" height="800" viewBox="0 0 800 800" fill="none" xmlns="http://www.w3.org/2000/svg">
<path fill-rule="evenodd" clip-rule="evenodd" d="M46.7773 399.985C46.7773 204.909 204.918 46.7676 399.995 46.7676C595.072 46.7676 753.211 204.909 753.211 399.985C753.211 595.061 595.072 753.205 399.995 753.205C204.918 753.205 46.7773 595.061 46.7773 399.985ZM399.995 97.4341C232.901 97.4341 97.4443 232.891 97.4443 399.985C97.4443 567.077 232.901 702.539 399.995 702.539C567.088 702.539 702.544 567.077 702.544 399.985C702.544 232.891 567.088 97.4341 399.995 97.4341ZM439.996 560C439.996 582.091 422.087 600 399.996 600C377.905 600 359.996 582.091 359.996 560C359.996 537.909 377.905 520 399.996 520C422.087 520 439.996 537.909 439.996 560ZM322.668 333.333C322.668 297.179 353.873 262.667 400.002 262.667C446.131 262.667 477.335 297.179 477.335 333.333C477.335 359.53 462.934 372.913 438.105 387.997C435.334 389.681 432.138 391.537 428.718 393.522C418.948 399.196 407.354 405.93 398.639 412.719C385.714 422.79 370.668 439.039 370.668 464C370.669 480.201 383.802 493.333 400.002 493.333C416.128 493.333 429.215 480.321 429.334 464.222L429.363 464.176C429.826 463.445 431.196 461.725 434.698 458.997C440.11 454.78 446.138 451.287 454.169 446.633C458.356 444.206 463.091 441.462 468.565 438.137C497.069 420.82 536 392.204 536 333.333C536 262.821 476.539 204 400.002 204C323.465 204 264.002 262.821 264.002 333.333C264.002 349.534 277.135 362.667 293.335 362.667C309.535 362.667 322.668 349.534 322.668 333.333Z" fill="#CA0B0B"/>
</svg>
