<svg width="507" height="507" viewBox="0 0 507 507" fill="none" xmlns="http://www.w3.org/2000/svg">
<g clip-path="url(#clip0_1147_37)">
<path d="M380.313 63.3749C358.703 63.2083 337.28 67.3796 317.312 75.642C297.343 83.9044 279.236 96.0898 264.062 111.477C248.888 96.0898 230.781 83.9044 210.812 75.642C190.844 67.3796 169.421 63.2083 147.811 63.3749C124.36 63.1672 101.152 68.1462 79.8501 77.9556C58.5477 87.765 39.6772 102.162 24.5892 120.117C22.2931 123.098 21.0722 126.768 21.1247 130.531V417.62C21.1577 421.012 22.1703 424.321 24.0405 427.151C25.9107 429.981 28.5588 432.21 31.666 433.569C34.6482 434.909 37.9271 435.452 41.182 435.145C44.4369 434.838 47.5563 433.691 50.2349 431.816C79.0481 412.304 113.077 401.938 147.875 402.072C187.656 401.526 226.302 415.333 256.732 440.963L263.281 448.463L271.393 440.963C301.825 415.341 340.471 401.541 380.25 402.093C415.067 401.961 449.113 412.342 477.932 431.879C480.612 433.715 483.717 434.836 486.952 435.135C490.186 435.435 493.444 434.903 496.416 433.591C499.53 432.235 502.185 430.008 504.063 427.178C505.94 424.349 506.96 421.037 507 417.641V130.531C507.056 126.798 505.858 123.153 503.599 120.18C488.506 102.21 469.627 87.7992 448.314 77.9788C427 68.1584 403.779 63.1715 380.313 63.3749ZM42.2497 411.726V131.82C55.3703 116.76 71.6046 104.73 89.8305 96.5598C108.056 88.3897 127.839 84.2749 147.811 84.4999C167.803 84.3205 187.597 88.4637 205.839 96.6456C224.081 104.828 240.339 116.855 253.5 131.904V411.874C222.027 391.559 185.334 380.815 147.875 380.947C110.45 380.892 73.7937 391.587 42.2497 411.726ZM485.875 411.726C454.335 391.575 417.677 380.893 380.25 380.947C342.79 380.815 306.097 391.559 274.625 411.874V131.904C287.889 117.003 304.155 105.076 322.355 96.9055C340.554 88.735 360.276 84.5059 380.226 84.4959C400.176 84.4859 419.902 88.6953 438.11 96.8476C456.317 105 472.595 116.911 485.875 131.799V411.726Z" fill="#2F60AC"/>
<rect x="166.043" y="181.886" width="214.208" height="165.409" fill="white"/>
<g clip-path="url(#clip1_1147_37)">
<path d="M364.681 203.504V263.812C361.533 260.09 357.862 256.84 353.781 254.167V203.504V203.004H353.281H186.675H186.175V203.504V322.508V323.008H186.675H284.025L284.25 323.408L278.932 329.928L278.932 329.928L275.69 333.909H186.675C183.651 333.909 180.752 332.708 178.614 330.57C176.476 328.432 175.274 325.532 175.274 322.508V203.504C175.274 200.481 176.476 197.581 178.614 195.443C180.752 193.305 183.651 192.104 186.675 192.104H353.281C356.304 192.104 359.204 193.305 361.342 195.443C363.48 197.581 364.681 200.481 364.681 203.504Z" fill="#2F60AC" stroke="#2F60AC"/>
<path d="M305.679 227.305H204.525V236.826H305.679V227.305Z" fill="#2F60AC"/>
<path d="M269.978 251.106H204.525V260.626H269.978V251.106Z" fill="#2F60AC"/>
<path d="M264.027 292.757H204.525V302.278H264.027V292.757Z" fill="#2F60AC"/>
<path d="M326.267 258.425C318.653 258.364 311.197 260.602 304.875 264.846C298.553 269.09 293.658 275.142 290.83 282.212C288.002 289.282 287.372 297.041 289.024 304.474C290.675 311.907 294.53 318.67 300.086 323.877L288.543 337.979L293.898 359.459L315.676 332.921C322.569 334.96 329.905 334.96 336.799 332.921L358.577 359.459L363.932 337.979L352.388 323.877C357.944 318.67 361.799 311.907 363.451 304.474C365.102 297.041 364.472 289.282 361.645 282.212C358.817 275.142 353.922 269.09 347.599 264.846C341.277 260.602 333.822 258.364 326.207 258.425H326.267ZM326.267 321.973C321.21 321.903 316.288 320.339 312.118 317.478C307.948 314.618 304.716 310.589 302.83 305.897C300.943 301.205 300.486 296.06 301.516 291.109C302.545 286.158 305.015 281.622 308.616 278.071C312.216 274.52 316.786 272.113 321.751 271.152C326.715 270.191 331.853 270.719 336.519 272.67C341.184 274.621 345.168 277.908 347.971 282.118C350.773 286.327 352.269 291.271 352.269 296.328C352.206 303.172 349.435 309.712 344.562 314.518C339.689 319.324 333.111 322.005 326.267 321.973Z" fill="#2F60AC"/>
</g>
</g>
<defs>
<clipPath id="clip0_1147_37">
<rect width="507" height="507" fill="white"/>
</clipPath>
<clipPath id="clip1_1147_37">
<rect width="214.208" height="214.208" fill="white" transform="translate(162.874 155.903)"/>
</clipPath>
</defs>
</svg>
