<svg width="1046" height="843" viewBox="0 0 1046 843" fill="none" xmlns="http://www.w3.org/2000/svg">
<g clip-path="url(#clip0_1153_190)">
<path d="M739.056 547.167H741.67L743.321 545.139L753.609 532.504L753.612 532.5L770.401 511.921L772.771 509.016L770.933 505.748L769.308 502.859L767.731 500.055H764.514H473.722V149.944H968.278V299V301.991L970.789 303.617C984.009 312.175 995.762 322.811 1005.59 335.114L1015.39 347.374V331.68V144.444C1015.39 133.408 1011.01 122.824 1003.2 115.021C995.398 107.217 984.814 102.833 973.778 102.833H468.222C457.186 102.833 446.603 107.217 438.799 115.021C430.995 122.824 426.611 133.408 426.611 144.444V505.555C426.611 516.591 430.995 527.175 438.799 534.979C446.603 542.782 457.186 547.167 468.222 547.167H739.056Z" fill="#2F60AC" stroke="#2F60AC" stroke-width="11"/>
<path d="M829.333 216.667H522.389V245.556H829.333V216.667Z" fill="#2F60AC"/>
<path d="M721 288.889H522.389V317.778H721V288.889Z" fill="#2F60AC"/>
<path d="M702.944 415.278H522.389V444.167H702.944V415.278Z" fill="#2F60AC"/>
<path d="M891.806 311.097C868.701 310.914 846.078 317.705 826.893 330.583C807.709 343.46 792.855 361.826 784.274 383.279C775.693 404.732 773.783 428.275 778.794 450.831C783.805 473.387 795.503 493.907 812.361 509.708L777.334 552.5L793.584 617.681L859.667 537.153C880.585 543.338 902.846 543.338 923.764 537.153L989.847 617.681L1006.1 552.5L971.07 509.708C987.927 493.907 999.626 473.387 1004.64 450.831C1009.65 428.275 1007.74 404.732 999.157 383.279C990.576 361.826 975.722 343.46 956.538 330.583C937.353 317.705 914.73 310.914 891.625 311.097H891.806ZM891.806 503.931C876.462 503.717 861.525 498.972 848.871 490.292C836.217 481.613 826.411 469.386 820.687 455.148C814.963 440.911 813.575 425.3 816.699 410.276C819.823 395.253 827.319 381.488 838.244 370.713C849.169 359.938 863.036 352.633 878.101 349.717C893.166 346.801 908.757 348.404 922.914 354.325C937.071 360.245 949.161 370.219 957.665 382.992C966.169 395.765 970.707 410.766 970.709 426.111C970.518 446.879 962.109 466.726 947.322 481.31C932.535 495.894 912.574 504.027 891.806 503.931Z" fill="#2F60AC"/>
<rect x="766.15" y="183.288" width="125.172" height="67.0564" fill="white"/>
</g>
<rect x="343" y="181" width="437" height="443" fill="white"/>
<g clip-path="url(#clip1_1153_190)">
<path d="M404.806 720.667H407.42L409.071 718.639L421.212 703.729L421.215 703.725L441.026 679.441L443.396 676.536L441.558 673.268L439.64 669.859L438.063 667.055H434.847H90.7224V251.944H676.278V428.82V431.811L678.789 433.437C694.478 443.593 708.425 456.215 720.092 470.816L729.889 483.077V467.383V246.444C729.889 233.685 724.82 221.447 715.798 212.425C706.775 203.402 694.538 198.333 681.778 198.333H85.2224C72.4626 198.333 60.2253 203.402 51.2027 212.425C42.1802 221.447 37.1113 233.684 37.1113 246.444V672.555C37.1113 685.315 42.1802 697.553 51.2027 706.575C60.2253 715.598 72.4626 720.667 85.2224 720.667H404.806Z" fill="#2F60AC" stroke="#2F60AC" stroke-width="11"/>
<path d="M511.333 331.667H149.139V365.756H511.333V331.667Z" fill="#2F60AC"/>
<path d="M383.5 416.889H149.139V450.978H383.5V416.889Z" fill="#2F60AC"/>
<path d="M362.194 566.028H149.139V600.117H362.194V566.028Z" fill="#2F60AC"/>
<path d="M585.05 443.095C557.786 442.878 531.091 450.892 508.453 466.087C485.815 481.283 468.288 502.954 458.162 528.269C448.036 553.584 445.783 581.365 451.696 607.981C457.609 634.597 471.413 658.81 491.306 677.456L449.973 727.95L469.148 804.863L547.126 709.84C571.81 717.139 598.077 717.139 622.761 709.84L700.739 804.863L719.914 727.95L678.581 677.456C698.474 658.81 712.278 634.597 718.191 607.981C724.104 581.365 721.851 553.584 711.725 528.269C701.599 502.954 684.072 481.283 661.434 466.087C638.796 450.892 612.101 442.878 584.837 443.095H585.05ZM585.05 670.638C566.945 670.386 549.318 664.787 534.387 654.545C519.455 644.303 507.884 629.875 501.13 613.075C494.375 596.275 492.738 577.854 496.424 560.126C500.111 542.398 508.956 526.156 521.847 513.441C534.739 500.727 551.102 492.107 568.879 488.666C586.656 485.226 605.053 487.117 621.758 494.103C638.463 501.089 652.729 512.858 662.764 527.93C672.799 543.002 678.154 560.704 678.155 578.811C677.93 603.317 668.008 626.737 650.56 643.946C633.111 661.154 609.557 670.752 585.05 670.638Z" fill="#2F60AC"/>
</g>
<defs>
<clipPath id="clip0_1153_190">
<rect width="650" height="650" fill="white" transform="translate(396)"/>
</clipPath>
<clipPath id="clip1_1153_190">
<rect width="767" height="767" fill="white" transform="translate(0 76)"/>
</clipPath>
</defs>
</svg>
