<svg width="800" height="800" viewBox="0 0 800 800" fill="none" xmlns="http://www.w3.org/2000/svg">
<path d="M433.334 633.333H576.474C638.647 633.333 669.734 633.333 687.384 620.307C702.774 608.95 712.544 591.53 714.21 572.477C716.12 550.623 699.91 524.097 667.49 471.043L634.26 416.667M204.338 353.507L132.51 471.047C100.089 524.097 83.8793 550.623 85.791 572.477C87.4577 591.53 97.2273 608.95 112.616 620.307C130.267 633.333 161.353 633.333 223.526 633.333H283.334M562.964 300L491.017 182.269C460.924 133.026 445.877 108.405 426.507 100.011C409.597 92.6829 390.404 92.6829 373.494 100.011C354.124 108.405 339.077 133.026 308.984 182.27L274.989 237.896M600 166.669L563.397 303.271L426.794 266.669M66.667 386.603L203.27 350L239.872 486.603M516.667 733.333L416.667 633.333L516.667 533.333" stroke="#2F60AC" stroke-width="48.67" stroke-linecap="round" stroke-linejoin="round"/>
</svg>
