<svg width="348" height="348" viewBox="0 0 348 348" fill="none" xmlns="http://www.w3.org/2000/svg">
<path d="M72.5 130.5C72.5 122.492 78.9919 116 87 116H145C153.008 116 159.5 122.492 159.5 130.5C159.5 138.508 153.008 145 145 145H130.5V217.5C130.5 225.508 124.008 232 116 232C107.992 232 101.5 225.508 101.5 217.5V145H87C78.9919 145 72.5 138.508 72.5 130.5Z" fill="#2F60AC" fill-opacity="0.81"/>
<path d="M199.639 121.217C195.731 116.528 189.303 114.788 183.564 116.866C177.824 118.944 174 124.395 174 130.5V217.5C174 225.508 180.492 232 188.5 232C196.508 232 203 225.508 203 217.5V170.549L213.611 183.283C216.366 186.589 220.446 188.5 224.75 188.5C229.054 188.5 233.134 186.589 235.889 183.283L246.5 170.55V217.5C246.5 225.508 252.992 232 261 232C269.008 232 275.5 225.508 275.5 217.5V130.5C275.5 124.395 271.676 118.944 265.936 116.866C260.197 114.788 253.769 116.528 249.861 121.217L224.75 151.351L199.639 121.217Z" fill="#2F60AC" fill-opacity="0.81"/>
<path fill-rule="evenodd" clip-rule="evenodd" d="M333.5 174C333.5 262.089 262.089 333.5 174 333.5C85.9106 333.5 14.5 262.089 14.5 174C14.5 85.9106 85.9106 14.5 174 14.5C262.089 14.5 333.5 85.9106 333.5 174ZM43.599 174C43.599 246.019 101.982 304.401 174 304.401C246.019 304.401 304.401 246.019 304.401 174C304.401 101.982 246.019 43.599 174 43.599C101.982 43.599 43.599 101.982 43.599 174Z" fill="#2F60AC"/>
<path opacity="0.81" d="M64.6855 61L268.787 300.521" stroke="#DE1717" stroke-opacity="0.48" stroke-width="47"/>
</svg>
