<?xml version="1.0" encoding="UTF-8" standalone="no"?>
<svg
   width="923"
   height="273"
   viewBox="0 0 923 273"
   fill="none"
   version="1.1"
   id="svg2"
   sodipodi:docname="unistuttgart_logo_de.svg"
   inkscape:version="1.4 (e7c3feb100, 2024-10-09)"
   xmlns:inkscape="http://www.inkscape.org/namespaces/inkscape"
   xmlns:sodipodi="http://sodipodi.sourceforge.net/DTD/sodipodi-0.dtd"
   xmlns="http://www.w3.org/2000/svg"
   xmlns:svg="http://www.w3.org/2000/svg">
  <defs
     id="defs2" />
  <sodipodi:namedview
     id="namedview2"
     pagecolor="#505050"
     bordercolor="#eeeeee"
     borderopacity="1"
     inkscape:showpageshadow="0"
     inkscape:pageopacity="0"
     inkscape:pagecheckerboard="0"
     inkscape:deskcolor="#505050"
     inkscape:zoom="2.0092091"
     inkscape:cx="674.14586"
     inkscape:cy="260.05257"
     inkscape:window-width="1920"
     inkscape:window-height="1536"
     inkscape:window-x="20"
     inkscape:window-y="20"
     inkscape:window-maximized="0"
     inkscape:current-layer="svg2" />
  <rect
     width="923"
     height="273"
     fill="white"
     id="rect1"
     style="fill:#00519e;fill-opacity:0" />
  <path
     d="M131.318 130.393C131.318 127.117 128.653 124.455 125.38 124.455C122.109 124.455 119.461 127.117 119.461 130.393C119.461 133.659 122.109 136.313 125.38 136.313C128.653 136.313 131.318 133.659 131.318 130.393ZM131.318 148.846C131.318 145.58 128.653 142.915 125.38 142.915C122.109 142.915 119.461 145.58 119.461 148.846C119.461 152.119 122.109 154.777 125.38 154.777C128.653 154.777 131.318 152.119 131.318 148.846ZM135.597 133.397C132.333 133.397 129.68 136.05 129.68 139.326C129.68 142.59 132.333 145.253 135.597 145.253C138.874 145.253 141.525 142.59 141.525 139.326C141.525 136.05 138.874 133.397 135.597 133.397ZM146.748 124.086C143.482 124.086 140.824 126.746 140.824 130.015C140.824 133.29 143.482 135.937 146.748 135.937C150.019 135.937 152.682 133.29 152.682 130.015C152.682 126.746 150.019 124.086 146.748 124.086ZM146.656 143.112C143.401 143.112 140.731 145.782 140.731 149.055C140.731 152.316 143.401 154.975 146.656 154.975C149.929 154.975 152.594 152.316 152.594 149.055C152.594 145.782 149.929 143.112 146.656 143.112ZM135.188 164.198C138.468 164.198 141.126 161.528 141.126 158.271C141.126 155.005 138.468 152.34 135.188 152.34C131.924 152.34 129.276 155.005 129.276 158.271C129.276 161.528 131.924 164.198 135.188 164.198ZM131.88 169.758C131.88 166.478 129.222 163.827 125.944 163.827C122.676 163.827 120.018 166.478 120.018 169.758C120.018 173.024 122.676 175.684 125.944 175.684C129.222 175.684 131.88 173.024 131.88 169.758ZM116.71 188.271C119.983 188.271 122.652 185.618 122.652 182.34C122.652 179.067 119.983 176.413 116.71 176.413C113.456 176.413 110.793 179.067 110.793 182.34C110.793 185.618 113.456 188.271 116.71 188.271ZM159.272 133.409C156.001 133.409 153.341 136.073 153.341 139.34C153.341 142.613 156.001 145.266 159.272 145.266C162.543 145.266 165.203 142.613 165.203 139.34C165.203 136.073 162.543 133.409 159.272 133.409ZM158.657 153.224C155.396 153.224 152.735 155.88 152.735 159.144C152.735 162.418 155.396 165.069 158.657 165.069C161.928 165.069 164.6 162.418 164.6 159.144C164.6 155.88 161.928 153.224 158.657 153.224ZM172.522 144.292C169.251 144.292 166.599 146.954 166.599 150.23C166.599 153.496 169.251 156.15 172.522 156.15C175.788 156.15 178.454 153.496 178.454 150.23C178.454 146.954 175.788 144.292 172.522 144.292ZM176.845 170.31C176.845 167.023 174.187 164.367 170.911 164.367C167.657 164.367 164.988 167.023 164.988 170.31C164.988 173.565 167.657 176.216 170.911 176.216C174.187 176.216 176.845 173.565 176.845 170.31ZM162.488 179.183C162.488 175.914 159.827 173.263 156.556 173.263C153.285 173.263 150.625 175.914 150.625 179.183C150.625 182.461 153.285 185.107 156.556 185.107C159.827 185.107 162.488 182.461 162.488 179.183ZM136.119 187.494C139.385 187.494 142.052 184.84 142.052 181.567C142.052 178.289 139.385 175.638 136.119 175.638C132.85 175.638 130.19 178.289 130.19 181.567C130.19 184.84 132.85 187.494 136.119 187.494ZM126.84 201.369C130.104 201.369 132.772 198.713 132.772 195.444C132.772 192.171 130.104 189.506 126.84 189.506C123.569 189.506 120.918 192.171 120.918 195.444C120.918 198.713 123.569 201.369 126.84 201.369ZM116.638 216.087C119.921 216.087 122.583 213.429 122.583 210.162C122.583 206.894 119.921 204.224 116.638 204.224C113.379 204.224 110.723 206.894 110.723 210.162C110.723 213.429 113.379 216.087 116.638 216.087ZM151.379 168.384C151.379 165.119 148.721 162.464 145.446 162.464C142.194 162.464 139.524 165.119 139.524 168.384C139.524 171.65 142.194 174.319 145.446 174.319C148.721 174.319 151.379 171.65 151.379 168.384ZM186.409 155.149C183.143 155.149 180.485 157.795 180.485 161.064C180.485 164.344 183.143 166.995 186.409 166.995C189.684 166.995 192.347 164.344 192.347 161.064C192.347 157.795 189.684 155.149 186.409 155.149ZM184.199 176.502C180.935 176.502 178.272 179.155 178.272 182.433C178.272 185.699 180.935 188.352 184.199 188.352C187.472 188.352 190.123 185.699 190.123 182.433C190.123 179.155 187.472 176.502 184.199 176.502ZM198.788 189.253C195.516 189.253 192.862 191.909 192.862 195.182C192.862 198.455 195.516 201.109 198.788 201.109C202.057 201.109 204.722 198.455 204.722 195.182C204.722 191.909 202.057 189.253 198.788 189.253ZM180.803 197.599C177.542 197.599 174.879 200.266 174.879 203.528C174.879 206.801 177.542 209.461 180.803 209.461C184.085 209.461 186.743 206.801 186.743 203.528C186.743 200.266 184.085 197.599 180.803 197.599ZM174.333 191.352C174.333 188.078 171.666 185.409 168.395 185.409C165.129 185.409 162.471 188.078 162.471 191.352C162.471 194.62 165.129 197.271 168.395 197.271C171.666 197.271 174.333 194.62 174.333 191.352ZM159.583 213.057C162.847 213.057 165.512 210.401 165.512 207.133C165.512 203.867 162.847 201.195 159.583 201.195C156.31 201.195 153.661 203.867 153.661 207.133C153.661 210.401 156.31 213.057 159.583 213.057ZM138.052 215.293C141.328 215.293 143.986 212.639 143.986 209.366C143.986 206.088 141.328 203.435 138.052 203.435C134.789 203.435 132.131 206.088 132.131 209.366C132.131 212.639 134.789 215.293 138.052 215.293ZM153.253 193.952C153.253 190.685 150.59 188.016 147.324 188.016C144.053 188.016 141.4 190.685 141.4 193.952C141.4 197.213 144.053 199.867 147.324 199.867C150.59 199.867 153.253 197.213 153.253 193.952ZM194.61 211.479C191.344 211.479 188.686 214.139 188.686 217.405C188.686 220.671 191.344 223.332 194.61 223.332C197.883 223.332 200.548 220.671 200.548 217.405C200.548 214.139 197.883 211.479 194.61 211.479ZM172.109 215.752C168.843 215.752 166.185 218.422 166.185 221.695C166.185 224.955 168.843 227.615 172.109 227.615C175.383 227.615 178.047 224.955 178.047 221.695C178.047 218.422 175.383 215.752 172.109 215.752ZM162.394 233.029C159.13 233.029 156.463 235.682 156.463 238.955C156.463 242.221 159.13 244.879 162.394 244.879C165.663 244.879 168.326 242.221 168.326 238.955C168.326 235.682 165.663 233.029 162.394 233.029ZM149.738 218.188C146.463 218.188 143.8 220.848 143.8 224.114C143.8 227.38 146.463 230.05 149.738 230.05C153 230.05 155.66 227.38 155.66 224.114C155.66 220.848 153 218.188 149.738 218.188ZM139.445 235.993C136.174 235.993 133.523 238.653 133.523 241.931C133.523 245.197 136.174 247.856 139.445 247.856C142.721 247.856 145.379 245.197 145.379 241.931C145.379 238.653 142.721 235.993 139.445 235.993ZM127.383 219.669C124.113 219.669 121.459 222.334 121.459 225.607C121.459 228.873 124.113 231.527 127.383 231.527C130.657 231.527 133.315 228.873 133.315 225.607C133.315 222.334 130.657 219.669 127.383 219.669ZM116.735 237.144C113.467 237.144 110.813 239.807 110.813 243.073C110.813 246.347 113.467 249 116.735 249C120.013 249 122.671 246.347 122.671 243.073C122.671 239.807 120.013 237.144 116.735 237.144ZM105.363 219.669C102.097 219.669 99.4368 222.32 99.4368 225.607C99.4368 228.873 102.097 231.527 105.363 231.527C108.634 231.527 111.301 228.873 111.301 225.607C111.301 222.32 108.634 219.669 105.363 219.669ZM93.4566 236.063C90.184 236.063 87.5353 238.721 87.5353 242.001C87.5353 245.256 90.184 247.916 93.4566 247.916C96.7209 247.916 99.3809 245.256 99.3809 242.001C99.3809 238.721 96.7209 236.063 93.4566 236.063ZM71.1115 233.005C67.8454 233.005 65.185 235.663 65.185 238.941C65.185 242.21 67.8454 244.868 71.1115 244.868C74.3848 244.868 77.0495 242.21 77.0495 238.941C77.0495 235.663 74.3848 233.005 71.1115 233.005ZM201.242 166.756C197.986 166.756 195.325 169.414 195.325 172.683C195.325 175.961 197.986 178.614 201.242 178.614C204.523 178.614 207.174 175.961 207.174 172.683C207.174 169.414 204.523 166.756 201.242 166.756ZM216.076 178.981C212.814 178.981 210.154 181.636 210.154 184.905C210.154 188.183 212.814 190.836 216.076 190.836C219.358 190.836 222.014 188.183 222.014 184.905C222.014 181.636 219.358 178.981 216.076 178.981ZM219.07 156.449C215.804 156.449 213.149 159.114 213.149 162.387C213.149 165.656 215.804 168.307 219.07 168.307C222.343 168.307 225.002 165.656 225.002 162.387C225.002 159.114 222.343 156.449 219.07 156.449ZM202.601 144.689C199.327 144.689 196.676 147.349 196.676 150.624C196.676 153.884 199.327 156.544 202.601 156.544C205.869 156.544 208.531 153.884 208.531 150.624C208.531 147.349 205.869 144.689 202.601 144.689ZM220.073 133.469C216.795 133.469 214.154 136.129 214.154 139.405C214.154 142.671 216.795 145.332 220.073 145.332C223.337 145.332 226 142.671 226 139.405C226 136.129 223.337 133.469 220.073 133.469ZM202.589 122.753C199.327 122.753 196.676 125.416 196.676 128.692C196.676 131.96 199.327 134.616 202.589 134.616C205.869 134.616 208.529 131.96 208.529 128.692C208.529 125.416 205.869 122.753 202.589 122.753ZM213.075 116.497C213.075 119.765 215.727 122.426 218.996 122.426C222.269 122.426 224.932 119.765 224.932 116.497C224.932 113.224 222.269 110.561 218.996 110.561C215.727 110.561 213.075 113.224 213.075 116.497ZM195.214 106.266C195.214 109.532 197.865 112.193 201.136 112.193C204.407 112.193 207.064 109.532 207.064 106.266C207.064 102.998 204.407 100.328 201.136 100.328C197.865 100.328 195.214 102.998 195.214 106.266ZM216.073 99.6268C219.344 99.6268 222.002 96.9644 222.002 93.7029C222.002 90.4225 219.344 87.7642 216.073 87.7642C212.803 87.7642 210.145 90.4225 210.145 93.7029C210.145 96.9644 212.803 99.6268 216.073 99.6268ZM192.837 84.0036C192.837 87.2656 195.485 89.9161 198.747 89.9161C202.027 89.9161 204.685 87.2656 204.685 84.0036C204.685 80.7237 202.027 78.0654 198.747 78.0654C195.485 78.0654 192.837 80.7237 192.837 84.0036ZM194.573 67.7236C197.842 67.7236 200.497 65.0701 200.497 61.7992C200.497 58.5306 197.842 55.8723 194.573 55.8723C191.295 55.8723 188.64 58.5306 188.64 61.7992C188.64 65.0701 191.295 67.7236 194.573 67.7236ZM174.994 75.5213C174.994 78.7922 177.653 81.4475 180.914 81.4475C184.18 81.4475 186.85 78.7922 186.85 75.5213C186.85 72.2503 184.18 69.5897 180.914 69.5897C177.653 69.5897 174.994 72.2503 174.994 75.5213ZM168.279 81.819C165.017 81.819 162.36 84.4725 162.36 87.7529C162.36 91.0144 165.017 93.6774 168.279 93.6774C171.559 93.6774 174.222 91.0144 174.222 87.7529C174.222 84.4725 171.559 81.819 168.279 81.819ZM150.59 99.8289C150.59 103.097 153.253 105.753 156.528 105.753C159.79 105.753 162.452 103.097 162.452 99.8289C162.452 96.5555 159.79 93.8931 156.528 93.8931C153.253 93.8931 150.59 96.5555 150.59 99.8289ZM147.406 79.2029C144.132 79.2029 141.479 81.8588 141.479 85.1387C141.479 88.4072 144.132 91.0542 147.406 91.0542C150.681 91.0542 153.339 88.4072 153.339 85.1387C153.339 81.8588 150.681 79.2029 147.406 79.2029ZM137.985 63.8697C134.724 63.8697 132.061 66.5374 132.061 69.8084C132.061 73.0811 134.724 75.7323 137.985 75.7323C141.258 75.7323 143.917 73.0811 143.917 69.8084C143.917 66.5374 141.258 63.8697 137.985 63.8697ZM126.919 77.5942C123.651 77.5942 120.993 80.2477 120.993 83.5275C120.993 86.7985 123.651 89.452 126.919 89.452C130.181 89.452 132.848 86.7985 132.848 83.5275C132.848 80.2477 130.181 77.5942 126.919 77.5942ZM105.83 77.7243C102.557 77.7243 99.908 80.3826 99.908 83.6601C99.908 86.9287 102.557 89.5869 105.83 89.5869C109.094 89.5869 111.761 86.9287 111.761 83.6601C111.761 80.3826 109.094 77.7243 105.83 77.7243ZM96.904 91.6414C93.645 91.6414 90.9756 94.3038 90.9756 97.5724C90.9756 100.846 93.645 103.497 96.904 103.497C100.177 103.497 102.833 100.846 102.833 97.5724C102.833 94.3038 100.177 91.6414 96.904 91.6414ZM100.932 109.493C100.932 112.755 103.581 115.413 106.853 115.413C110.119 115.413 112.787 112.755 112.787 109.493C112.787 106.213 110.119 103.562 106.853 103.562C103.581 103.562 100.932 106.213 100.932 109.493ZM81.6901 110.661C81.6901 113.936 84.3477 116.597 87.6185 116.597C90.8918 116.597 93.5475 113.936 93.5475 110.661C93.5475 107.392 90.8918 104.725 87.6185 104.725C84.3477 104.725 81.6901 107.392 81.6901 110.661ZM74.4103 114.032C71.1394 114.032 68.4837 116.694 68.4837 119.97C68.4837 123.236 71.1394 125.896 74.4103 125.896C77.6853 125.896 80.3364 123.236 80.3364 119.97C80.3364 116.694 77.6853 114.032 74.4103 114.032ZM60.5213 135.087C63.7852 135.087 66.4501 132.429 66.4501 129.161C66.4501 125.896 63.7852 123.222 60.5213 123.222C57.2459 123.222 54.5996 125.896 54.5996 129.161C54.5996 132.429 57.2459 135.087 60.5213 135.087ZM56.0899 108.738C56.0899 112 58.7525 114.658 62.0163 114.658C65.2917 114.658 67.9518 112 67.9518 108.738C67.9518 105.461 65.2917 102.807 62.0163 102.807C58.7525 102.807 56.0899 105.461 56.0899 108.738ZM40.6482 117.955C40.6482 121.221 43.3062 123.882 46.5676 123.882C49.8454 123.882 52.5057 121.221 52.5057 117.955C52.5057 114.686 49.8454 112.019 46.5676 112.019C43.3062 112.019 40.6482 114.686 40.6482 117.955ZM30.3297 134.497C33.5982 134.497 36.2631 131.837 36.2631 128.58C36.2631 125.298 33.5982 122.644 30.3297 122.644C27.0589 122.644 24.4033 125.298 24.4033 128.58C24.4033 131.837 27.0589 134.497 30.3297 134.497ZM13.9316 122.382C17.2024 122.382 19.8673 119.712 19.8673 116.458C19.8673 113.182 17.2024 110.519 13.9316 110.519C10.6631 110.519 8.00747 113.182 8.00747 116.458C8.00747 119.712 10.6631 122.382 13.9316 122.382ZM31.8618 112.244C35.135 112.244 37.7998 109.586 37.7998 106.324C37.7998 103.044 35.135 100.382 31.8618 100.382C28.598 100.382 25.9493 103.044 25.9493 106.324C25.9493 109.586 28.598 112.244 31.8618 112.244ZM17.0074 87.6739C13.7436 87.6739 11.0856 90.3298 11.0856 93.6073C11.0856 96.8782 13.7436 99.5341 17.0074 99.5341C20.2689 99.5341 22.9385 96.8782 22.9385 93.6073C22.9385 90.3298 20.2689 87.6739 17.0074 87.6739ZM34.4432 89.9465C37.7186 89.9465 40.3789 87.2912 40.3789 84.0202C40.3789 80.7421 37.7186 78.0862 34.4432 78.0862C31.184 78.0862 28.533 80.7421 28.533 84.0202C28.533 87.2912 31.184 89.9465 34.4432 89.9465ZM48.8078 90.5407C45.5462 90.5407 42.8883 93.2085 42.8883 96.4747C42.8883 99.7457 45.5462 102.413 48.8078 102.413C52.0902 102.413 54.7505 99.7457 54.7505 96.4747C54.7505 93.2085 52.0902 90.5407 48.8078 90.5407ZM58.9057 87.6947C58.9057 90.9609 61.5636 93.6215 64.8321 93.6215C68.1075 93.6215 70.768 90.9609 70.768 87.6947C70.768 84.4237 68.1075 81.7566 64.8321 81.7566C61.5636 81.7566 58.9057 84.4237 58.9057 87.6947ZM70.5006 99.8473C70.5006 103.109 73.1612 105.772 76.4249 105.772C79.7029 105.772 82.3652 103.109 82.3652 99.8473C82.3652 96.5769 79.7029 93.9092 76.4249 93.9092C73.1612 93.9092 70.5006 96.5769 70.5006 99.8473ZM45.8318 145.236C49.0979 145.236 51.7559 142.576 51.7559 139.326C51.7559 136.048 49.0979 133.385 45.8318 133.385C42.5656 133.385 39.9053 136.048 39.9053 139.326C39.9053 142.576 42.5656 145.236 45.8318 145.236ZM116.752 90.9449C113.486 90.9449 110.825 93.6031 110.825 96.8782C110.825 100.149 113.486 102.807 116.752 102.807C120.018 102.807 122.692 100.149 122.692 96.8782C122.692 93.6031 120.018 90.9449 116.752 90.9449ZM159.546 65.873C156.275 65.873 153.608 68.5408 153.608 71.8094C153.608 75.0779 156.275 77.7356 159.546 77.7356C162.808 77.7356 165.47 75.0779 165.47 71.8094C165.47 68.5408 162.808 65.873 159.546 65.873ZM166.195 57.2119C166.195 60.4804 168.848 63.1387 172.119 63.1387C175.383 63.1387 178.047 60.4804 178.047 57.2119C178.047 53.9433 175.383 51.2761 172.119 51.2761C168.848 51.2761 166.195 53.9433 166.195 57.2119ZM149.787 60.8031C153.06 60.8031 155.716 58.1473 155.716 54.8787C155.716 51.6083 153.06 48.9429 149.787 48.9429C146.517 48.9429 143.863 51.6083 143.863 54.8787C143.863 58.1473 146.517 60.8031 149.787 60.8031ZM162.429 45.9554C165.707 45.9554 168.36 43.2996 168.36 40.0405C168.36 36.76 165.707 34.0952 162.429 34.0952C159.168 34.0952 156.507 36.76 156.507 40.0405C156.507 43.2996 159.168 45.9554 162.429 45.9554ZM139.494 43.0583C142.765 43.0583 145.421 40.4048 145.421 37.1338C145.421 33.8516 142.765 31.1957 139.494 31.1957C136.221 31.1957 133.563 33.8516 133.563 37.1338C133.563 40.4048 136.221 43.0583 139.494 43.0583ZM116.663 41.8626C119.944 41.8626 122.601 39.2043 122.601 35.9357C122.601 32.6672 119.944 30 116.663 30C113.412 30 110.746 32.6672 110.746 35.9357C110.746 39.2043 113.412 41.8626 116.663 41.8626ZM93.4198 42.9977C96.6788 42.9977 99.3464 40.3305 99.3464 37.0738C99.3464 33.7933 96.6788 31.1351 93.4198 31.1351C90.1418 31.1351 87.4818 33.7933 87.4818 37.0738C87.4818 40.3305 90.1418 42.9977 93.4198 42.9977ZM71.0907 46.0155C74.3681 46.0155 77.0239 43.3602 77.0239 40.0916C77.0239 36.8206 74.3681 34.1529 71.0907 34.1529C67.8199 34.1529 65.1641 36.8206 65.1641 40.0916C65.1641 43.3602 67.8199 46.0155 71.0907 46.0155ZM105.203 59.406C108.476 59.406 111.127 56.7406 111.127 53.4815C111.127 50.2129 108.476 47.5458 105.203 47.5458C101.932 47.5458 99.2787 50.2129 99.2787 53.4815C99.2787 56.7406 101.932 59.406 105.203 59.406ZM83.2221 60.8638C86.493 60.8638 89.1601 58.2103 89.1601 54.9393C89.1601 51.6707 86.493 49.0059 83.2221 49.0059C79.956 49.0059 77.2955 51.6707 77.2955 54.9393C77.2955 58.2103 79.956 60.8638 83.2221 60.8638ZM73.4999 65.9544C70.2338 65.9544 67.5786 68.6103 67.5786 71.8789C67.5786 75.1499 70.2338 77.817 73.4999 77.817C76.7684 77.817 79.4265 75.1499 79.4265 71.8789C79.4265 68.6103 76.7684 65.9544 73.4999 65.9544ZM52.0716 81.4969C55.3377 81.4969 58.0003 78.841 58.0003 75.57C58.0003 72.3062 55.3377 69.6361 52.0716 69.6361C48.7961 69.6361 46.1498 72.3062 46.1498 75.57C46.1498 78.841 48.7961 81.4969 52.0716 81.4969ZM39.5339 67.6351C42.8093 67.6351 45.4696 64.9798 45.4696 61.7088C45.4696 58.4379 42.8093 55.7749 39.5339 55.7749C36.2654 55.7749 33.6098 58.4379 33.6098 61.7088C33.6098 64.9798 36.2654 67.6351 39.5339 67.6351ZM61.0181 63.2177C64.2959 63.2177 66.9564 60.5619 66.9564 57.2933C66.9564 54.0271 64.2959 51.3688 61.0181 51.3688C57.7519 51.3688 55.0917 54.0271 55.0917 57.2933C55.0917 60.5619 57.7519 63.2177 61.0181 63.2177ZM79.7355 85.0602C79.7355 88.3264 82.405 90.9841 85.6616 90.9841C88.9348 90.9841 91.5906 88.3264 91.5906 85.0602C91.5906 81.7892 88.9348 79.1215 85.6616 79.1215C82.405 79.1215 79.7355 81.7892 79.7355 85.0602ZM94.852 63.793C91.5787 63.793 88.9301 66.4584 88.9301 69.727C88.9301 72.9979 91.5787 75.6514 94.852 75.6514C98.1109 75.6514 100.781 72.9979 100.781 69.727C100.781 66.4584 98.1109 63.793 94.852 63.793ZM127.342 59.3965C130.615 59.3965 133.28 56.7406 133.28 53.4815C133.28 50.201 130.615 47.5339 127.342 47.5339C124.073 47.5339 121.418 50.201 121.418 53.4815C121.418 56.7406 124.073 59.3965 127.342 59.3965ZM116.698 62.8879C113.435 62.8879 110.779 65.5527 110.779 68.8213C110.779 72.0922 113.435 74.7457 116.698 74.7457C119.974 74.7457 122.636 72.0922 122.636 68.8213C122.636 65.5527 119.974 62.8879 116.698 62.8879ZM151.177 110.589C151.177 107.323 148.52 104.665 145.249 104.665C141.978 104.665 139.327 107.323 139.327 110.589C139.327 113.862 141.978 116.527 145.249 116.527C148.52 116.527 151.177 113.862 151.177 110.589ZM135.32 114.883C132.061 114.883 129.408 117.544 129.408 120.822C129.408 124.086 132.061 126.732 135.32 126.732C138.589 126.732 141.256 124.086 141.256 120.822C141.256 117.544 138.589 114.883 135.32 114.883ZM120.101 109.231C120.101 112.504 122.767 115.155 126.026 115.155C129.301 115.155 131.959 112.504 131.959 109.231C131.959 105.964 129.301 103.3 126.026 103.3C122.767 103.3 120.101 105.964 120.101 109.231ZM116.659 114.496C113.39 114.496 110.739 117.149 110.739 120.42C110.739 123.689 113.39 126.351 116.659 126.351C119.927 126.351 122.583 123.689 122.583 120.42C122.583 117.149 119.927 114.496 116.659 114.496ZM101.422 130.393C101.422 133.659 104.075 136.313 107.344 136.313C110.619 136.313 113.274 133.659 113.274 130.393C113.274 127.117 110.619 124.455 107.344 124.455C104.075 124.455 101.422 127.117 101.422 130.393ZM97.8584 114.995C94.5941 114.995 91.9389 117.653 91.9389 120.933C91.9389 124.192 94.5941 126.858 97.8584 126.858C101.131 126.858 103.799 124.192 103.799 120.933C103.799 117.653 101.131 114.995 97.8584 114.995ZM97.317 145.361C100.588 145.361 103.264 142.701 103.264 139.435C103.264 136.162 100.588 133.497 97.317 133.497C94.0467 133.497 91.3909 136.162 91.3909 139.435C91.3909 142.701 94.0467 145.361 97.317 145.361ZM86.2398 136.116C89.5107 136.116 92.1665 133.455 92.1665 130.189C92.1665 126.92 89.5107 124.253 86.2398 124.253C82.9737 124.253 80.3132 126.92 80.3132 130.189C80.3132 133.455 82.9737 136.116 86.2398 136.116ZM86.2886 155.126C89.5594 155.126 92.2265 152.467 92.2265 149.206C92.2265 145.933 89.5594 143.275 86.2886 143.275C83.0248 143.275 80.369 145.933 80.369 149.206C80.369 152.467 83.0248 155.126 86.2886 155.126ZM73.7626 145.227C77.0239 145.227 79.691 142.562 79.691 139.293C79.691 136.02 77.0239 133.369 73.7626 133.369C70.4869 133.369 67.8312 136.02 67.8312 139.293C67.8312 142.562 70.4869 145.227 73.7626 145.227ZM74.7116 165.189C77.9712 165.189 80.6359 162.538 80.6359 159.265C80.6359 155.984 77.9712 153.338 74.7116 153.338C71.4295 153.338 68.7832 155.984 68.7832 159.265C68.7832 162.538 71.4295 165.189 74.7116 165.189ZM60.526 156.112C63.8037 156.112 66.4501 153.454 66.4501 150.184C66.4501 146.915 63.8037 144.25 60.526 144.25C57.2575 144.25 54.6019 146.915 54.6019 150.184C54.6019 153.454 57.2575 156.112 60.526 156.112ZM62.1742 176.45C65.445 176.45 68.1075 173.79 68.1075 170.54C68.1075 167.25 65.445 164.586 62.1742 164.586C58.9057 164.586 56.2477 167.25 56.2477 170.54C56.2477 173.79 58.9057 176.45 62.1742 176.45ZM48.831 188.543C52.0994 188.543 54.769 185.887 54.769 182.619C54.769 179.345 52.0994 176.68 48.831 176.68C45.5694 176.68 42.9045 179.345 42.9045 182.619C42.9045 185.887 45.5694 188.543 48.831 188.543ZM37.6977 172.81C37.6977 169.537 35.0397 166.875 31.769 166.875C28.4958 166.875 25.8402 169.537 25.8402 172.81C25.8402 176.079 28.4958 178.73 31.769 178.73C35.0397 178.73 37.6977 176.079 37.6977 172.81ZM19.9114 162.515C19.9114 159.235 17.2511 156.591 13.9757 156.591C10.7072 156.591 8.04694 159.235 8.04694 162.515C8.04694 165.784 10.7072 168.435 13.9757 168.435C17.2511 168.435 19.9114 165.784 19.9114 162.515ZM30.3297 156.635C33.5982 156.635 36.2631 153.976 36.2631 150.704C36.2631 147.441 33.5982 144.772 30.3297 144.772C27.0589 144.772 24.4033 147.441 24.4033 150.704C24.4033 153.976 27.0589 156.635 30.3297 156.635ZM12.9241 145.253C16.1949 145.253 18.8621 142.59 18.8621 139.328C18.8621 136.062 16.1949 133.397 12.9241 133.397C9.66725 133.397 7 136.062 7 139.328C7 142.59 9.66725 145.253 12.9241 145.253ZM46.6024 166.93C49.864 166.93 52.5266 164.279 52.5266 161.006C52.5266 157.726 49.864 155.082 46.6024 155.082C43.3293 155.082 40.6807 157.726 40.6807 161.006C40.6807 164.279 43.3293 166.93 46.6024 166.93ZM16.9355 178.958C13.667 178.958 11.016 181.627 11.016 184.886C11.016 188.162 13.667 190.813 16.9355 190.813C20.2132 190.813 22.8735 188.162 22.8735 184.886C22.8735 181.627 20.2132 178.958 16.9355 178.958ZM40.1862 195.224C40.1862 191.958 37.5283 189.286 34.2528 189.286C30.982 189.286 28.3287 191.958 28.3287 195.224C28.3287 198.492 30.982 201.148 34.2528 201.148C37.5283 201.148 40.1862 198.492 40.1862 195.224ZM113.274 148.846C113.274 145.58 110.619 142.915 107.344 142.915C104.075 142.915 101.422 145.58 101.422 148.846C101.422 152.119 104.075 154.777 107.344 154.777C110.619 154.777 113.274 152.119 113.274 148.846ZM116.638 164.465C119.909 164.465 122.578 161.811 122.578 158.538C122.578 155.279 119.909 152.609 116.638 152.609C113.374 152.609 110.712 155.279 110.712 158.538C110.712 161.811 113.374 164.465 116.638 164.465ZM112.736 169.758C112.736 166.478 110.071 163.827 106.8 163.827C103.532 163.827 100.871 166.478 100.871 169.758C100.871 173.024 103.532 175.684 106.8 175.684C110.071 175.684 112.736 173.024 112.736 169.758ZM96.9646 187.494C100.233 187.494 102.893 184.84 102.893 181.567C102.893 178.289 100.233 175.638 96.9646 175.638C93.689 175.638 91.0332 178.289 91.0332 181.567C91.0332 184.84 93.689 187.494 96.9646 187.494ZM105.925 201.441C109.196 201.441 111.852 198.769 111.852 195.514C111.852 192.234 109.196 189.564 105.925 189.564C102.661 189.564 99.9983 192.234 99.9983 195.514C99.9983 198.769 102.661 201.441 105.925 201.441ZM94.931 215.239C98.2019 215.239 100.864 212.584 100.864 209.32C100.864 206.046 98.2019 203.377 94.931 203.377C91.6602 203.377 89.0067 206.046 89.0067 209.32C89.0067 212.584 91.6602 215.239 94.931 215.239ZM73.3489 213.001C76.6293 213.001 79.2827 210.341 79.2827 207.075C79.2827 203.79 76.6293 201.139 73.3489 201.139C70.0828 201.139 67.4276 203.79 67.4276 207.075C67.4276 210.341 70.0828 213.001 73.3489 213.001ZM64.9157 197.237C68.1818 197.237 70.8447 194.581 70.8447 191.308C70.8447 188.046 68.1818 185.374 64.9157 185.374C61.6449 185.374 58.9916 188.046 58.9916 191.308C58.9916 194.581 61.6449 197.237 64.9157 197.237ZM85.6503 199.82C88.9164 199.82 91.5764 197.167 91.5764 193.894C91.5764 190.62 88.9164 187.965 85.6503 187.965C82.3747 187.965 79.726 190.62 79.726 193.894C79.726 197.167 82.3747 199.82 85.6503 199.82ZM82.4074 179.141C82.4074 175.863 79.7397 173.198 76.4784 173.198C73.2051 173.198 70.5476 175.863 70.5476 179.141C70.5476 182.402 73.2051 185.056 76.4784 185.056C79.7397 185.056 82.4074 182.402 82.4074 179.141ZM87.5003 174.303C90.7783 174.303 93.4335 171.638 93.4335 168.369C93.4335 165.103 90.7783 162.434 87.5003 162.434C84.2318 162.434 81.576 165.103 81.576 168.369C81.576 171.638 84.2318 174.303 87.5003 174.303ZM97.8465 164.093C101.122 164.093 103.778 161.44 103.778 158.174C103.778 154.908 101.122 152.238 97.8465 152.238C94.5875 152.238 91.9246 154.908 91.9246 158.174C91.9246 161.44 94.5875 164.093 97.8465 164.093ZM57.9562 203.542C57.9562 200.273 55.2844 197.603 52.0182 197.603C48.752 197.603 46.0918 200.273 46.0918 203.542C46.0918 206.801 48.752 209.471 52.0182 209.471C55.2844 209.471 57.9562 206.801 57.9562 203.542ZM60.8417 215.752C57.5802 215.752 54.9199 218.422 54.9199 221.695C54.9199 224.955 57.5802 227.624 60.8417 227.624C64.1102 227.624 66.7751 224.955 66.7751 221.695C66.7751 218.422 64.1102 215.752 60.8417 215.752ZM39.383 211.451C36.1076 211.451 33.4473 214.102 33.4473 217.375C33.4473 220.655 36.1076 223.306 39.383 223.306C42.6445 223.306 45.3094 220.655 45.3094 217.375C45.3094 214.102 42.6445 211.451 39.383 211.451ZM83.1568 218.201C79.8841 218.201 77.2331 220.857 77.2331 224.126C77.2331 227.392 79.8841 230.05 83.1568 230.05C86.4252 230.05 89.0858 227.392 89.0858 224.126C89.0858 220.857 86.4252 218.201 83.1568 218.201ZM136.135 91.699C132.878 91.699 130.209 94.3644 130.209 97.633C130.209 100.904 132.878 103.562 136.135 103.562C139.411 103.562 142.071 100.904 142.071 97.633C142.071 94.3644 139.411 91.699 136.135 91.699ZM178.11 96.6369C178.11 99.9055 180.763 102.564 184.036 102.564C187.31 102.564 189.97 99.9055 189.97 96.6369C189.97 93.3684 187.31 90.7012 184.036 90.7012C180.763 90.7012 178.11 93.3684 178.11 96.6369ZM170.921 102.854C167.657 102.854 164.988 105.523 164.988 108.79C164.988 112.058 167.657 114.716 170.921 114.716C174.187 114.716 176.845 112.058 176.845 108.79C176.845 105.523 174.187 102.854 170.921 102.854ZM186.274 123.863C189.543 123.863 192.201 121.205 192.201 117.939C192.201 114.663 189.543 112 186.274 112C183.003 112 180.35 114.663 180.35 117.939C180.35 121.205 183.003 123.863 186.274 123.863ZM187.198 133.372C183.934 133.372 181.274 136.048 181.274 139.312C181.274 142.576 183.934 145.236 187.198 145.236C190.471 145.236 193.129 142.576 193.129 139.312C193.129 136.048 190.471 133.372 187.198 133.372ZM166.378 129.067C166.378 132.332 169.033 134.992 172.314 134.992C175.58 134.992 178.237 132.332 178.237 129.067C178.237 125.79 175.58 123.139 172.314 123.139C169.033 123.139 166.378 125.79 166.378 129.067ZM158.583 125.843C161.858 125.843 164.525 123.183 164.525 119.928C164.525 116.65 161.858 113.99 158.583 113.99C155.321 113.99 152.658 116.65 152.658 119.928C152.658 123.183 155.321 125.843 158.583 125.843Z"
     fill="#34373E"
     id="path1"
     style="fill:#ffffff;fill-opacity:1" />
  <path
     d="M270.528 117.856V146.528C270.528 150.411 271.296 153.205 272.832 154.912C274.368 156.576 276.992 157.408 280.704 157.408C283.776 157.408 286.251 156.64 288.128 155.104C290.048 153.525 291.008 150.731 291.008 146.72V117.856H300.672V146.976C300.672 152.523 298.795 156.896 295.04 160.096C291.328 163.296 286.549 164.896 280.704 164.896C274.347 164.896 269.397 163.381 265.856 160.352C262.357 157.323 260.608 152.971 260.608 147.296V117.856H270.528ZM340.501 164H330.837V143.136C330.837 141.344 330.367 139.979 329.429 139.04C328.49 138.101 327.274 137.632 325.781 137.632C323.989 137.632 322.517 138.208 321.365 139.36C320.213 140.512 319.637 142.325 319.637 144.8V164H310.101V134.368C310.101 133.515 310.037 132.576 309.909 131.552H318.997L319.253 136.416C320.362 134.496 321.813 133.088 323.605 132.192C325.397 131.253 327.445 130.784 329.749 130.784C332.65 130.784 335.167 131.659 337.301 133.408C339.434 135.157 340.501 138.571 340.501 143.648V164ZM358.89 117.792V126.048H348.778V117.792H358.89ZM358.57 131.616V164H349.098V131.616H358.57ZM373.31 131.68L380.606 153.632L388.03 131.68H397.182L385.534 164H375.038L363.198 131.68H373.31ZM415.559 130.592C420.252 130.592 423.921 132.171 426.567 135.328C429.255 138.443 430.599 142.923 430.599 148.768C430.599 149.365 430.577 149.856 430.535 150.24H408.839C408.839 153.312 409.393 155.531 410.503 156.896C411.655 158.219 413.297 158.88 415.431 158.88C417.095 158.88 418.353 158.475 419.207 157.664C420.06 156.853 420.679 155.765 421.063 154.4H429.703C429.404 157.899 428.017 160.587 425.543 162.464C423.068 164.299 419.676 165.216 415.367 165.216C410.332 165.216 406.471 163.851 403.783 161.12C401.095 158.347 399.751 154.165 399.751 148.576C399.751 143.2 401.095 138.912 403.783 135.712C406.513 132.469 410.439 130.763 415.559 130.592ZM420.871 144.288C420.871 141.984 420.401 140.213 419.463 138.976C418.524 137.696 417.116 137.056 415.239 137.056C413.447 137.056 412.017 137.675 410.951 138.912C409.884 140.107 409.287 141.899 409.159 144.288H420.871ZM456.433 140C455.708 139.915 454.897 139.872 454.001 139.872C451.569 139.872 449.67 140.448 448.305 141.6C446.94 142.752 446.257 144.8 446.257 147.744V164H436.785V138.272C436.614 134.475 436.465 132.235 436.337 131.552H445.233C445.361 132.533 445.425 134.581 445.425 137.696C446.534 135.307 447.878 133.685 449.457 132.832C451.078 131.936 453.062 131.488 455.409 131.488H456.433V140ZM486.492 140.448H477.852C477.767 139.253 477.361 138.315 476.636 137.632C475.911 136.949 474.78 136.608 473.244 136.608C471.921 136.608 470.833 136.907 469.98 137.504C469.169 138.059 468.764 138.827 468.764 139.808C468.764 141.173 469.575 142.112 471.196 142.624C472.817 143.136 474.439 143.605 476.06 144.032C481.009 145.227 484.167 146.613 485.532 148.192C486.94 149.728 487.644 151.605 487.644 153.824C487.644 157.067 486.279 159.733 483.548 161.824C480.817 163.915 477.233 164.96 472.796 164.96C468.785 164.96 465.543 164.043 463.068 162.208C460.593 160.373 459.356 157.856 459.356 154.656H468.252C468.337 156.021 468.828 157.109 469.724 157.92C470.663 158.688 471.964 159.072 473.628 159.072C475.121 159.072 476.316 158.709 477.212 157.984C478.151 157.259 478.62 156.341 478.62 155.232C478.62 154.336 478.236 153.589 477.468 152.992C476.7 152.352 473.863 151.435 468.956 150.24C465.969 149.387 463.729 148.277 462.236 146.912C460.785 145.547 460.06 143.584 460.06 141.024C460.06 137.909 461.383 135.456 464.028 133.664C466.673 131.829 470.065 130.912 474.204 130.912C477.873 130.912 480.796 131.765 482.972 133.472C485.148 135.136 486.321 137.461 486.492 140.448ZM503.452 117.792V126.048H493.34V117.792H503.452ZM503.132 131.616V164H493.66V131.616H503.132ZM522.993 131.872H530.673V138.144H522.993V152.8C522.993 154.677 523.27 155.936 523.825 156.576C524.379 157.216 525.553 157.536 527.345 157.536C527.985 157.579 529.03 157.515 530.481 157.344V163.552C528.945 163.979 527.537 164.256 526.257 164.384C524.977 164.512 523.931 164.576 523.121 164.576C519.963 164.576 517.574 163.915 515.953 162.592C514.374 161.269 513.585 159.115 513.585 156.128V138.144H507.377V131.872H513.585V125.536L522.993 122.08V131.872ZM563.548 142.496V154.336C563.548 158.304 563.804 161.525 564.316 164H555.74C555.654 163.573 555.548 162.101 555.42 159.584C554.31 161.205 552.988 162.485 551.452 163.424C549.916 164.32 547.996 164.768 545.692 164.768C541.894 164.768 539.142 163.829 537.436 161.952C535.729 160.032 534.876 157.856 534.876 155.424C534.876 151.669 536.305 148.704 539.164 146.528C542.065 144.352 546.652 143.264 552.924 143.264H554.524V141.984C554.524 138.187 552.945 136.288 549.788 136.288C548.55 136.288 547.526 136.693 546.716 137.504C545.948 138.272 545.564 139.424 545.564 140.96H536.284C536.369 137.589 537.585 135.051 539.932 133.344C542.321 131.595 545.564 130.72 549.66 130.72C553.67 130.72 556.977 131.616 559.58 133.408C562.225 135.157 563.548 138.187 563.548 142.496ZM548.7 158.624C550.492 158.624 551.9 157.899 552.924 156.448C553.99 154.955 554.524 152.949 554.524 150.432V148.768L552.86 148.704C549.916 148.704 547.718 149.195 546.268 150.176C544.817 151.157 544.092 152.437 544.092 154.016C544.092 155.339 544.518 156.448 545.372 157.344C546.225 158.197 547.334 158.624 548.7 158.624ZM547.612 118.112V125.664H541.084V118.112H547.612ZM558.62 118.112V125.664H552.092V118.112H558.62ZM583.43 131.872H591.11V138.144H583.43V152.8C583.43 154.677 583.707 155.936 584.262 156.576C584.817 157.216 585.99 157.536 587.782 157.536C588.422 157.579 589.467 157.515 590.918 157.344V163.552C589.382 163.979 587.974 164.256 586.694 164.384C585.414 164.512 584.369 164.576 583.558 164.576C580.401 164.576 578.011 163.915 576.39 162.592C574.811 161.269 574.022 159.115 574.022 156.128V138.144H567.814V131.872H574.022V125.536L583.43 122.08V131.872ZM649.03 130.656V130.976H639.494V130.656C639.28 128.523 638.534 126.88 637.254 125.728C636.016 124.533 634.267 123.936 632.006 123.936C629.787 123.936 627.952 124.491 626.502 125.6C625.094 126.667 624.39 128.203 624.39 130.208C624.39 132.427 625.414 133.963 627.462 134.816C629.51 135.669 632.496 136.544 636.422 137.44C641.456 138.549 645.019 140.128 647.11 142.176C649.243 144.181 650.31 146.805 650.31 150.048C650.31 154.571 648.496 158.219 644.87 160.992C641.243 163.723 636.55 165.088 630.79 165.088C624.56 165.088 619.974 163.787 617.03 161.184C614.128 158.581 612.678 154.592 612.678 149.216H622.79V149.6C622.79 152.501 623.515 154.635 624.966 156C626.416 157.323 628.486 157.984 631.174 157.984C633.648 157.984 635.718 157.429 637.382 156.32C639.088 155.211 639.942 153.589 639.942 151.456C639.942 150.133 639.558 149.045 638.79 148.192C638.022 147.339 635.59 146.4 631.494 145.376C624.283 143.627 619.59 141.643 617.414 139.424C615.238 137.163 614.15 134.475 614.15 131.36C614.15 126.88 615.771 123.36 619.014 120.8C622.299 118.24 626.779 116.96 632.454 116.96C637.574 116.96 641.606 118.176 644.55 120.608C647.536 122.997 649.03 126.347 649.03 130.656ZM668.805 131.872H676.485V138.144H668.805V152.8C668.805 154.677 669.082 155.936 669.637 156.576C670.192 157.216 671.365 157.536 673.157 157.536C673.797 157.579 674.842 157.515 676.293 157.344V163.552C674.757 163.979 673.349 164.256 672.069 164.384C670.789 164.512 669.744 164.576 668.933 164.576C665.776 164.576 663.386 163.915 661.765 162.592C660.186 161.269 659.397 159.115 659.397 156.128V138.144H653.189V131.872H659.397V125.536L668.805 122.08V131.872ZM690.503 131.68V151.52C690.503 153.995 690.929 155.701 691.783 156.64C692.679 157.579 693.937 158.048 695.559 158.048C697.607 158.048 699.121 157.493 700.103 156.384C701.127 155.232 701.639 152.608 701.639 148.512V131.68H711.367V154.72C711.537 160.309 711.687 163.403 711.815 164H702.599L702.279 159.712C701.127 161.504 699.761 162.805 698.183 163.616C696.604 164.427 694.791 164.832 692.743 164.832C689.671 164.832 686.919 163.893 684.487 162.016C682.097 160.139 680.903 156.811 680.903 152.032V131.68H690.503ZM731.868 131.872H739.548V138.144H731.868V152.8C731.868 154.677 732.145 155.936 732.7 156.576C733.254 157.216 734.428 157.536 736.22 157.536C736.86 157.579 737.905 157.515 739.356 157.344V163.552C737.82 163.979 736.412 164.256 735.132 164.384C733.852 164.512 732.806 164.576 731.996 164.576C728.838 164.576 726.449 163.915 724.828 162.592C723.249 161.269 722.46 159.115 722.46 156.128V138.144H716.252V131.872H722.46V125.536L731.868 122.08V131.872ZM755.118 131.872H762.798V138.144H755.118V152.8C755.118 154.677 755.395 155.936 755.95 156.576C756.504 157.216 757.678 157.536 759.47 157.536C760.11 157.579 761.155 157.515 762.606 157.344V163.552C761.07 163.979 759.662 164.256 758.382 164.384C757.102 164.512 756.056 164.576 755.246 164.576C752.088 164.576 749.699 163.915 748.078 162.592C746.499 161.269 745.71 159.115 745.71 156.128V138.144H739.502V131.872H745.71V125.536L755.118 122.08V131.872ZM789.913 136.096L790.233 131.808H799.129C799.001 132.789 798.851 135.285 798.681 139.296V163.872C798.681 168.181 797.315 171.403 794.585 173.536C791.897 175.669 787.929 176.736 782.681 176.736C777.945 176.736 774.425 175.883 772.121 174.176C769.817 172.512 768.558 169.909 768.345 166.368H777.433C777.561 167.776 778.094 168.864 779.033 169.632C780.014 170.443 781.358 170.848 783.065 170.848C784.558 170.848 785.774 170.528 786.713 169.888C787.651 169.291 788.291 168.544 788.633 167.648C789.017 166.752 789.273 164.981 789.401 162.336V158.944C788.334 160.352 787.097 161.44 785.689 162.208C784.281 162.976 782.595 163.36 780.633 163.36C776.579 163.36 773.294 161.845 770.777 158.816C768.302 155.744 767.065 151.968 767.065 147.488C767.065 142.837 768.302 139.019 770.777 136.032C773.294 133.003 776.665 131.488 780.889 131.488C782.894 131.488 784.622 131.851 786.073 132.576C787.566 133.301 788.846 134.475 789.913 136.096ZM782.873 156.896C785.049 156.896 786.691 156.085 787.801 154.464C788.953 152.843 789.529 150.56 789.529 147.616C789.529 144.331 788.974 141.877 787.865 140.256C786.755 138.635 785.134 137.824 783.001 137.824C781.038 137.824 779.459 138.635 778.265 140.256C777.113 141.877 776.537 144.267 776.537 147.424C776.537 150.581 777.07 152.949 778.137 154.528C779.246 156.107 780.825 156.896 782.873 156.896ZM833.548 142.496V154.336C833.548 158.304 833.804 161.525 834.316 164H825.74C825.654 163.573 825.548 162.101 825.42 159.584C824.31 161.205 822.988 162.485 821.452 163.424C819.916 164.32 817.996 164.768 815.692 164.768C811.894 164.768 809.142 163.829 807.436 161.952C805.729 160.032 804.876 157.856 804.876 155.424C804.876 151.669 806.305 148.704 809.164 146.528C812.065 144.352 816.652 143.264 822.924 143.264H824.524V141.984C824.524 138.187 822.945 136.288 819.788 136.288C818.55 136.288 817.526 136.693 816.716 137.504C815.948 138.272 815.564 139.424 815.564 140.96H806.284C806.369 137.589 807.585 135.051 809.932 133.344C812.321 131.595 815.564 130.72 819.66 130.72C823.67 130.72 826.977 131.616 829.58 133.408C832.225 135.157 833.548 138.187 833.548 142.496ZM818.7 158.624C820.492 158.624 821.9 157.899 822.924 156.448C823.99 154.955 824.524 152.949 824.524 150.432V148.768L822.86 148.704C819.916 148.704 817.718 149.195 816.268 150.176C814.817 151.157 814.092 152.437 814.092 154.016C814.092 155.339 814.518 156.448 815.372 157.344C816.225 158.197 817.334 158.624 818.7 158.624ZM861.558 140C860.833 139.915 860.022 139.872 859.126 139.872C856.694 139.872 854.795 140.448 853.43 141.6C852.065 142.752 851.382 144.8 851.382 147.744V164H841.91V138.272C841.739 134.475 841.59 132.235 841.462 131.552H850.358C850.486 132.533 850.55 134.581 850.55 137.696C851.659 135.307 853.003 133.685 854.582 132.832C856.203 131.936 858.187 131.488 860.534 131.488H861.558V140ZM877.055 131.872H884.735V138.144H877.055V152.8C877.055 154.677 877.332 155.936 877.887 156.576C878.442 157.216 879.615 157.536 881.407 157.536C882.047 157.579 883.092 157.515 884.543 157.344V163.552C883.007 163.979 881.599 164.256 880.319 164.384C879.039 164.512 877.994 164.576 877.183 164.576C874.026 164.576 871.636 163.915 870.015 162.592C868.436 161.269 867.647 159.115 867.647 156.128V138.144H861.439V131.872H867.647V125.536L877.055 122.08V131.872Z"
     fill="black"
     id="path2"
     style="fill:#ffffff;fill-opacity:1" />
</svg>
