<svg width="348" height="348" viewBox="0 0 348 348" fill="none" xmlns="http://www.w3.org/2000/svg">
<path d="M214.434 259.79L214.433 259.789L177.571 215.628L174.5 211.95L171.429 215.628L134.567 259.79L134.566 259.79C129.909 265.37 122.244 267.442 115.4 264.968L115.4 264.968C108.554 262.494 104 256.007 104 248.749L104 121.25C104 111.729 111.732 104 121.286 104C130.839 104 138.571 111.729 138.571 121.25L138.571 190.055L138.571 201.088L145.642 192.618L161.219 173.959L161.219 173.959C164.502 170.025 169.367 167.75 174.5 167.75C179.633 167.75 184.497 170.025 187.781 173.958C187.781 173.959 187.781 173.959 187.781 173.959L203.358 192.62L210.429 201.091L210.429 190.057L210.429 121.25C210.429 111.729 218.161 104 227.714 104C237.268 104 245 111.729 245 121.25L245 248.749C245 256.007 240.446 262.494 233.6 264.968L233.6 264.968C226.756 267.442 219.091 265.37 214.434 259.79Z" fill="#2F60AC" fill-opacity="0.81" stroke="white" stroke-width="8"/>
<path fill-rule="evenodd" clip-rule="evenodd" d="M333.5 174C333.5 262.089 262.089 333.5 174 333.5C85.9106 333.5 14.5 262.089 14.5 174C14.5 85.9106 85.9106 14.5 174 14.5C262.089 14.5 333.5 85.9106 333.5 174ZM43.599 174C43.599 246.019 101.982 304.401 174 304.401C246.019 304.401 304.401 246.019 304.401 174C304.401 101.982 246.019 43.599 174 43.599C101.982 43.599 43.599 101.982 43.599 174Z" fill="#2F60AC"/>
<path d="M74.6855 52L274.786 295.165" stroke="#DE1717" stroke-opacity="0.48" stroke-width="47"/>
</svg>
